<svg xmlns="http://www.w3.org/2000/svg" xmlns:xlink="http://www.w3.org/1999/xlink"
     viewBox="252 268 218 210" width="218" height="210">
<g xmlns="http://www.w3.org/2000/svg">
				<path style="fill:#043F59;" d="M456.785,393.438c-1.319-4.467-0.733-9.344,1.557-13.399c1.004-1.777,1.563-3.835,1.531-6.024      c-0.033-2.211-0.665-4.27-1.74-6.027c-2.431-3.973-3.127-8.836-1.964-13.346c0.509-1.976,0.517-4.109-0.081-6.214      c-0.604-2.127-1.748-3.952-3.241-5.372c-3.376-3.209-5.307-7.725-5.351-12.383c-0.019-2.04-0.564-4.103-1.686-5.982      c-1.134-1.898-2.711-3.365-4.521-4.35c-4.091-2.226-7.126-6.089-8.374-10.576c-0.547-1.966-1.606-3.817-3.177-5.342      c-1.586-1.54-3.49-2.549-5.493-3.031c-4.528-1.091-8.459-4.037-10.826-8.048c-1.037-1.757-2.54-3.271-4.451-4.337      c-1.931-1.077-4.031-1.559-6.09-1.507c-4.656,0.118-9.215-1.71-12.54-4.972c-1.456-1.429-3.299-2.502-5.422-3.038      c-2.144-0.54-4.297-0.462-6.272,0.121c-4.467,1.319-9.344,0.733-13.4-1.557c-1.776-1.003-3.835-1.563-6.023-1.531      c-2.211,0.033-4.27,0.665-6.027,1.74c-3.973,2.43-8.836,3.126-13.346,1.964c-1.976-0.509-4.109-0.517-6.215,0.081      c-2.127,0.604-3.952,1.748-5.372,3.241c-3.209,3.376-7.725,5.307-12.383,5.351c-2.04,0.019-4.103,0.564-5.982,1.686      c-1.898,1.134-3.365,2.711-4.35,4.521c-2.226,4.091-6.089,7.126-10.576,8.374c-1.966,0.547-3.817,1.606-5.342,3.177      c-1.54,1.586-2.549,3.49-3.031,5.493c-1.091,4.528-4.037,8.459-8.048,10.825c-1.757,1.037-3.271,2.54-4.337,4.451      c-1.077,1.931-1.559,4.031-1.507,6.09c0.118,4.656-1.71,9.215-4.972,12.54c-1.429,1.456-2.502,3.3-3.038,5.422      c-0.54,2.144-0.462,4.297,0.121,6.272c1.319,4.467,0.733,9.344-1.557,13.399c-1.004,1.777-1.563,3.835-1.531,6.024      c0.033,2.211,0.665,4.27,1.74,6.027c2.43,3.973,3.127,8.836,1.964,13.346c-0.509,1.976-0.517,4.109,0.081,6.215      c0.604,2.127,1.748,3.952,3.241,5.372c3.376,3.209,5.307,7.726,5.351,12.383c0.019,2.04,0.564,4.103,1.686,5.982      c1.134,1.898,2.711,3.365,4.521,4.35c4.091,2.226,7.126,6.089,8.374,10.576c0.547,1.966,1.606,3.817,3.177,5.342      c1.586,1.54,3.49,2.549,5.493,3.031c4.528,1.091,8.459,4.037,10.826,8.048c1.037,1.757,2.54,3.271,4.451,4.337      c1.931,1.077,4.031,1.559,6.09,1.507c4.656-0.118,9.215,1.71,12.54,4.972c1.456,1.429,3.3,2.502,5.422,3.038      c2.144,0.54,4.297,0.462,6.272-0.121c4.467-1.319,9.344-0.733,13.4,1.557c1.776,1.003,3.835,1.563,6.024,1.531      c2.211-0.033,4.27-0.665,6.027-1.74c3.973-2.43,8.836-3.127,13.346-1.964c1.976,0.509,4.109,0.517,6.215-0.081      c2.127-0.604,3.952-1.748,5.372-3.241c3.209-3.376,7.725-5.307,12.383-5.351c2.04-0.019,4.103-0.564,5.982-1.686      c1.898-1.134,3.365-2.711,4.35-4.521c2.226-4.092,6.089-7.126,10.576-8.374c1.966-0.547,3.817-1.606,5.341-3.177      c1.54-1.586,2.549-3.49,3.031-5.493c1.091-4.528,4.037-8.459,8.049-10.826c1.757-1.037,3.271-2.539,4.337-4.451      c1.077-1.931,1.559-4.031,1.507-6.09c-0.118-4.656,1.71-9.215,4.972-12.54c1.429-1.456,2.502-3.3,3.037-5.422      C457.447,397.567,457.369,395.414,456.785,393.438z" />
				<path style="fill:#D14242;" d="M451.043,392.371c-1.24-4.2-0.689-8.785,1.464-12.598c0.943-1.67,1.47-3.605,1.439-5.663      c-0.031-2.078-0.626-4.015-1.636-5.667c-2.285-3.736-2.94-8.307-1.846-12.548c0.479-1.857,0.486-3.863-0.076-5.842      c-0.568-2-1.643-3.716-3.047-5.05c-3.174-3.017-4.99-7.263-5.031-11.642c-0.018-1.918-0.53-3.857-1.586-5.624      c-1.066-1.784-2.549-3.164-4.25-4.089c-3.847-2.093-6.699-5.725-7.873-9.943c-0.514-1.848-1.51-3.589-2.987-5.022      c-1.491-1.448-3.281-2.396-5.164-2.85c-4.257-1.026-7.953-3.796-10.178-7.567c-0.975-1.652-2.388-3.075-4.185-4.078      c-1.815-1.013-3.789-1.466-5.726-1.416c-4.378,0.111-8.664-1.608-11.79-4.675c-1.369-1.344-3.102-2.353-5.098-2.856      c-2.016-0.508-4.04-0.435-5.897,0.114c-4.2,1.24-8.785,0.689-12.598-1.464c-1.67-0.943-3.605-1.47-5.663-1.439      c-2.078,0.031-4.015,0.626-5.667,1.636c-3.736,2.285-8.307,2.94-12.548,1.846c-1.857-0.479-3.863-0.486-5.843,0.076      c-2,0.568-3.716,1.643-5.05,3.047c-3.017,3.174-7.263,4.99-11.642,5.031c-1.918,0.018-3.857,0.53-5.624,1.585      c-1.784,1.066-3.164,2.549-4.09,4.25c-2.092,3.847-5.724,6.699-9.943,7.873c-1.848,0.514-3.589,1.51-5.022,2.987      c-1.448,1.491-2.396,3.281-2.85,5.164c-1.026,4.257-3.795,7.953-7.567,10.178c-1.652,0.975-3.076,2.388-4.078,4.185      c-1.012,1.815-1.466,3.79-1.416,5.726c0.111,4.378-1.608,8.664-4.675,11.79c-1.344,1.369-2.353,3.102-2.856,5.098      c-0.508,2.016-0.435,4.04,0.114,5.897c1.24,4.2,0.689,8.785-1.464,12.598c-0.943,1.67-1.47,3.605-1.439,5.663      c0.031,2.078,0.625,4.015,1.636,5.667c2.285,3.735,2.94,8.307,1.846,12.547c-0.479,1.858-0.486,3.863,0.076,5.843      c0.568,2,1.643,3.716,3.047,5.05c3.174,3.017,4.989,7.263,5.031,11.642c0.018,1.918,0.53,3.857,1.585,5.624      c1.066,1.785,2.549,3.164,4.25,4.09c3.847,2.092,6.699,5.724,7.872,9.943c0.514,1.848,1.51,3.589,2.987,5.022      c1.491,1.448,3.281,2.396,5.164,2.85c4.257,1.026,7.953,3.795,10.178,7.567c0.975,1.652,2.388,3.075,4.185,4.078      c1.815,1.012,3.789,1.466,5.726,1.416c4.378-0.111,8.664,1.608,11.789,4.675c1.369,1.344,3.102,2.353,5.098,2.856      c2.016,0.508,4.04,0.435,5.897-0.114c4.2-1.24,8.785-0.689,12.598,1.464c1.67,0.943,3.605,1.47,5.663,1.439      c2.078-0.031,4.015-0.626,5.667-1.636c3.736-2.285,8.307-2.94,12.547-1.846c1.858,0.479,3.863,0.486,5.843-0.076      c2-0.568,3.716-1.643,5.05-3.047c3.017-3.174,7.263-4.989,11.642-5.031c1.918-0.018,3.857-0.53,5.624-1.585      c1.784-1.066,3.164-2.549,4.09-4.25c2.092-3.847,5.724-6.699,9.943-7.873c1.848-0.514,3.589-1.51,5.022-2.987      c1.448-1.491,2.396-3.281,2.85-5.164c1.026-4.257,3.796-7.953,7.567-10.178c1.652-0.975,3.075-2.388,4.078-4.185      c1.012-1.815,1.466-3.79,1.417-5.726c-0.111-4.378,1.608-8.664,4.675-11.79c1.343-1.369,2.353-3.102,2.856-5.098      C451.665,396.253,451.591,394.228,451.043,392.371z" />
				<path style="fill:#043F59;" d="M403.899,365.418c-1.304-0.172-2.6-0.284-3.886-0.355c1.078-0.704,2.143-1.453,3.187-2.254      c18.165-13.938,28.608-30.818,23.326-37.701c-5.282-6.884-24.289-1.165-42.454,12.774c-1.044,0.801-2.043,1.636-3.002,2.495      c0.265-1.26,0.491-2.541,0.663-3.845c2.988-22.7-1.562-42.02-10.165-43.153c-8.602-1.132-17.999,16.352-20.987,39.052      c-0.172,1.304-0.284,2.6-0.355,3.886c-0.704-1.078-1.453-2.143-2.254-3.187c-13.938-18.165-30.818-28.608-37.701-23.326      c-6.883,5.282-1.165,24.289,12.774,42.454c0.801,1.044,1.636,2.043,2.495,3.002c-1.26-0.265-2.541-0.491-3.846-0.663      c-22.7-2.988-42.02,1.562-43.153,10.165c-1.132,8.602,16.352,17.999,39.052,20.987c1.304,0.172,2.6,0.284,3.886,0.355      c-1.079,0.704-2.143,1.453-3.187,2.254c-18.165,13.938-28.608,30.818-23.326,37.701c5.282,6.884,24.289,1.165,42.454-12.774      c1.044-0.801,2.043-1.635,3.002-2.495c-0.265,1.26-0.491,2.541-0.663,3.846c-2.988,22.7,1.562,42.021,10.165,43.153      c8.602,1.132,17.999-16.352,20.987-39.052c0.172-1.304,0.284-2.6,0.355-3.886c0.704,1.078,1.453,2.143,2.254,3.187      c13.938,18.165,30.818,28.608,37.701,23.326c6.883-5.282,1.165-24.289-12.774-42.454c-0.801-1.044-1.636-2.043-2.495-3.002      c1.26,0.265,2.541,0.491,3.845,0.663c22.7,2.988,42.021-1.562,43.153-10.165C444.083,377.803,426.599,368.407,403.899,365.418z" />
				<g>
					<path style="fill:#FFA31C;" d="M373.123,303.503c0,1.734-1.406,3.139-3.139,3.139c-1.734,0-3.139-1.406-3.139-3.139       c0-1.734,1.406-3.139,3.139-3.139C371.717,300.363,373.123,301.769,373.123,303.503z" />
					<path style="fill:#FFA31C;" d="M318.529,315.863c1.226,1.226,1.226,3.214,0,4.44c-1.226,1.226-3.214,1.226-4.44,0       c-1.226-1.226-1.226-3.214,0-4.44C315.315,314.637,317.303,314.637,318.529,315.863z" />
					<path style="fill:#FFA31C;" d="M288.666,363.206c1.734,0,3.139,1.406,3.139,3.139c0,1.734-1.406,3.139-3.139,3.139       c-1.734,0-3.139-1.406-3.139-3.139C285.526,364.612,286.932,363.206,288.666,363.206z" />
					<path style="fill:#FFA31C;" d="M301.026,417.8c1.226-1.226,3.214-1.226,4.44,0c1.226,1.226,1.226,3.214,0,4.44       c-1.226,1.226-3.214,1.226-4.44,0C299.8,421.014,299.8,419.026,301.026,417.8z" />
					<path style="fill:#FFA31C;" d="M348.37,447.663c0-1.734,1.406-3.139,3.139-3.139c1.734,0,3.139,1.406,3.139,3.139       c0,1.734-1.406,3.139-3.139,3.139C349.775,450.802,348.37,449.397,348.37,447.663z" />
					<path style="fill:#FFA31C;" d="M402.963,435.303c-1.226-1.226-1.226-3.214,0-4.44c1.226-1.226,3.214-1.226,4.44,0       c1.226,1.226,1.226,3.214,0,4.44C406.177,436.529,404.189,436.529,402.963,435.303z" />
					<path style="fill:#FFA31C;" d="M432.826,387.959c-1.734,0-3.139-1.406-3.139-3.139c0-1.734,1.406-3.139,3.139-3.139       c1.734,0,3.14,1.406,3.14,3.139C435.966,386.554,434.56,387.959,432.826,387.959z" />
					<path style="fill:#FFA31C;" d="M420.466,333.366c-1.226,1.226-3.214,1.226-4.44,0c-1.226-1.226-1.226-3.214,0-4.44       c1.226-1.226,3.214-1.226,4.44,0C421.692,330.152,421.692,332.14,420.466,333.366z" />
				</g>
				<path style="fill:#B52323;" d="M415.661,381.94c3.423-0.649,5.99-3.674,5.936-7.277c-0.054-3.609-2.718-6.56-6.168-7.101      c3.138-1.513,4.835-5.099,3.85-8.566c-0.986-3.472-4.324-5.633-7.795-5.262c2.64-2.274,3.35-6.177,1.502-9.271      c-1.851-3.099-5.634-4.322-8.891-3.065c1.961-2.879,1.637-6.833-0.948-9.343c-2.59-2.514-6.561-2.717-9.382-0.66      c1.149-3.289-0.187-7.025-3.334-8.78c-3.152-1.758-7.041-0.926-9.233,1.791c0.259-3.474-1.999-6.737-5.493-7.618      c-3.5-0.882-7.041,0.928-8.455,4.12c-0.649-3.423-3.674-5.99-7.277-5.936c-3.609,0.054-6.561,2.718-7.101,6.168      c-1.513-3.138-5.099-4.835-8.566-3.85c-3.472,0.986-5.633,4.324-5.262,7.795c-2.274-2.64-6.177-3.35-9.271-1.502      c-3.099,1.851-4.322,5.634-3.065,8.892c-2.879-1.961-6.834-1.637-9.343,0.948c-2.514,2.59-2.717,6.561-0.66,9.382      c-3.289-1.149-7.024,0.187-8.78,3.334c-1.758,3.152-0.926,7.041,1.791,9.233c-3.474-0.259-6.737,1.999-7.617,5.493      c-0.883,3.5,0.928,7.04,4.12,8.455c-3.423,0.649-5.99,3.674-5.936,7.277c0.053,3.609,2.718,6.56,6.168,7.1      c-3.138,1.513-4.835,5.099-3.85,8.566c0.986,3.472,4.324,5.633,7.795,5.262c-2.64,2.274-3.35,6.177-1.502,9.271      c1.851,3.099,5.634,4.322,8.892,3.065c-1.961,2.879-1.637,6.834,0.948,9.344c2.59,2.514,6.561,2.717,9.382,0.66      c-1.149,3.289,0.187,7.024,3.334,8.78c3.152,1.758,7.041,0.926,9.233-1.791c-0.259,3.474,1.999,6.737,5.493,7.618      c3.5,0.882,7.04-0.928,8.455-4.12c0.649,3.423,3.674,5.99,7.277,5.936c3.609-0.054,6.56-2.718,7.1-6.168      c1.513,3.138,5.099,4.835,8.566,3.85c3.472-0.986,5.633-4.324,5.262-7.795c2.274,2.64,6.177,3.35,9.271,1.502      c3.099-1.851,4.322-5.634,3.065-8.892c2.879,1.961,6.834,1.637,9.344-0.948c2.514-2.59,2.717-6.561,0.66-9.382      c3.289,1.149,7.025-0.187,8.78-3.334c1.758-3.152,0.926-7.041-1.791-9.233c3.474,0.259,6.737-1.999,7.617-5.493      C420.663,386.895,418.853,383.354,415.661,381.94z" />
				<path style="fill:#FFA31C;" d="M404.595,382.121c-1.148-0.643-2.31-1.227-3.478-1.769c1.263-0.255,2.529-0.556,3.795-0.914      c22.035-6.221,37.986-18.033,35.629-26.384c-2.357-8.35-22.131-10.076-44.166-3.855c-1.266,0.358-2.503,0.763-3.712,1.206      c0.712-1.073,1.397-2.179,2.04-3.327c11.182-19.98,14.109-39.612,6.537-43.849c-7.571-4.237-22.774,8.524-33.956,28.504      c-0.643,1.148-1.227,2.31-1.769,3.478c-0.255-1.263-0.556-2.529-0.914-3.795c-6.221-22.035-18.033-37.986-26.384-35.629      c-8.35,2.357-10.076,22.131-3.855,44.166c0.357,1.266,0.763,2.503,1.206,3.713c-1.073-0.712-2.179-1.397-3.327-2.04      c-19.98-11.182-39.612-14.109-43.85-6.538c-4.237,7.571,8.524,22.774,28.504,33.956c1.148,0.643,2.31,1.227,3.478,1.769      c-1.263,0.255-2.529,0.556-3.795,0.914c-22.035,6.221-37.986,18.033-35.629,26.384c2.358,8.35,22.131,10.076,44.166,3.855      c1.266-0.358,2.503-0.763,3.712-1.206c-0.712,1.073-1.397,2.179-2.04,3.327c-11.182,19.98-14.109,39.612-6.538,43.849      c7.571,4.237,22.774-8.524,33.956-28.504c0.643-1.148,1.227-2.31,1.769-3.478c0.255,1.263,0.556,2.529,0.914,3.795      c6.221,22.035,18.033,37.986,26.383,35.629c8.35-2.358,10.076-22.131,3.855-44.166c-0.357-1.266-0.763-2.503-1.206-3.713      c1.073,0.713,2.179,1.397,3.327,2.04c19.98,11.182,39.612,14.109,43.849,6.538C437.337,408.505,424.575,393.302,404.595,382.121      z" />
				<circle style="fill:#B52323;" cx="360.73" cy="375.579" r="34.537" />
				<circle style="fill:#FFA31C;" cx="360.746" cy="375.583" r="20.531" />
				<g id="XMLID_962_">
					<g id="XMLID_1173_">
						<path id="XMLID_1174_" style="fill:#043F59;" d="M359.129,335.488c-0.521,0.069-0.797,1.24-0.616,2.616        c0.181,1.376,1.272,2.368,1.272,2.368s0.797-1.24,0.616-2.616C360.22,336.48,359.65,335.42,359.129,335.488z" />
						<path id="XMLID_1175_" style="fill:#043F59;" d="M362.474,335.488c-0.522-0.069-1.091,0.991-1.272,2.368        c-0.181,1.376,0.616,2.616,0.616,2.616s1.091-0.991,1.272-2.368C363.271,336.728,362.995,335.557,362.474,335.488z" />
					</g>
					<g id="XMLID_963_">
						<path id="XMLID_965_" style="fill:#043F59;" d="M353.908,336.05c-0.508,0.136-0.629,1.334-0.27,2.674        c0.359,1.341,1.571,2.181,1.571,2.181s0.629-1.333,0.27-2.674C355.12,336.89,354.416,335.914,353.908,336.05z" />
						<path id="XMLID_964_" style="fill:#043F59;" d="M357.224,335.613c-0.526,0-0.952,1.125-0.952,2.513        c0,1.388,0.952,2.514,0.952,2.514s0.953-1.125,0.953-2.514C358.177,336.738,357.75,335.613,357.224,335.613z" />
					</g>
					<g id="XMLID_1054_">
						<path id="XMLID_1056_" style="fill:#043F59;" d="M348.805,337.288c-0.486,0.201-0.449,1.404,0.082,2.687        s1.842,1.958,1.842,1.958s0.449-1.404-0.082-2.687C350.116,337.963,349.291,337.086,348.805,337.288z" />
						<path id="XMLID_1055_" style="fill:#043F59;" d="M352.036,336.422c-0.522,0.069-0.798,1.24-0.616,2.616        c0.181,1.376,1.272,2.368,1.272,2.368s0.798-1.24,0.616-2.616C353.128,337.413,352.558,336.353,352.036,336.422z" />
					</g>
					<g id="XMLID_1057_">
						<path id="XMLID_1179_" style="fill:#043F59;" d="M343.908,339.181c-0.456,0.263-0.262,1.451,0.432,2.653        c0.694,1.202,2.082,1.701,2.082,1.701s0.262-1.451-0.432-2.653C345.296,339.68,344.364,338.918,343.908,339.181z" />
						<path id="XMLID_1177_" style="fill:#043F59;" d="M346.998,337.901c-0.508,0.136-0.629,1.333-0.27,2.674        c0.359,1.341,1.571,2.181,1.571,2.181s0.629-1.333,0.27-2.674C348.209,338.742,347.506,337.765,346.998,337.901z" />
					</g>
					<g id="XMLID_1180_">
						<path id="XMLID_1182_" style="fill:#043F59;" d="M339.3,341.698c-0.417,0.32-0.071,1.473,0.775,2.574        c0.845,1.101,2.286,1.414,2.286,1.414s0.071-1.473-0.775-2.574C340.74,342.011,339.717,341.377,339.3,341.698z" />
						<path id="XMLID_1181_" style="fill:#043F59;" d="M342.196,340.025c-0.486,0.201-0.449,1.404,0.082,2.687        c0.531,1.283,1.842,1.958,1.842,1.958s0.449-1.404-0.082-2.687C343.507,340.701,342.682,339.824,342.196,340.025z" />
					</g>
					<g id="XMLID_1183_">
						<path id="XMLID_1185_" style="fill:#043F59;" d="M335.059,344.794c-0.372,0.372,0.122,1.469,1.104,2.451        c0.982,0.982,2.451,1.104,2.451,1.104s-0.122-1.469-1.104-2.451S335.431,344.422,335.059,344.794z" />
						<path id="XMLID_1184_" style="fill:#043F59;" d="M337.713,342.758c-0.456,0.263-0.262,1.451,0.432,2.653        c0.694,1.202,2.082,1.701,2.082,1.701s0.262-1.451-0.432-2.653C339.1,343.256,338.168,342.495,337.713,342.758z" />
					</g>
					<g id="XMLID_1186_">
						<path id="XMLID_1188_" style="fill:#043F59;" d="M331.259,348.418c-0.32,0.417,0.313,1.441,1.414,2.286        c1.101,0.845,2.574,0.774,2.574,0.774s-0.313-1.441-1.414-2.286C332.732,348.347,331.579,348,331.259,348.418z" />
						<path id="XMLID_1187_" style="fill:#043F59;" d="M333.624,346.053c-0.417,0.32-0.071,1.473,0.775,2.574        c0.845,1.101,2.286,1.414,2.286,1.414s0.071-1.473-0.775-2.574C335.065,346.366,334.041,345.733,333.624,346.053z" />
					</g>
					<g id="XMLID_1189_">
						<path id="XMLID_1191_" style="fill:#043F59;" d="M327.964,352.506c-0.263,0.456,0.498,1.388,1.701,2.082        c1.202,0.694,2.653,0.432,2.653,0.432s-0.498-1.388-1.701-2.082C329.415,352.244,328.227,352.051,327.964,352.506z" />
						<path id="XMLID_1190_" style="fill:#043F59;" d="M330,349.853c-0.372,0.372,0.122,1.469,1.104,2.451s2.451,1.104,2.451,1.104        s-0.122-1.469-1.104-2.451S330.372,349.481,330,349.853z" />
					</g>
					<g id="XMLID_1192_">
						<path id="XMLID_1194_" style="fill:#043F59;" d="M325.232,356.99c-0.201,0.486,0.675,1.311,1.958,1.842        c1.283,0.531,2.687,0.082,2.687,0.082s-0.675-1.311-1.958-1.842C326.636,356.541,325.433,356.504,325.232,356.99z" />
						<path id="XMLID_1193_" style="fill:#043F59;" d="M326.904,354.093c-0.32,0.417,0.313,1.441,1.414,2.286        c1.101,0.845,2.574,0.774,2.574,0.774s-0.313-1.441-1.414-2.286C328.377,354.023,327.224,353.676,326.904,354.093z" />
					</g>
					<g id="XMLID_1195_">
						<path id="XMLID_1197_" style="fill:#043F59;" d="M323.107,361.792c-0.136,0.508,0.84,1.211,2.181,1.571        c1.341,0.359,2.674-0.27,2.674-0.27s-0.84-1.211-2.181-1.571C324.441,361.163,323.244,361.284,323.107,361.792z" />
						<path id="XMLID_1196_" style="fill:#043F59;" d="M324.387,358.702c-0.263,0.456,0.498,1.388,1.701,2.082        c1.202,0.694,2.653,0.432,2.653,0.432s-0.498-1.388-1.701-2.082C325.838,358.44,324.65,358.246,324.387,358.702z" />
					</g>
					<g id="XMLID_1198_">
						<path id="XMLID_1200_" style="fill:#043F59;" d="M321.628,366.83c-0.069,0.522,0.992,1.091,2.368,1.272        c1.376,0.181,2.616-0.616,2.616-0.616s-0.991-1.091-2.368-1.272C322.868,366.033,321.697,366.308,321.628,366.83z" />
						<path id="XMLID_1199_" style="fill:#043F59;" d="M322.494,363.599c-0.201,0.486,0.675,1.311,1.958,1.842        c1.283,0.531,2.687,0.082,2.687,0.082s-0.675-1.311-1.958-1.842C323.898,363.15,322.695,363.113,322.494,363.599z" />
					</g>
					<g id="XMLID_1201_">
						<path id="XMLID_1203_" style="fill:#043F59;" d="M320.819,372.018c0,0.526,1.125,0.953,2.514,0.953        c1.388,0,2.513-0.953,2.513-0.953s-1.125-0.953-2.513-0.953C321.945,371.065,320.819,371.492,320.819,372.018z" />
						<path id="XMLID_1202_" style="fill:#043F59;" d="M321.256,368.702c-0.136,0.508,0.84,1.211,2.181,1.571        c1.341,0.359,2.674-0.27,2.674-0.27s-0.841-1.211-2.181-1.571C322.589,368.073,321.392,368.194,321.256,368.702z" />
					</g>
					<g id="XMLID_1204_">
						<path id="XMLID_1206_" style="fill:#043F59;" d="M320.694,377.267c0.069,0.522,1.24,0.797,2.616,0.616        c1.376-0.181,2.368-1.272,2.368-1.272s-1.24-0.798-2.616-0.616C321.686,376.176,320.626,376.746,320.694,377.267z" />
						<path id="XMLID_1205_" style="fill:#043F59;" d="M320.694,373.923c-0.069,0.522,0.991,1.091,2.368,1.272        c1.376,0.181,2.616-0.616,2.616-0.616s-0.991-1.091-2.368-1.272C321.934,373.125,320.763,373.401,320.694,373.923z" />
					</g>
					<g id="XMLID_1207_">
						<path id="XMLID_1209_" style="fill:#043F59;" d="M321.256,382.488c0.136,0.508,1.333,0.629,2.674,0.27        c1.341-0.359,2.181-1.571,2.181-1.571s-1.333-0.629-2.674-0.27C322.096,381.277,321.12,381.98,321.256,382.488z" />
						<path id="XMLID_1208_" style="fill:#043F59;" d="M320.819,379.172c0,0.526,1.125,0.953,2.514,0.953        c1.388,0,2.513-0.953,2.513-0.953s-1.125-0.952-2.513-0.952C321.945,378.22,320.819,378.646,320.819,379.172z" />
					</g>
					<g id="XMLID_1210_">
						<path id="XMLID_1212_" style="fill:#043F59;" d="M322.494,387.591c0.201,0.486,1.404,0.449,2.687-0.082        c1.283-0.531,1.958-1.842,1.958-1.842s-1.404-0.449-2.687,0.082C323.169,386.28,322.293,387.105,322.494,387.591z" />
						<path id="XMLID_1211_" style="fill:#043F59;" d="M321.628,384.36c0.069,0.521,1.24,0.797,2.616,0.616        c1.376-0.181,2.368-1.272,2.368-1.272s-1.24-0.797-2.616-0.616C322.62,383.269,321.56,383.839,321.628,384.36z" />
					</g>
					<g id="XMLID_1213_">
						<path id="XMLID_1215_" style="fill:#043F59;" d="M324.387,392.488c0.263,0.455,1.451,0.262,2.653-0.432        c1.202-0.694,1.701-2.082,1.701-2.082s-1.451-0.262-2.653,0.432C324.886,391.101,324.124,392.033,324.387,392.488z" />
						<path id="XMLID_1214_" style="fill:#043F59;" d="M323.107,389.398c0.136,0.508,1.334,0.629,2.674,0.27        c1.341-0.359,2.181-1.571,2.181-1.571s-1.334-0.629-2.674-0.27C323.948,388.187,322.971,388.89,323.107,389.398z" />
					</g>
					<g id="XMLID_1216_">
						<path id="XMLID_1218_" style="fill:#043F59;" d="M326.904,397.097c0.32,0.417,1.473,0.071,2.574-0.775        c1.101-0.845,1.414-2.286,1.414-2.286s-1.473-0.071-2.574,0.775C327.217,395.656,326.584,396.679,326.904,397.097z" />
						<path id="XMLID_1217_" style="fill:#043F59;" d="M325.232,394.2c0.201,0.486,1.404,0.449,2.687-0.082        c1.283-0.531,1.958-1.842,1.958-1.842s-1.404-0.449-2.687,0.082C325.907,392.889,325.03,393.714,325.232,394.2z" />
					</g>
					<g id="XMLID_1219_">
						<path id="XMLID_1221_" style="fill:#043F59;" d="M330,401.337c0.372,0.372,1.469-0.122,2.451-1.104s1.104-2.451,1.104-2.451        s-1.469,0.122-2.451,1.104C330.123,399.868,329.628,400.965,330,401.337z" />
						<path id="XMLID_1220_" style="fill:#043F59;" d="M327.964,398.684c0.263,0.456,1.451,0.262,2.653-0.432        c1.202-0.694,1.701-2.082,1.701-2.082s-1.451-0.262-2.653,0.432C328.463,397.296,327.701,398.228,327.964,398.684z" />
					</g>
					<g id="XMLID_1222_">
						<path id="XMLID_1224_" style="fill:#043F59;" d="M333.624,405.137c0.417,0.32,1.441-0.313,2.286-1.414        c0.845-1.101,0.775-2.574,0.775-2.574s-1.441,0.313-2.286,1.414C333.553,403.665,333.207,404.817,333.624,405.137z" />
						<path id="XMLID_1223_" style="fill:#043F59;" d="M331.259,402.772c0.32,0.417,1.473,0.071,2.574-0.775        c1.101-0.845,1.414-2.286,1.414-2.286s-1.473-0.071-2.574,0.774C331.572,401.332,330.939,402.355,331.259,402.772z" />
					</g>
					<g id="XMLID_1225_">
						<path id="XMLID_1227_" style="fill:#043F59;" d="M337.713,408.432c0.456,0.263,1.388-0.498,2.082-1.7        c0.694-1.202,0.432-2.653,0.432-2.653s-1.388,0.498-2.082,1.701C337.45,406.981,337.257,408.169,337.713,408.432z" />
						<path id="XMLID_1226_" style="fill:#043F59;" d="M335.059,406.396c0.372,0.372,1.469-0.122,2.451-1.104        s1.104-2.451,1.104-2.451s-1.469,0.122-2.451,1.104C335.181,404.927,334.687,406.024,335.059,406.396z" />
					</g>
					<g id="XMLID_1228_">
						<path id="XMLID_1230_" style="fill:#043F59;" d="M342.196,411.165c0.486,0.201,1.311-0.675,1.842-1.958        c0.531-1.283,0.082-2.687,0.082-2.687s-1.311,0.675-1.842,1.958C341.747,409.76,341.71,410.963,342.196,411.165z" />
						<path id="XMLID_1229_" style="fill:#043F59;" d="M339.3,409.492c0.417,0.32,1.441-0.313,2.286-1.414        c0.845-1.101,0.775-2.574,0.775-2.574s-1.441,0.313-2.286,1.414C339.229,408.02,338.882,409.172,339.3,409.492z" />
					</g>
					<g id="XMLID_1231_">
						<path id="XMLID_1233_" style="fill:#043F59;" d="M346.998,413.289c0.508,0.136,1.211-0.84,1.571-2.181        c0.359-1.341-0.27-2.674-0.27-2.674s-1.211,0.84-1.571,2.181C346.369,411.955,346.49,413.153,346.998,413.289z" />
						<path id="XMLID_1232_" style="fill:#043F59;" d="M343.908,412.009c0.456,0.263,1.388-0.498,2.082-1.701        c0.694-1.202,0.432-2.653,0.432-2.653s-1.388,0.498-2.082,1.701C343.646,410.558,343.452,411.746,343.908,412.009z" />
					</g>
					<g id="XMLID_1234_">
						<path id="XMLID_1236_" style="fill:#043F59;" d="M352.036,414.768c0.522,0.069,1.091-0.991,1.272-2.368        c0.181-1.376-0.616-2.616-0.616-2.616s-1.091,0.991-1.272,2.368C351.239,413.528,351.515,414.699,352.036,414.768z" />
						<path id="XMLID_1235_" style="fill:#043F59;" d="M348.805,413.902c0.486,0.201,1.311-0.675,1.842-1.958        c0.531-1.283,0.082-2.687,0.082-2.687s-1.311,0.675-1.842,1.958C348.356,412.498,348.319,413.701,348.805,413.902z" />
					</g>
					<g id="XMLID_1237_">
						<path id="XMLID_1239_" style="fill:#043F59;" d="M357.224,415.577c0.526,0,0.953-1.125,0.953-2.514        c0-1.388-0.953-2.513-0.953-2.513s-0.952,1.125-0.952,2.513C356.272,414.452,356.698,415.577,357.224,415.577z" />
						<path id="XMLID_1238_" style="fill:#043F59;" d="M353.908,415.14c0.508,0.136,1.211-0.841,1.571-2.181        c0.359-1.341-0.27-2.674-0.27-2.674s-1.211,0.84-1.571,2.181C353.279,413.807,353.4,415.004,353.908,415.14z" />
					</g>
					<g id="XMLID_1240_">
						<path id="XMLID_1242_" style="fill:#043F59;" d="M362.474,415.702c0.522-0.069,0.797-1.24,0.616-2.616        c-0.181-1.376-1.272-2.368-1.272-2.368s-0.797,1.24-0.616,2.616C361.382,414.71,361.952,415.771,362.474,415.702z" />
						<path id="XMLID_1241_" style="fill:#043F59;" d="M359.129,415.702c0.522,0.069,1.091-0.991,1.273-2.368        c0.181-1.376-0.616-2.616-0.616-2.616s-1.091,0.991-1.272,2.368C358.331,414.462,358.607,415.633,359.129,415.702z" />
					</g>
					<g id="XMLID_1243_">
						<path id="XMLID_1245_" style="fill:#043F59;" d="M367.694,415.14c0.508-0.136,0.629-1.334,0.27-2.674        c-0.359-1.341-1.571-2.181-1.571-2.181s-0.629,1.333-0.27,2.674C366.483,414.3,367.186,415.277,367.694,415.14z" />
						<path id="XMLID_1244_" style="fill:#043F59;" d="M364.378,415.577c0.526,0,0.953-1.125,0.953-2.514        c0-1.388-0.953-2.513-0.953-2.513s-0.952,1.125-0.952,2.513C363.426,414.452,363.852,415.577,364.378,415.577z" />
					</g>
					<g id="XMLID_1246_">
						<path id="XMLID_1248_" style="fill:#043F59;" d="M372.797,413.902c0.486-0.201,0.449-1.404-0.082-2.687        c-0.531-1.283-1.842-1.958-1.842-1.958s-0.449,1.404,0.082,2.687C371.486,413.227,372.311,414.104,372.797,413.902z" />
						<path id="XMLID_1247_" style="fill:#043F59;" d="M369.566,414.768c0.522-0.069,0.798-1.24,0.616-2.616        c-0.181-1.376-1.272-2.368-1.272-2.368s-0.797,1.24-0.616,2.616C368.475,413.777,369.045,414.837,369.566,414.768z" />
					</g>
					<g id="XMLID_1249_">
						<path id="XMLID_1251_" style="fill:#043F59;" d="M377.694,412.009c0.456-0.263,0.262-1.451-0.432-2.653        c-0.694-1.202-2.082-1.701-2.082-1.701s-0.262,1.451,0.432,2.653C376.307,411.511,377.239,412.272,377.694,412.009z" />
						<path id="XMLID_1250_" style="fill:#043F59;" d="M374.604,413.289c0.508-0.136,0.629-1.333,0.27-2.674        c-0.359-1.341-1.571-2.181-1.571-2.181s-0.629,1.334-0.27,2.674C373.393,412.448,374.096,413.425,374.604,413.289z" />
					</g>
					<g id="XMLID_1252_">
						<path id="XMLID_1254_" style="fill:#043F59;" d="M382.303,409.492c0.417-0.32,0.071-1.473-0.775-2.574        c-0.845-1.101-2.286-1.414-2.286-1.414s-0.071,1.473,0.775,2.574C380.862,409.179,381.886,409.813,382.303,409.492z" />
						<path id="XMLID_1253_" style="fill:#043F59;" d="M379.406,411.165c0.486-0.201,0.449-1.404-0.082-2.687        c-0.531-1.283-1.842-1.958-1.842-1.958s-0.449,1.404,0.082,2.687C378.096,410.49,378.92,411.366,379.406,411.165z" />
					</g>
					<g id="XMLID_1255_">
						<path id="XMLID_1257_" style="fill:#043F59;" d="M386.543,406.396c0.372-0.372-0.122-1.469-1.104-2.451        c-0.982-0.981-2.451-1.104-2.451-1.104s0.122,1.469,1.104,2.451S386.171,406.768,386.543,406.396z" />
						<path id="XMLID_1256_" style="fill:#043F59;" d="M383.89,408.432c0.456-0.263,0.262-1.451-0.432-2.653        c-0.694-1.202-2.082-1.701-2.082-1.701s-0.262,1.451,0.432,2.653C382.502,407.934,383.434,408.695,383.89,408.432z" />
					</g>
					<g id="XMLID_1258_">
						<path id="XMLID_1260_" style="fill:#043F59;" d="M390.344,402.772c0.32-0.417-0.313-1.441-1.414-2.286        c-1.101-0.845-2.574-0.774-2.574-0.774s0.313,1.441,1.414,2.286C388.871,402.843,390.023,403.19,390.344,402.772z" />
						<path id="XMLID_1259_" style="fill:#043F59;" d="M387.978,405.137c0.417-0.32,0.071-1.473-0.774-2.574        c-0.845-1.101-2.286-1.414-2.286-1.414s-0.071,1.473,0.775,2.574C386.538,404.824,387.561,405.458,387.978,405.137z" />
					</g>
					<g id="XMLID_1261_">
						<path id="XMLID_1263_" style="fill:#043F59;" d="M393.638,398.684c0.263-0.455-0.498-1.388-1.701-2.082        c-1.202-0.694-2.653-0.432-2.653-0.432s0.498,1.388,1.701,2.082C392.187,398.946,393.375,399.139,393.638,398.684z" />
						<path id="XMLID_1262_" style="fill:#043F59;" d="M391.602,401.337c0.372-0.372-0.122-1.469-1.104-2.451        c-0.982-0.982-2.451-1.104-2.451-1.104s0.122,1.469,1.104,2.451S391.23,401.709,391.602,401.337z" />
					</g>
					<g id="XMLID_1264_">
						<path id="XMLID_1266_" style="fill:#043F59;" d="M396.371,394.2c0.201-0.486-0.675-1.311-1.958-1.842        c-1.283-0.531-2.687-0.082-2.687-0.082s0.675,1.311,1.958,1.842C394.967,394.65,396.17,394.686,396.371,394.2z" />
						<path id="XMLID_1265_" style="fill:#043F59;" d="M394.699,397.097c0.32-0.417-0.313-1.441-1.414-2.286        c-1.101-0.845-2.574-0.775-2.574-0.775s0.313,1.441,1.414,2.286C393.226,397.167,394.378,397.514,394.699,397.097z" />
					</g>
					<g id="XMLID_1267_">
						<path id="XMLID_1269_" style="fill:#043F59;" d="M398.495,389.398c0.136-0.508-0.841-1.211-2.181-1.571        c-1.341-0.359-2.674,0.27-2.674,0.27s0.84,1.211,2.181,1.571C397.162,390.027,398.359,389.906,398.495,389.398z" />
						<path id="XMLID_1268_" style="fill:#043F59;" d="M397.215,392.488c0.263-0.456-0.498-1.388-1.701-2.082        c-1.202-0.694-2.653-0.432-2.653-0.432s0.498,1.388,1.701,2.082C395.764,392.75,396.952,392.944,397.215,392.488z" />
					</g>
					<g id="XMLID_1270_">
						<path id="XMLID_1272_" style="fill:#043F59;" d="M399.974,384.36c0.069-0.522-0.991-1.091-2.368-1.273        c-1.376-0.181-2.616,0.616-2.616,0.616s0.991,1.091,2.368,1.272C398.734,385.158,399.906,384.882,399.974,384.36z" />
						<path id="XMLID_1271_" style="fill:#043F59;" d="M399.109,387.591c0.201-0.486-0.675-1.311-1.958-1.842        c-1.283-0.531-2.687-0.082-2.687-0.082s0.675,1.311,1.958,1.842C397.704,388.04,398.907,388.077,399.109,387.591z" />
					</g>
					<g id="XMLID_1273_">
						<path id="XMLID_1275_" style="fill:#043F59;" d="M400.783,379.172c0-0.526-1.125-0.952-2.513-0.952        c-1.388,0-2.514,0.952-2.514,0.952s1.125,0.953,2.514,0.953C399.658,380.125,400.783,379.698,400.783,379.172z" />
						<path id="XMLID_1274_" style="fill:#043F59;" d="M400.347,382.488c0.136-0.508-0.84-1.211-2.181-1.571        c-1.341-0.359-2.674,0.27-2.674,0.27s0.841,1.211,2.181,1.571C399.013,383.117,400.21,382.996,400.347,382.488z" />
					</g>
					<g id="XMLID_1276_">
						<path id="XMLID_1278_" style="fill:#043F59;" d="M400.908,373.923c-0.069-0.522-1.24-0.797-2.616-0.616        c-1.376,0.181-2.368,1.272-2.368,1.272s1.24,0.798,2.616,0.616C399.917,375.014,400.977,374.444,400.908,373.923z" />
						<path id="XMLID_1277_" style="fill:#043F59;" d="M400.908,377.267c0.069-0.522-0.991-1.091-2.368-1.272        c-1.376-0.181-2.616,0.616-2.616,0.616s0.991,1.091,2.368,1.272C399.668,378.065,400.839,377.789,400.908,377.267z" />
					</g>
					<g id="XMLID_1279_">
						<path id="XMLID_1281_" style="fill:#043F59;" d="M400.347,368.702c-0.136-0.508-1.334-0.629-2.674-0.27        c-1.341,0.359-2.181,1.571-2.181,1.571s1.334,0.629,2.674,0.27C399.506,369.913,400.483,369.21,400.347,368.702z" />
						<path id="XMLID_1280_" style="fill:#043F59;" d="M400.783,372.018c0-0.526-1.125-0.953-2.513-0.953        c-1.388,0-2.514,0.953-2.514,0.953s1.125,0.953,2.514,0.953C399.658,372.971,400.783,372.544,400.783,372.018z" />
					</g>
					<g id="XMLID_1282_">
						<path id="XMLID_1284_" style="fill:#043F59;" d="M399.109,363.599c-0.201-0.486-1.404-0.449-2.687,0.082        c-1.283,0.531-1.958,1.842-1.958,1.842s1.404,0.449,2.687-0.082C398.433,364.91,399.31,364.085,399.109,363.599z" />
						<path id="XMLID_1283_" style="fill:#043F59;" d="M399.974,366.83c-0.069-0.522-1.24-0.797-2.616-0.616        c-1.376,0.181-2.368,1.272-2.368,1.272s1.24,0.797,2.616,0.616C398.983,367.921,400.043,367.352,399.974,366.83z" />
					</g>
					<g id="XMLID_1285_">
						<path id="XMLID_1287_" style="fill:#043F59;" d="M397.215,358.702c-0.263-0.456-1.451-0.262-2.653,0.432        c-1.202,0.694-1.701,2.082-1.701,2.082s1.451,0.262,2.653-0.432C396.717,360.089,397.478,359.157,397.215,358.702z" />
						<path id="XMLID_1286_" style="fill:#043F59;" d="M398.495,361.792c-0.136-0.508-1.333-0.629-2.674-0.27        c-1.341,0.359-2.181,1.571-2.181,1.571s1.333,0.629,2.674,0.27C397.655,363.003,398.631,362.3,398.495,361.792z" />
					</g>
					<g id="XMLID_1288_">
						<path id="XMLID_1290_" style="fill:#043F59;" d="M394.699,354.093c-0.32-0.417-1.473-0.071-2.574,0.775        c-1.101,0.845-1.414,2.286-1.414,2.286s1.473,0.071,2.574-0.774C394.386,355.534,395.019,354.511,394.699,354.093z" />
						<path id="XMLID_1289_" style="fill:#043F59;" d="M396.371,356.99c-0.201-0.486-1.404-0.449-2.687,0.082        c-1.283,0.531-1.958,1.842-1.958,1.842s1.404,0.449,2.687-0.082C395.696,358.301,396.572,357.476,396.371,356.99z" />
					</g>
					<g id="XMLID_1291_">
						<path id="XMLID_1293_" style="fill:#043F59;" d="M391.602,349.853c-0.372-0.372-1.469,0.122-2.451,1.104        s-1.104,2.451-1.104,2.451s1.469-0.122,2.451-1.104S391.974,350.225,391.602,349.853z" />
						<path id="XMLID_1292_" style="fill:#043F59;" d="M393.638,352.506c-0.263-0.456-1.451-0.262-2.653,0.432        c-1.202,0.694-1.701,2.082-1.701,2.082s1.451,0.262,2.653-0.432C393.14,353.894,393.901,352.962,393.638,352.506z" />
					</g>
					<g id="XMLID_1294_">
						<path id="XMLID_1296_" style="fill:#043F59;" d="M387.978,346.053c-0.417-0.32-1.441,0.313-2.286,1.414        c-0.845,1.101-0.775,2.574-0.775,2.574s1.441-0.313,2.286-1.414C388.049,347.525,388.396,346.373,387.978,346.053z" />
						<path id="XMLID_1295_" style="fill:#043F59;" d="M390.344,348.418c-0.32-0.417-1.473-0.071-2.574,0.775        c-1.101,0.845-1.414,2.286-1.414,2.286s1.473,0.071,2.574-0.774C390.031,349.858,390.664,348.835,390.344,348.418z" />
					</g>
					<g id="XMLID_1297_">
						<path id="XMLID_1299_" style="fill:#043F59;" d="M383.89,342.758c-0.456-0.263-1.388,0.498-2.082,1.701        c-0.694,1.202-0.432,2.653-0.432,2.653s1.388-0.498,2.082-1.701C384.152,344.209,384.346,343.021,383.89,342.758z" />
						<path id="XMLID_1298_" style="fill:#043F59;" d="M386.543,344.794c-0.372-0.372-1.469,0.122-2.451,1.104        s-1.104,2.451-1.104,2.451s1.469-0.122,2.451-1.104C386.421,346.263,386.915,345.166,386.543,344.794z" />
					</g>
					<g id="XMLID_1300_">
						<path id="XMLID_1302_" style="fill:#043F59;" d="M379.406,340.025c-0.486-0.201-1.311,0.675-1.842,1.958        c-0.531,1.283-0.082,2.687-0.082,2.687s1.311-0.675,1.842-1.958C379.856,341.43,379.892,340.227,379.406,340.025z" />
						<path id="XMLID_1301_" style="fill:#043F59;" d="M382.303,341.698c-0.417-0.32-1.441,0.313-2.286,1.414        c-0.845,1.101-0.775,2.574-0.775,2.574s1.441-0.313,2.286-1.414C382.374,343.17,382.72,342.018,382.303,341.698z" />
					</g>
					<g id="XMLID_1303_">
						<path id="XMLID_1305_" style="fill:#043F59;" d="M374.604,337.901c-0.508-0.136-1.211,0.84-1.571,2.181        c-0.359,1.341,0.27,2.674,0.27,2.674s1.211-0.84,1.571-2.181C375.233,339.235,375.113,338.037,374.604,337.901z" />
						<path id="XMLID_1304_" style="fill:#043F59;" d="M377.694,339.181c-0.456-0.263-1.388,0.498-2.082,1.701        c-0.694,1.202-0.432,2.653-0.432,2.653s1.388-0.498,2.082-1.701C377.957,340.632,378.15,339.444,377.694,339.181z" />
					</g>
					<g id="XMLID_1306_">
						<path id="XMLID_1308_" style="fill:#043F59;" d="M369.566,336.422c-0.521-0.069-1.091,0.991-1.272,2.368        c-0.181,1.376,0.616,2.616,0.616,2.616s1.091-0.991,1.272-2.368C370.364,337.662,370.088,336.491,369.566,336.422z" />
						<path id="XMLID_1307_" style="fill:#043F59;" d="M372.797,337.288c-0.486-0.201-1.311,0.675-1.842,1.958        c-0.531,1.283-0.082,2.687-0.082,2.687s1.311-0.675,1.842-1.958C373.246,338.692,373.283,337.489,372.797,337.288z" />
					</g>
					<g id="XMLID_1309_">
						<path id="XMLID_1311_" style="fill:#043F59;" d="M364.378,335.613c-0.526,0-0.952,1.125-0.952,2.513        c0,1.388,0.952,2.514,0.952,2.514s0.953-1.125,0.953-2.514C365.331,336.738,364.904,335.613,364.378,335.613z" />
						<path id="XMLID_1310_" style="fill:#043F59;" d="M367.694,336.05c-0.508-0.136-1.211,0.841-1.571,2.181        c-0.359,1.341,0.27,2.674,0.27,2.674s1.211-0.84,1.571-2.181C368.323,337.383,368.202,336.186,367.694,336.05z" />
					</g>
				</g>
				<g id="XMLID_1_">
					<g id="XMLID_143_">
						<path id="XMLID_145_" style="fill:#FFA31C;" d="M359.464,343.525c-0.417,0.055-0.638,0.992-0.493,2.092        c0.145,1.1,1.017,1.893,1.017,1.893s0.638-0.992,0.493-2.092C360.337,344.318,359.881,343.47,359.464,343.525z" />
						<path id="XMLID_144_" style="fill:#FFA31C;" d="M362.138,343.525c-0.417-0.055-0.873,0.793-1.017,1.893        c-0.145,1.1,0.493,2.092,0.493,2.092s0.873-0.793,1.017-1.893C362.776,344.516,362.556,343.58,362.138,343.525z" />
					</g>
					<g id="XMLID_140_">
						<path id="XMLID_142_" style="fill:#FFA31C;" d="M355.289,343.974c-0.406,0.109-0.503,1.066-0.215,2.139        c0.287,1.072,1.256,1.744,1.256,1.744s0.503-1.066,0.215-2.139C356.258,344.646,355.696,343.865,355.289,343.974z" />
						<path id="XMLID_141_" style="fill:#FFA31C;" d="M357.941,343.625c-0.421,0-0.762,0.9-0.762,2.01c0,1.11,0.762,2.01,0.762,2.01        s0.762-0.9,0.762-2.01C358.703,344.525,358.362,343.625,357.941,343.625z" />
					</g>
					<g id="XMLID_137_">
						<path id="XMLID_139_" style="fill:#FFA31C;" d="M351.209,344.964c-0.389,0.161-0.359,1.123,0.065,2.148        c0.425,1.026,1.473,1.565,1.473,1.565s0.359-1.123-0.065-2.148C352.257,345.504,351.598,344.803,351.209,344.964z" />
						<path id="XMLID_138_" style="fill:#FFA31C;" d="M353.793,344.271c-0.417,0.055-0.638,0.992-0.493,2.092        c0.145,1.101,1.017,1.893,1.017,1.893s0.638-0.992,0.493-2.092C354.665,345.064,354.21,344.216,353.793,344.271z" />
					</g>
					<g id="XMLID_134_">
						<path id="XMLID_136_" style="fill:#FFA31C;" d="M347.293,346.478c-0.364,0.21-0.21,1.16,0.345,2.122        c0.555,0.961,1.665,1.36,1.665,1.36s0.21-1.16-0.345-2.122C348.403,346.876,347.657,346.267,347.293,346.478z" />
						<path id="XMLID_135_" style="fill:#FFA31C;" d="M349.764,345.454c-0.406,0.109-0.503,1.066-0.216,2.138        c0.287,1.072,1.256,1.744,1.256,1.744s0.503-1.066,0.216-2.139C350.733,346.126,350.17,345.345,349.764,345.454z" />
					</g>
					<g id="XMLID_131_">
						<path id="XMLID_133_" style="fill:#FFA31C;" d="M343.608,348.49c-0.334,0.256-0.057,1.178,0.619,2.058        c0.676,0.881,1.828,1.131,1.828,1.131s0.056-1.178-0.619-2.058C344.76,348.74,343.942,348.234,343.608,348.49z" />
						<path id="XMLID_132_" style="fill:#FFA31C;" d="M345.924,347.153c-0.389,0.161-0.359,1.123,0.065,2.148        c0.425,1.026,1.473,1.566,1.473,1.566s0.359-1.123-0.065-2.148S346.313,346.992,345.924,347.153z" />
					</g>
					<g id="XMLID_128_">
						<path id="XMLID_130_" style="fill:#FFA31C;" d="M340.217,350.966c-0.297,0.297,0.098,1.175,0.883,1.96        c0.785,0.785,1.96,0.883,1.96,0.883s-0.098-1.175-0.883-1.96C341.392,351.064,340.515,350.669,340.217,350.966z" />
						<path id="XMLID_129_" style="fill:#FFA31C;" d="M342.339,349.338c-0.364,0.21-0.21,1.16,0.345,2.122        c0.555,0.961,1.664,1.36,1.664,1.36s0.21-1.16-0.345-2.122C343.449,349.736,342.703,349.128,342.339,349.338z" />
					</g>
					<g id="XMLID_125_">
						<path id="XMLID_127_" style="fill:#FFA31C;" d="M337.179,353.863c-0.256,0.334,0.25,1.152,1.131,1.828        c0.881,0.676,2.058,0.619,2.058,0.619s-0.25-1.152-1.131-1.828C338.356,353.807,337.435,353.53,337.179,353.863z" />
						<path id="XMLID_126_" style="fill:#FFA31C;" d="M339.07,351.972c-0.334,0.256-0.057,1.178,0.619,2.058        c0.676,0.881,1.828,1.131,1.828,1.131s0.056-1.178-0.619-2.058C340.222,352.223,339.403,351.716,339.07,351.972z" />
					</g>
					<g id="XMLID_122_">
						<path id="XMLID_124_" style="fill:#FFA31C;" d="M334.544,357.133c-0.21,0.364,0.398,1.109,1.36,1.665        c0.961,0.555,2.121,0.345,2.121,0.345s-0.398-1.11-1.36-1.665C335.704,356.923,334.754,356.768,334.544,357.133z" />
						<path id="XMLID_123_" style="fill:#FFA31C;" d="M336.172,355.011c-0.297,0.298,0.098,1.175,0.883,1.96        c0.785,0.785,1.96,0.883,1.96,0.883s-0.098-1.175-0.883-1.96C337.347,355.109,336.47,354.714,336.172,355.011z" />
					</g>
					<g id="XMLID_119_">
						<path id="XMLID_121_" style="fill:#FFA31C;" d="M332.359,360.718c-0.161,0.389,0.54,1.048,1.565,1.473        c1.026,0.425,2.148,0.065,2.148,0.065s-0.54-1.048-1.565-1.473C333.482,360.359,332.52,360.329,332.359,360.718z" />
						<path id="XMLID_120_" style="fill:#FFA31C;" d="M333.696,358.402c-0.256,0.334,0.25,1.152,1.131,1.828        c0.881,0.676,2.058,0.619,2.058,0.619s-0.25-1.152-1.131-1.828C334.874,358.345,333.952,358.068,333.696,358.402z" />
					</g>
					<g id="XMLID_116_">
						<path id="XMLID_118_" style="fill:#FFA31C;" d="M330.66,364.558c-0.109,0.406,0.672,0.969,1.744,1.256        s2.138-0.215,2.138-0.215s-0.672-0.969-1.744-1.256C331.727,364.055,330.769,364.151,330.66,364.558z" />
						<path id="XMLID_117_" style="fill:#FFA31C;" d="M331.684,362.087c-0.21,0.364,0.398,1.11,1.36,1.665s2.121,0.345,2.121,0.345        s-0.398-1.109-1.36-1.665C332.844,361.877,331.894,361.723,331.684,362.087z" />
					</g>
					<g id="XMLID_113_">
						<path id="XMLID_115_" style="fill:#FFA31C;" d="M329.478,368.586c-0.055,0.417,0.793,0.873,1.893,1.017        c1.1,0.145,2.092-0.493,2.092-0.493s-0.793-0.873-1.893-1.017C330.469,367.949,329.533,368.169,329.478,368.586z" />
						<path id="XMLID_114_" style="fill:#FFA31C;" d="M330.17,366.003c-0.161,0.389,0.54,1.048,1.565,1.473        c1.026,0.425,2.148,0.065,2.148,0.065s-0.54-1.048-1.565-1.473C331.293,365.644,330.331,365.614,330.17,366.003z" />
					</g>
					<g id="XMLID_110_">
						<path id="XMLID_112_" style="fill:#FFA31C;" d="M328.831,372.735c0,0.421,0.9,0.762,2.01,0.762c1.11,0,2.01-0.762,2.01-0.762        s-0.9-0.762-2.01-0.762C329.731,371.973,328.831,372.314,328.831,372.735z" />
						<path id="XMLID_111_" style="fill:#FFA31C;" d="M329.18,370.083c-0.109,0.406,0.672,0.969,1.744,1.256        c1.072,0.287,2.139-0.216,2.139-0.216s-0.672-0.969-1.744-1.256S329.289,369.677,329.18,370.083z" />
					</g>
					<g id="XMLID_107_">
						<path id="XMLID_109_" style="fill:#FFA31C;" d="M328.731,376.932c0.055,0.417,0.992,0.638,2.092,0.493        c1.101-0.145,1.893-1.017,1.893-1.017s-0.992-0.638-2.092-0.493C329.524,376.06,328.676,376.515,328.731,376.932z" />
						<path id="XMLID_108_" style="fill:#FFA31C;" d="M328.731,374.258c-0.055,0.417,0.793,0.873,1.893,1.017        c1.101,0.145,2.092-0.493,2.092-0.493s-0.793-0.873-1.893-1.017C329.723,373.62,328.786,373.841,328.731,374.258z" />
					</g>
					<g id="XMLID_104_">
						<path id="XMLID_106_" style="fill:#FFA31C;" d="M329.18,381.107c0.109,0.406,1.066,0.503,2.139,0.215s1.744-1.256,1.744-1.256        s-1.066-0.503-2.139-0.216C329.852,380.138,329.071,380.701,329.18,381.107z" />
						<path id="XMLID_105_" style="fill:#FFA31C;" d="M328.831,378.455c0,0.421,0.9,0.762,2.01,0.762c1.11,0,2.01-0.762,2.01-0.762        s-0.9-0.762-2.01-0.762C329.731,377.694,328.831,378.035,328.831,378.455z" />
					</g>
					<g id="XMLID_101_">
						<path id="XMLID_103_" style="fill:#FFA31C;" d="M330.17,385.187c0.161,0.389,1.123,0.359,2.148-0.065        c1.025-0.425,1.565-1.473,1.565-1.473s-1.123-0.359-2.148,0.065C330.71,384.139,330.009,384.798,330.17,385.187z" />
						<path id="XMLID_102_" style="fill:#FFA31C;" d="M329.478,382.604c0.055,0.417,0.992,0.638,2.092,0.493        c1.101-0.145,1.893-1.017,1.893-1.017s-0.992-0.638-2.092-0.493C330.27,381.731,329.423,382.187,329.478,382.604z" />
					</g>
					<g id="XMLID_98_">
						<path id="XMLID_100_" style="fill:#FFA31C;" d="M331.684,389.103c0.21,0.364,1.16,0.21,2.121-0.345        c0.961-0.555,1.36-1.665,1.36-1.665s-1.16-0.21-2.121,0.345C332.082,387.994,331.474,388.739,331.684,389.103z" />
						<path id="XMLID_99_" style="fill:#FFA31C;" d="M330.66,386.632c0.109,0.406,1.066,0.503,2.139,0.216        c1.072-0.287,1.744-1.256,1.744-1.256s-1.066-0.503-2.138-0.215S330.552,386.226,330.66,386.632z" />
					</g>
					<g id="XMLID_95_">
						<path id="XMLID_97_" style="fill:#FFA31C;" d="M333.696,392.788c0.256,0.334,1.177,0.056,2.058-0.619        c0.881-0.676,1.131-1.828,1.131-1.828s-1.178-0.056-2.058,0.619C333.947,391.636,333.44,392.454,333.696,392.788z" />
						<path id="XMLID_96_" style="fill:#FFA31C;" d="M332.359,390.472c0.161,0.389,1.123,0.359,2.148-0.066        c1.026-0.425,1.565-1.473,1.565-1.473s-1.123-0.359-2.148,0.066C332.899,389.424,332.198,390.083,332.359,390.472z" />
					</g>
					<g id="XMLID_92_">
						<path id="XMLID_94_" style="fill:#FFA31C;" d="M336.172,396.179c0.297,0.298,1.175-0.098,1.96-0.883        c0.785-0.785,0.883-1.96,0.883-1.96s-1.175,0.098-1.96,0.883C336.27,395.004,335.875,395.882,336.172,396.179z" />
						<path id="XMLID_93_" style="fill:#FFA31C;" d="M334.544,394.057c0.21,0.364,1.16,0.21,2.121-0.345        c0.961-0.555,1.36-1.665,1.36-1.665s-1.16-0.21-2.121,0.345S334.334,393.693,334.544,394.057z" />
					</g>
					<g id="XMLID_89_">
						<path id="XMLID_91_" style="fill:#FFA31C;" d="M339.07,399.218c0.334,0.256,1.152-0.25,1.828-1.131        c0.676-0.881,0.619-2.058,0.619-2.058s-1.152,0.25-1.828,1.131C339.013,398.04,338.736,398.962,339.07,399.218z" />
						<path id="XMLID_90_" style="fill:#FFA31C;" d="M337.179,397.327c0.256,0.334,1.178,0.056,2.058-0.619        c0.881-0.676,1.131-1.828,1.131-1.828s-1.177-0.056-2.058,0.619C337.429,396.174,336.923,396.993,337.179,397.327z" />
					</g>
					<g id="XMLID_86_">
						<path id="XMLID_88_" style="fill:#FFA31C;" d="M342.339,401.852c0.364,0.21,1.109-0.398,1.665-1.36        c0.555-0.961,0.345-2.121,0.345-2.121s-1.109,0.398-1.664,1.36C342.129,400.692,341.975,401.642,342.339,401.852z" />
						<path id="XMLID_87_" style="fill:#FFA31C;" d="M340.217,400.224c0.297,0.297,1.175-0.098,1.96-0.883        c0.785-0.785,0.883-1.96,0.883-1.96s-1.175,0.098-1.96,0.883C340.315,399.049,339.92,399.927,340.217,400.224z" />
					</g>
					<g id="XMLID_83_">
						<path id="XMLID_85_" style="fill:#FFA31C;" d="M345.924,404.037c0.389,0.161,1.048-0.54,1.473-1.565        c0.425-1.026,0.065-2.148,0.065-2.148s-1.048,0.54-1.473,1.565C345.565,402.914,345.536,403.876,345.924,404.037z" />
						<path id="XMLID_84_" style="fill:#FFA31C;" d="M343.608,402.7c0.334,0.256,1.152-0.25,1.828-1.131        c0.676-0.881,0.619-2.058,0.619-2.058s-1.152,0.25-1.828,1.131C343.552,401.522,343.274,402.444,343.608,402.7z" />
					</g>
					<g id="XMLID_80_">
						<path id="XMLID_82_" style="fill:#FFA31C;" d="M349.764,405.736c0.406,0.109,0.969-0.672,1.256-1.744        c0.287-1.072-0.216-2.138-0.216-2.138s-0.969,0.672-1.256,1.744C349.261,404.669,349.358,405.627,349.764,405.736z" />
						<path id="XMLID_81_" style="fill:#FFA31C;" d="M347.293,404.712c0.364,0.21,1.109-0.398,1.664-1.36        c0.555-0.961,0.345-2.121,0.345-2.121s-1.11,0.398-1.665,1.36C347.083,403.552,346.929,404.502,347.293,404.712z" />
					</g>
					<g id="XMLID_77_">
						<path id="XMLID_79_" style="fill:#FFA31C;" d="M353.793,406.919c0.417,0.055,0.873-0.793,1.017-1.893        s-0.493-2.092-0.493-2.092s-0.873,0.793-1.017,1.893C353.155,405.927,353.375,406.864,353.793,406.919z" />
						<path id="XMLID_78_" style="fill:#FFA31C;" d="M351.209,406.226c0.389,0.161,1.048-0.54,1.473-1.565        c0.425-1.026,0.065-2.148,0.065-2.148s-1.048,0.54-1.473,1.565C350.85,405.104,350.821,406.065,351.209,406.226z" />
					</g>
					<g id="XMLID_74_">
						<path id="XMLID_76_" style="fill:#FFA31C;" d="M357.941,407.565c0.421,0,0.762-0.9,0.762-2.01c0-1.11-0.762-2.01-0.762-2.01        s-0.762,0.9-0.762,2.01C357.179,406.666,357.52,407.565,357.941,407.565z" />
						<path id="XMLID_75_" style="fill:#FFA31C;" d="M355.289,407.216c0.406,0.109,0.969-0.672,1.256-1.744        c0.287-1.072-0.215-2.139-0.215-2.139s-0.969,0.672-1.256,1.744C354.787,406.15,354.883,407.108,355.289,407.216z" />
					</g>
					<g id="XMLID_71_">
						<path id="XMLID_73_" style="fill:#FFA31C;" d="M362.138,407.665c0.417-0.055,0.638-0.991,0.493-2.092        c-0.145-1.1-1.017-1.893-1.017-1.893s-0.638,0.991-0.493,2.092C361.266,406.872,361.721,407.72,362.138,407.665z" />
						<path id="XMLID_72_" style="fill:#FFA31C;" d="M359.464,407.665c0.417,0.055,0.873-0.793,1.017-1.893        c0.145-1.101-0.493-2.092-0.493-2.092s-0.873,0.793-1.017,1.893C358.826,406.674,359.047,407.61,359.464,407.665z" />
					</g>
					<g id="XMLID_68_">
						<path id="XMLID_70_" style="fill:#FFA31C;" d="M366.313,407.216c0.406-0.109,0.503-1.066,0.216-2.139        c-0.287-1.072-1.256-1.744-1.256-1.744s-0.503,1.066-0.215,2.139C365.344,406.544,365.907,407.325,366.313,407.216z" />
						<path id="XMLID_69_" style="fill:#FFA31C;" d="M363.661,407.565c0.421,0,0.762-0.9,0.762-2.01c0-1.11-0.762-2.01-0.762-2.01        s-0.762,0.9-0.762,2.01C362.9,406.666,363.241,407.565,363.661,407.565z" />
					</g>
					<g id="XMLID_65_">
						<path id="XMLID_67_" style="fill:#FFA31C;" d="M370.393,406.226c0.389-0.161,0.359-1.123-0.065-2.148        c-0.425-1.026-1.473-1.565-1.473-1.565s-0.359,1.123,0.065,2.148C369.345,405.686,370.005,406.387,370.393,406.226z" />
						<path id="XMLID_66_" style="fill:#FFA31C;" d="M367.81,406.919c0.417-0.055,0.638-0.992,0.493-2.092        c-0.145-1.101-1.018-1.893-1.018-1.893s-0.638,0.992-0.493,2.092S367.393,406.974,367.81,406.919z" />
					</g>
					<g id="XMLID_62_">
						<path id="XMLID_64_" style="fill:#FFA31C;" d="M374.309,404.712c0.364-0.21,0.21-1.16-0.345-2.121        c-0.555-0.961-1.664-1.36-1.664-1.36s-0.21,1.16,0.345,2.121C373.2,404.314,373.945,404.923,374.309,404.712z" />
						<path id="XMLID_63_" style="fill:#FFA31C;" d="M371.839,405.736c0.406-0.109,0.503-1.066,0.215-2.139        c-0.287-1.072-1.256-1.744-1.256-1.744s-0.503,1.066-0.216,2.138C370.87,405.064,371.432,405.845,371.839,405.736z" />
					</g>
					<g id="XMLID_59_">
						<path id="XMLID_61_" style="fill:#FFA31C;" d="M377.994,402.7c0.334-0.256,0.056-1.178-0.619-2.058        c-0.676-0.881-1.828-1.131-1.828-1.131s-0.057,1.178,0.619,2.058C376.842,402.45,377.661,402.956,377.994,402.7z" />
						<path id="XMLID_60_" style="fill:#FFA31C;" d="M375.678,404.037c0.389-0.161,0.359-1.123-0.065-2.148        c-0.425-1.025-1.473-1.565-1.473-1.565s-0.359,1.123,0.065,2.148C374.63,403.497,375.29,404.198,375.678,404.037z" />
					</g>
					<g id="XMLID_56_">
						<path id="XMLID_58_" style="fill:#FFA31C;" d="M381.385,400.224c0.297-0.297-0.098-1.175-0.883-1.96        c-0.785-0.785-1.96-0.883-1.96-0.883s0.098,1.175,0.883,1.96C380.21,400.126,381.088,400.521,381.385,400.224z" />
						<path id="XMLID_57_" style="fill:#FFA31C;" d="M379.263,401.852c0.364-0.21,0.21-1.16-0.345-2.121        c-0.555-0.961-1.665-1.36-1.665-1.36s-0.21,1.16,0.345,2.121C378.154,401.454,378.899,402.062,379.263,401.852z" />
					</g>
					<g id="XMLID_53_">
						<path id="XMLID_55_" style="fill:#FFA31C;" d="M384.424,397.327c0.256-0.334-0.25-1.152-1.131-1.828        c-0.881-0.676-2.058-0.619-2.058-0.619s0.25,1.152,1.131,1.828C383.246,397.383,384.168,397.66,384.424,397.327z" />
						<path id="XMLID_54_" style="fill:#FFA31C;" d="M382.533,399.218c0.334-0.256,0.057-1.178-0.619-2.058        c-0.676-0.881-1.828-1.131-1.828-1.131s-0.057,1.177,0.619,2.058C381.381,398.967,382.199,399.474,382.533,399.218z" />
					</g>
					<g id="XMLID_50_">
						<path id="XMLID_52_" style="fill:#FFA31C;" d="M387.058,394.057c0.21-0.364-0.398-1.109-1.36-1.664        c-0.961-0.555-2.121-0.345-2.121-0.345s0.398,1.109,1.36,1.665C385.898,394.267,386.848,394.422,387.058,394.057z" />
						<path id="XMLID_51_" style="fill:#FFA31C;" d="M385.43,396.179c0.298-0.297-0.098-1.175-0.883-1.96        c-0.785-0.785-1.96-0.883-1.96-0.883s0.098,1.175,0.883,1.96C384.255,396.081,385.133,396.477,385.43,396.179z" />
					</g>
					<g id="XMLID_47_">
						<path id="XMLID_49_" style="fill:#FFA31C;" d="M389.243,390.472c0.161-0.389-0.54-1.048-1.565-1.473        c-1.026-0.425-2.148-0.066-2.148-0.066s0.54,1.048,1.565,1.473C388.121,390.831,389.082,390.861,389.243,390.472z" />
						<path id="XMLID_48_" style="fill:#FFA31C;" d="M387.906,392.788c0.256-0.334-0.25-1.152-1.131-1.828        c-0.881-0.676-2.058-0.619-2.058-0.619s0.25,1.152,1.131,1.828C386.729,392.845,387.65,393.122,387.906,392.788z" />
					</g>
					<g id="XMLID_44_">
						<path id="XMLID_46_" style="fill:#FFA31C;" d="M390.942,386.632c0.109-0.406-0.672-0.969-1.744-1.256        c-1.072-0.287-2.139,0.215-2.139,0.215s0.672,0.969,1.744,1.256C389.876,387.135,390.833,387.039,390.942,386.632z" />
						<path id="XMLID_45_" style="fill:#FFA31C;" d="M389.919,389.103c0.21-0.364-0.398-1.109-1.36-1.665        c-0.961-0.555-2.121-0.345-2.121-0.345s0.398,1.109,1.36,1.665C388.758,389.313,389.708,389.467,389.919,389.103z" />
					</g>
					<g id="XMLID_41_">
						<path id="XMLID_43_" style="fill:#FFA31C;" d="M392.125,382.604c0.055-0.417-0.793-0.873-1.893-1.017        c-1.101-0.145-2.092,0.493-2.092,0.493s0.793,0.872,1.893,1.017C391.133,383.241,392.07,383.021,392.125,382.604z" />
						<path id="XMLID_42_" style="fill:#FFA31C;" d="M391.433,385.187c0.161-0.389-0.54-1.048-1.565-1.473s-2.148-0.065-2.148-0.065        s0.54,1.048,1.565,1.473C390.31,385.546,391.272,385.576,391.433,385.187z" />
					</g>
					<g id="XMLID_38_">
						<path id="XMLID_40_" style="fill:#FFA31C;" d="M392.772,378.455c0-0.421-0.9-0.762-2.01-0.762c-1.11,0-2.01,0.762-2.01,0.762        s0.9,0.762,2.01,0.762C391.872,379.217,392.772,378.876,392.772,378.455z" />
						<path id="XMLID_39_" style="fill:#FFA31C;" d="M392.423,381.107c0.109-0.406-0.672-0.969-1.744-1.256        c-1.072-0.287-2.138,0.216-2.138,0.216s0.672,0.969,1.744,1.256C391.356,381.61,392.314,381.513,392.423,381.107z" />
					</g>
					<g id="XMLID_35_">
						<path id="XMLID_37_" style="fill:#FFA31C;" d="M392.871,374.258c-0.055-0.417-0.992-0.638-2.092-0.493        c-1.1,0.145-1.893,1.017-1.893,1.017s0.992,0.638,2.092,0.493C392.079,375.13,392.926,374.675,392.871,374.258z" />
						<path id="XMLID_36_" style="fill:#FFA31C;" d="M392.871,376.932c0.055-0.417-0.793-0.873-1.893-1.018        c-1.1-0.145-2.092,0.493-2.092,0.493s0.793,0.873,1.893,1.017C391.88,377.57,392.817,377.349,392.871,376.932z" />
					</g>
					<g id="XMLID_32_">
						<path id="XMLID_34_" style="fill:#FFA31C;" d="M392.423,370.083c-0.109-0.406-1.066-0.503-2.138-0.215        c-1.072,0.287-1.744,1.256-1.744,1.256s1.066,0.503,2.138,0.216C391.75,371.052,392.531,370.49,392.423,370.083z" />
						<path id="XMLID_33_" style="fill:#FFA31C;" d="M392.772,372.735c0-0.421-0.9-0.762-2.01-0.762c-1.11,0-2.01,0.762-2.01,0.762        s0.9,0.762,2.01,0.762C391.872,373.496,392.772,373.155,392.772,372.735z" />
					</g>
					<g id="XMLID_29_">
						<path id="XMLID_31_" style="fill:#FFA31C;" d="M391.433,366.003c-0.161-0.389-1.123-0.359-2.148,0.065        c-1.026,0.425-1.565,1.473-1.565,1.473s1.123,0.359,2.148-0.065S391.594,366.392,391.433,366.003z" />
						<path id="XMLID_30_" style="fill:#FFA31C;" d="M392.125,368.586c-0.055-0.417-0.991-0.638-2.092-0.493        c-1.1,0.145-1.893,1.017-1.893,1.017s0.992,0.638,2.092,0.493C391.332,369.459,392.18,369.003,392.125,368.586z" />
					</g>
					<g id="XMLID_26_">
						<path id="XMLID_28_" style="fill:#FFA31C;" d="M389.919,362.087c-0.21-0.364-1.16-0.21-2.121,0.345        c-0.961,0.555-1.36,1.665-1.36,1.665s1.16,0.21,2.121-0.345S390.129,362.451,389.919,362.087z" />
						<path id="XMLID_27_" style="fill:#FFA31C;" d="M390.942,364.558c-0.109-0.406-1.066-0.503-2.138-0.216        c-1.072,0.287-1.744,1.256-1.744,1.256s1.066,0.503,2.139,0.215C390.27,365.526,391.051,364.964,390.942,364.558z" />
					</g>
					<g id="XMLID_23_">
						<path id="XMLID_25_" style="fill:#FFA31C;" d="M387.906,358.402c-0.256-0.334-1.178-0.056-2.058,0.619        c-0.881,0.676-1.131,1.828-1.131,1.828s1.178,0.056,2.058-0.619C387.656,359.554,388.162,358.736,387.906,358.402z" />
						<path id="XMLID_24_" style="fill:#FFA31C;" d="M389.243,360.718c-0.161-0.389-1.123-0.359-2.148,0.065        c-1.026,0.425-1.565,1.473-1.565,1.473s1.123,0.359,2.148-0.065C388.704,361.766,389.404,361.107,389.243,360.718z" />
					</g>
					<g id="XMLID_20_">
						<path id="XMLID_22_" style="fill:#FFA31C;" d="M385.43,355.011c-0.297-0.297-1.175,0.098-1.96,0.883        c-0.785,0.785-0.883,1.96-0.883,1.96s1.175-0.098,1.96-0.883C385.332,356.186,385.728,355.309,385.43,355.011z" />
						<path id="XMLID_21_" style="fill:#FFA31C;" d="M387.058,357.133c-0.21-0.364-1.16-0.21-2.121,0.345        c-0.961,0.555-1.36,1.665-1.36,1.665s1.16,0.21,2.121-0.345C386.66,358.242,387.269,357.497,387.058,357.133z" />
					</g>
					<g id="XMLID_17_">
						<path id="XMLID_19_" style="fill:#FFA31C;" d="M382.533,351.972c-0.334-0.256-1.152,0.25-1.828,1.131        c-0.676,0.881-0.619,2.058-0.619,2.058s1.152-0.25,1.828-1.131C382.589,353.15,382.866,352.228,382.533,351.972z" />
						<path id="XMLID_18_" style="fill:#FFA31C;" d="M384.424,353.863c-0.256-0.334-1.178-0.056-2.058,0.619        c-0.881,0.676-1.131,1.828-1.131,1.828s1.178,0.056,2.058-0.619C384.174,355.016,384.68,354.197,384.424,353.863z" />
					</g>
					<g id="XMLID_14_">
						<path id="XMLID_16_" style="fill:#FFA31C;" d="M379.263,349.338c-0.364-0.21-1.11,0.398-1.665,1.36        c-0.555,0.961-0.345,2.122-0.345,2.122s1.11-0.399,1.665-1.36C379.473,350.498,379.628,349.548,379.263,349.338z" />
						<path id="XMLID_15_" style="fill:#FFA31C;" d="M381.385,350.966c-0.297-0.297-1.175,0.098-1.96,0.883        c-0.785,0.785-0.883,1.96-0.883,1.96s1.175-0.098,1.96-0.883C381.288,352.141,381.683,351.263,381.385,350.966z" />
					</g>
					<g id="XMLID_11_">
						<path id="XMLID_13_" style="fill:#FFA31C;" d="M375.678,347.153c-0.389-0.161-1.048,0.54-1.473,1.565        c-0.425,1.026-0.065,2.148-0.065,2.148s1.048-0.54,1.473-1.566C376.038,348.276,376.067,347.314,375.678,347.153z" />
						<path id="XMLID_12_" style="fill:#FFA31C;" d="M377.994,348.49c-0.334-0.256-1.152,0.25-1.828,1.131        c-0.676,0.881-0.619,2.058-0.619,2.058s1.152-0.25,1.828-1.131C378.051,349.668,378.328,348.746,377.994,348.49z" />
					</g>
					<g id="XMLID_8_">
						<path id="XMLID_10_" style="fill:#FFA31C;" d="M371.839,345.454c-0.406-0.109-0.969,0.672-1.256,1.744        c-0.287,1.072,0.216,2.139,0.216,2.139s0.969-0.672,1.256-1.744C372.341,346.521,372.245,345.563,371.839,345.454z" />
						<path id="XMLID_9_" style="fill:#FFA31C;" d="M374.309,346.478c-0.364-0.21-1.11,0.398-1.665,1.36        c-0.555,0.961-0.345,2.122-0.345,2.122s1.109-0.399,1.664-1.36C374.519,347.638,374.674,346.688,374.309,346.478z" />
					</g>
					<g id="XMLID_5_">
						<path id="XMLID_7_" style="fill:#FFA31C;" d="M367.81,344.271c-0.417-0.055-0.873,0.793-1.018,1.893        c-0.145,1.101,0.493,2.092,0.493,2.092s0.873-0.793,1.018-1.893C368.448,345.263,368.227,344.326,367.81,344.271z" />
						<path id="XMLID_6_" style="fill:#FFA31C;" d="M370.393,344.964c-0.389-0.161-1.048,0.54-1.473,1.565        c-0.425,1.025-0.065,2.148-0.065,2.148s1.048-0.54,1.473-1.565C370.753,346.086,370.782,345.125,370.393,344.964z" />
					</g>
					<g id="XMLID_2_">
						<path id="XMLID_4_" style="fill:#FFA31C;" d="M363.661,343.625c-0.421,0-0.762,0.9-0.762,2.01c0,1.11,0.762,2.01,0.762,2.01        s0.762-0.9,0.762-2.01C364.423,344.525,364.082,343.625,363.661,343.625z" />
						<path id="XMLID_3_" style="fill:#FFA31C;" d="M366.313,343.974c-0.406-0.109-0.969,0.672-1.256,1.744        c-0.287,1.072,0.215,2.139,0.215,2.139s0.969-0.672,1.256-1.744C366.816,345.04,366.719,344.083,366.313,343.974z" />
					</g>
				</g>
				<g>
					<g>
						<path style="fill:#B52323;" d="M350.006,319.671c0,3.018-2.447,5.465-5.466,5.465c-3.019,0-5.466-2.447-5.466-5.465        s2.447-5.466,5.466-5.466C347.559,314.205,350.006,316.652,350.006,319.671z" />
						<circle style="fill:#B52323;" cx="309.751" cy="347.506" r="5.466" />
						<path style="fill:#B52323;" d="M304.834,386.323c3.018,0,5.465,2.447,5.465,5.466c0,3.019-2.447,5.466-5.465,5.466        c-3.019,0-5.466-2.447-5.466-5.466C299.368,388.77,301.815,386.323,304.834,386.323z" />
						<path style="fill:#B52323;" d="M328.805,422.713c2.134-2.134,5.595-2.134,7.729,0s2.134,5.595,0,7.729        c-2.134,2.134-5.595,2.134-7.729,0C326.67,428.308,326.67,424.848,328.805,422.713z" />
						<path style="fill:#B52323;" d="M371.486,431.495c0-3.018,2.447-5.465,5.466-5.465c3.019,0,5.466,2.447,5.466,5.465        s-2.447,5.466-5.466,5.466C373.933,436.961,371.486,434.513,371.486,431.495z" />
						<path style="fill:#B52323;" d="M407.876,407.524c-2.134-2.134-2.134-5.595,0-7.729s5.595-2.134,7.729,0        c2.134,2.134,2.134,5.595,0,7.729C413.471,409.659,410.011,409.659,407.876,407.524z" />
						<path style="fill:#B52323;" d="M416.658,364.843c-3.018,0-5.465-2.447-5.465-5.466c0-3.019,2.447-5.466,5.465-5.466        c3.019,0,5.466,2.447,5.466,5.466C422.124,362.396,419.677,364.843,416.658,364.843z" />
						<path style="fill:#B52323;" d="M392.688,328.453c-2.134,2.134-5.595,2.134-7.729,0s-2.134-5.595,0-7.729        c2.134-2.134,5.595-2.134,7.729,0C394.822,322.858,394.822,326.318,392.688,328.453z" />
					</g>
					<path style="fill:#043F59;" d="M362.275,287.528c0,1.488-1.206,2.694-2.694,2.694c-1.488,0-2.694-1.206-2.694-2.694       c0-1.488,1.206-2.694,2.694-2.694C361.069,284.834,362.275,286.04,362.275,287.528z" />
					<path style="fill:#043F59;" d="M339.433,290.128c0.385,1.437-0.468,2.914-1.905,3.299c-1.437,0.385-2.914-0.468-3.299-1.905       c-0.385-1.437,0.468-2.914,1.905-3.299C337.571,287.838,339.048,288.691,339.433,290.128z" />
					<path style="fill:#043F59;" d="M318.043,298.552c0.744,1.289,0.302,2.936-0.986,3.68c-1.288,0.744-2.936,0.302-3.68-0.986       c-0.744-1.288-0.302-2.936,0.986-3.68C315.651,296.822,317.299,297.263,318.043,298.552z" />
					<path style="fill:#043F59;" d="M299.561,312.225c1.052,1.052,1.052,2.758,0,3.81c-1.052,1.052-2.758,1.052-3.81,0       c-1.052-1.052-1.052-2.758,0-3.81C296.803,311.173,298.509,311.173,299.561,312.225z" />
					<path style="fill:#043F59;" d="M285.248,330.215c1.289,0.744,1.73,2.392,0.986,3.68c-0.744,1.288-2.392,1.73-3.68,0.986       c-1.288-0.744-1.73-2.391-0.986-3.68C282.312,329.913,283.96,329.471,285.248,330.215z" />
					<path style="fill:#043F59;" d="M276.079,351.297c1.437,0.385,2.29,1.862,1.905,3.299s-1.862,2.29-3.299,1.905       s-2.29-1.862-1.905-3.299C273.165,351.765,274.642,350.912,276.079,351.297z" />
					<circle style="fill:#043F59;" cx="272.679" cy="376.728" r="2.694" />
					<path style="fill:#043F59;" d="M275.279,396.876c1.437-0.385,2.914,0.468,3.299,1.905c0.385,1.437-0.468,2.914-1.905,3.299       c-1.437,0.385-2.914-0.468-3.299-1.905C272.989,398.738,273.842,397.261,275.279,396.876z" />
					<path style="fill:#043F59;" d="M283.703,418.267c1.289-0.744,2.936-0.302,3.68,0.986c0.744,1.289,0.302,2.936-0.986,3.68       s-2.936,0.302-3.68-0.986C281.973,420.658,282.414,419.011,283.703,418.267z" />
					<path style="fill:#043F59;" d="M297.376,436.748c1.052-1.052,2.758-1.052,3.81,0c1.052,1.052,1.052,2.758,0,3.81       c-1.052,1.052-2.758,1.052-3.81,0C296.324,439.506,296.324,437.8,297.376,436.748z" />
					<path style="fill:#043F59;" d="M315.366,451.061c0.744-1.288,2.391-1.73,3.68-0.986s1.73,2.392,0.986,3.68       c-0.744,1.289-2.391,1.73-3.68,0.986S314.622,452.35,315.366,451.061z" />
					<path style="fill:#043F59;" d="M336.448,460.23c0.385-1.437,1.862-2.29,3.299-1.905c1.437,0.385,2.29,1.862,1.905,3.299       c-0.385,1.437-1.862,2.29-3.299,1.905C336.916,463.145,336.063,461.667,336.448,460.23z" />
					<path style="fill:#043F59;" d="M359.185,463.63c0-1.488,1.206-2.694,2.694-2.694c1.488,0,2.694,1.206,2.694,2.694       c0,1.488-1.206,2.694-2.694,2.694C360.391,466.324,359.185,465.118,359.185,463.63z" />
					<path style="fill:#043F59;" d="M382.027,461.03c-0.385-1.437,0.468-2.914,1.905-3.299c1.437-0.385,2.914,0.468,3.299,1.905       c0.385,1.437-0.468,2.914-1.905,3.299C383.889,463.32,382.412,462.467,382.027,461.03z" />
					<path style="fill:#043F59;" d="M403.418,452.606c-0.744-1.289-0.302-2.936,0.986-3.68c1.289-0.744,2.936-0.302,3.68,0.986       c0.744,1.288,0.302,2.936-0.986,3.68C405.809,454.336,404.162,453.895,403.418,452.606z" />
					<path style="fill:#043F59;" d="M421.899,438.933c-1.052-1.052-1.052-2.758,0-3.81c1.052-1.052,2.758-1.052,3.81,0       c1.052,1.052,1.052,2.758,0,3.81C424.657,439.985,422.951,439.985,421.899,438.933z" />
					<path style="fill:#043F59;" d="M436.212,420.943c-1.288-0.744-1.73-2.392-0.986-3.68c0.744-1.289,2.392-1.73,3.68-0.986       c1.289,0.744,1.73,2.392,0.986,3.68C439.148,421.245,437.501,421.687,436.212,420.943z" />
					<path style="fill:#043F59;" d="M445.381,399.861c-1.437-0.385-2.29-1.862-1.905-3.299c0.385-1.437,1.862-2.29,3.299-1.905       c1.437,0.385,2.29,1.862,1.905,3.299C448.296,399.393,446.818,400.246,445.381,399.861z" />
					<path style="fill:#043F59;" d="M448.782,377.124c-1.488,0-2.694-1.206-2.694-2.694c0-1.488,1.206-2.694,2.694-2.694       c1.488,0,2.694,1.206,2.694,2.694C451.475,375.918,450.269,377.124,448.782,377.124z" />
					<path style="fill:#043F59;" d="M446.181,354.282c-1.437,0.385-2.914-0.468-3.299-1.905c-0.385-1.437,0.468-2.914,1.905-3.299       s2.914,0.468,3.299,1.905S447.618,353.897,446.181,354.282z" />
					<path style="fill:#043F59;" d="M437.757,332.892c-1.288,0.744-2.936,0.302-3.68-0.986c-0.744-1.288-0.302-2.936,0.986-3.68       c1.289-0.744,2.936-0.302,3.68,0.986C439.487,330.5,439.046,332.148,437.757,332.892z" />
					<path style="fill:#043F59;" d="M424.084,314.41c-1.052,1.052-2.758,1.052-3.81,0c-1.052-1.052-1.052-2.758,0-3.81       c1.052-1.052,2.758-1.052,3.81,0C425.136,311.652,425.136,313.358,424.084,314.41z" />
					<path style="fill:#043F59;" d="M406.094,300.097c-0.744,1.289-2.392,1.73-3.68,0.986c-1.289-0.744-1.73-2.391-0.986-3.68       c0.744-1.289,2.392-1.73,3.68-0.986C406.396,297.161,406.838,298.808,406.094,300.097z" />
					<path style="fill:#043F59;" d="M385.012,290.928c-0.385,1.437-1.862,2.29-3.299,1.905c-1.437-0.385-2.29-1.862-1.905-3.299       c0.385-1.437,1.862-2.29,3.299-1.905C384.544,288.014,385.397,289.491,385.012,290.928z" />
				</g>
				<g>
					<path style="fill:#043F59;" d="M373.98,290.359c-0.199,1.443-1.53,2.453-2.973,2.254c-1.443-0.199-2.453-1.53-2.254-2.973       c0.199-1.443,1.53-2.453,2.973-2.254C373.169,287.585,374.178,288.916,373.98,290.359z" />
					
						<ellipse transform="matrix(0.9314 -0.3639 0.3639 0.9314 -81.6797 146.8652)" style="fill:#043F59;" cx="348.854" cy="290.163" rx="2.638" ry="2.638" />
					<path style="fill:#043F59;" d="M329.595,295.151c0.55,1.349-0.098,2.889-1.448,3.439c-1.349,0.55-2.889-0.098-3.439-1.448       c-0.55-1.349,0.098-2.889,1.448-3.439C327.505,293.154,329.045,293.802,329.595,295.151z" />
					<path style="fill:#043F59;" d="M309.839,305.95c0.88,1.161,0.653,2.816-0.508,3.696c-1.161,0.88-2.816,0.653-3.696-0.508       c-0.88-1.161-0.653-2.816,0.508-3.696C307.304,304.562,308.959,304.789,309.839,305.95z" />
					<path style="fill:#043F59;" d="M293.552,321.494c1.151,0.894,1.359,2.551,0.465,3.702c-0.894,1.151-2.551,1.359-3.702,0.466       c-1.151-0.894-1.359-2.551-0.466-3.702C290.744,320.809,292.402,320.601,293.552,321.494z" />
					<path style="fill:#043F59;" d="M281.843,340.724c1.343,0.565,1.973,2.112,1.408,3.455c-0.565,1.343-2.112,1.973-3.455,1.408       c-1.343-0.565-1.973-2.112-1.408-3.455C278.953,340.789,280.5,340.159,281.843,340.724z" />
					<path style="fill:#043F59;" d="M275.51,362.329c1.443,0.198,2.453,1.53,2.254,2.973c-0.199,1.444-1.53,2.453-2.973,2.254       c-1.443-0.198-2.453-1.53-2.254-2.973C272.736,363.14,274.067,362.131,275.51,362.329z" />
					<path style="fill:#043F59;" d="M274.985,384.837c1.446-0.182,2.765,0.843,2.947,2.288c0.182,1.446-0.843,2.765-2.288,2.947       c-1.446,0.182-2.765-0.843-2.947-2.288C272.514,386.339,273.539,385.019,274.985,384.837z" />
					<path style="fill:#043F59;" d="M280.303,406.714c1.349-0.55,2.889,0.098,3.439,1.448c0.55,1.349-0.098,2.889-1.448,3.439       c-1.349,0.55-2.889-0.098-3.439-1.448C278.305,408.804,278.953,407.264,280.303,406.714z" />
					<path style="fill:#043F59;" d="M291.102,426.47c1.161-0.88,2.816-0.653,3.696,0.508c0.88,1.161,0.653,2.816-0.508,3.696       c-1.161,0.88-2.816,0.653-3.696-0.509C289.713,429.005,289.94,427.35,291.102,426.47z" />
					<path style="fill:#043F59;" d="M306.645,442.757c0.894-1.151,2.551-1.359,3.702-0.466c1.151,0.894,1.359,2.551,0.466,3.702       c-0.894,1.151-2.551,1.359-3.702,0.466C305.96,445.565,305.752,443.908,306.645,442.757z" />
					<path style="fill:#043F59;" d="M325.875,454.466c0.565-1.343,2.112-1.973,3.455-1.408c1.343,0.565,1.973,2.112,1.408,3.455       c-0.565,1.343-2.112,1.973-3.455,1.408C325.94,457.356,325.31,455.809,325.875,454.466z" />
					<path style="fill:#043F59;" d="M347.48,460.799c0.199-1.444,1.53-2.453,2.973-2.254c1.444,0.198,2.453,1.53,2.254,2.973       c-0.198,1.444-1.53,2.453-2.973,2.254C348.291,463.574,347.282,462.242,347.48,460.799z" />
					
						<ellipse transform="matrix(0.971 -0.239 0.239 0.971 -99.3617 102.3891)" style="fill:#043F59;" cx="372.606" cy="460.995" rx="2.638" ry="2.638" />
					<path style="fill:#043F59;" d="M391.865,456.007c-0.55-1.349,0.098-2.889,1.448-3.439c1.349-0.55,2.889,0.098,3.439,1.448       c0.55,1.349-0.098,2.889-1.448,3.439C393.955,458.004,392.415,457.356,391.865,456.007z" />
					<path style="fill:#043F59;" d="M411.621,445.208c-0.88-1.161-0.653-2.816,0.508-3.696c1.161-0.88,2.816-0.653,3.696,0.508       c0.88,1.161,0.653,2.816-0.509,3.696C414.156,446.596,412.501,446.369,411.621,445.208z" />
					<path style="fill:#043F59;" d="M427.908,429.664c-1.151-0.894-1.359-2.551-0.466-3.702c0.894-1.151,2.551-1.359,3.702-0.466       s1.359,2.551,0.465,3.702C430.716,430.349,429.059,430.557,427.908,429.664z" />
					<path style="fill:#043F59;" d="M439.617,410.434c-1.343-0.565-1.973-2.112-1.408-3.455s2.112-1.973,3.455-1.408       s1.973,2.112,1.408,3.455C442.507,410.369,440.96,410.999,439.617,410.434z" />
					<path style="fill:#043F59;" d="M445.95,388.829c-1.444-0.198-2.453-1.53-2.254-2.973c0.199-1.443,1.53-2.453,2.973-2.254       c1.443,0.199,2.453,1.53,2.254,2.973C448.725,388.018,447.394,389.027,445.95,388.829z" />
					<path style="fill:#043F59;" d="M446.476,366.321c-1.446,0.182-2.765-0.843-2.947-2.288c-0.182-1.446,0.843-2.765,2.288-2.947       s2.765,0.843,2.947,2.288C448.946,364.82,447.921,366.139,446.476,366.321z" />
					<path style="fill:#043F59;" d="M441.158,344.444c-1.349,0.55-2.889-0.098-3.439-1.448c-0.55-1.349,0.098-2.889,1.448-3.439       c1.349-0.55,2.889,0.098,3.439,1.448C443.155,342.354,442.507,343.894,441.158,344.444z" />
					<path style="fill:#043F59;" d="M430.359,324.688c-1.161,0.88-2.816,0.653-3.696-0.508c-0.88-1.161-0.653-2.816,0.508-3.696       c1.161-0.88,2.816-0.653,3.696,0.508C431.747,322.153,431.52,323.808,430.359,324.688z" />
					<path style="fill:#043F59;" d="M414.815,308.401c-0.894,1.151-2.551,1.359-3.702,0.465c-1.151-0.894-1.359-2.551-0.466-3.702       c0.894-1.151,2.551-1.359,3.702-0.465C415.5,305.593,415.708,307.25,414.815,308.401z" />
					<path style="fill:#043F59;" d="M395.585,296.692c-0.565,1.343-2.112,1.973-3.455,1.408c-1.343-0.565-1.973-2.112-1.408-3.455       c0.565-1.343,2.112-1.973,3.455-1.408C395.52,293.802,396.15,295.349,395.585,296.692z" />
				</g>
				<g>
					<circle style="fill:none;stroke:#FFA31C;stroke-miterlimit:10;" cx="360.746" cy="375.583" r="23.289" />
					<circle style="fill:none;stroke:#FFA31C;stroke-miterlimit:10;" cx="360.746" cy="375.583" r="25.589" />
				</g>
				<g>
					<circle style="fill:none;stroke:#B52323;stroke-miterlimit:10;" cx="360.746" cy="375.583" r="16.74" />
					<circle style="fill:none;stroke:#B52323;stroke-miterlimit:10;" cx="360.746" cy="375.583" r="18.393" />
				</g>
				<g>
					
						<ellipse transform="matrix(0.385 -0.9229 0.9229 0.385 -124.7845 563.8912)" style="fill:#043F59;" cx="360.73" cy="375.579" rx="9.996" ry="9.996" />
					<circle style="fill:#043F59;" cx="360.73" cy="366.781" r="3.288" />
					<path style="fill:#043F59;" d="M359.179,366.324c0.908,1.573,0.369,3.584-1.204,4.492c-1.573,0.908-3.584,0.369-4.492-1.204       c-0.908-1.573-0.369-3.584,1.204-4.492C356.26,364.212,358.271,364.751,359.179,366.324z" />
					<path style="fill:#043F59;" d="M354.759,368.348c1.573,0.908,2.111,2.919,1.203,4.492c-0.908,1.573-2.919,2.112-4.492,1.204       s-2.112-2.919-1.204-4.492C351.176,367.979,353.187,367.44,354.759,368.348z" />
					
						<ellipse transform="matrix(0.3797 -0.9251 0.9251 0.3797 -129.1542 558.584)" style="fill:#043F59;" cx="351.944" cy="375.599" rx="3.288" ry="3.288" />
					<path style="fill:#043F59;" d="M351.487,377.15c1.573-0.908,3.584-0.369,4.492,1.204c0.908,1.573,0.369,3.584-1.204,4.492       c-1.573,0.908-3.584,0.369-4.492-1.204C349.376,380.069,349.914,378.058,351.487,377.15z" />
					<path style="fill:#043F59;" d="M353.511,381.57c0.908-1.573,2.919-2.112,4.492-1.204c1.573,0.908,2.112,2.919,1.204,4.492       c-0.908,1.573-2.919,2.112-4.492,1.204C353.142,385.153,352.603,383.142,353.511,381.57z" />
					<path style="fill:#043F59;" d="M357.474,384.385c0-1.816,1.472-3.288,3.288-3.288c1.816,0,3.288,1.472,3.288,3.288       c0,1.816-1.472,3.288-3.288,3.288C358.946,387.673,357.474,386.201,357.474,384.385z" />
					<path style="fill:#043F59;" d="M362.313,384.842c-0.908-1.573-0.369-3.584,1.204-4.492c1.573-0.908,3.584-0.369,4.492,1.204       c0.908,1.573,0.369,3.584-1.204,4.492C365.232,386.953,363.221,386.415,362.313,384.842z" />
					<path style="fill:#043F59;" d="M366.733,382.818c-1.573-0.908-2.112-2.919-1.203-4.492c0.908-1.573,2.919-2.112,4.492-1.204       c1.573,0.908,2.112,2.919,1.204,4.492C370.317,383.187,368.305,383.726,366.733,382.818z" />
					
						<ellipse transform="matrix(0.1589 -0.9873 0.9873 0.1589 -59.979 680.7274)" style="fill:#043F59;" cx="369.548" cy="375.567" rx="3.288" ry="3.288" />
					<path style="fill:#043F59;" d="M370.005,374.016c-1.573,0.908-3.584,0.369-4.492-1.204c-0.908-1.573-0.369-3.584,1.204-4.492       s3.584-0.369,4.492,1.204C372.117,371.097,371.578,373.108,370.005,374.016z" />
					<path style="fill:#043F59;" d="M367.981,369.596c-0.908,1.573-2.919,2.112-4.492,1.204c-1.573-0.908-2.112-2.919-1.204-4.492       c0.908-1.573,2.919-2.112,4.492-1.204C368.35,366.013,368.889,368.023,367.981,369.596z" />
				</g>
				<path style="fill:#FFA31C;" d="M370.392,375.57c0-0.957-0.514-1.792-1.28-2.25c0.426-0.777,0.457-1.747-0.019-2.571      c-0.478-0.829-1.341-1.288-2.233-1.302c-0.017-0.889-0.476-1.747-1.302-2.224c-0.827-0.477-1.801-0.445-2.579-0.014      c-0.459-0.761-1.292-1.272-2.245-1.272c-0.957,0-1.792,0.514-2.25,1.28c-0.777-0.426-1.747-0.457-2.571,0.019      c-0.829,0.478-1.288,1.341-1.302,2.233c-0.889,0.017-1.747,0.476-2.224,1.302c-0.477,0.827-0.445,1.801-0.014,2.579      c-0.761,0.459-1.272,1.292-1.272,2.245c0,0.957,0.514,1.792,1.279,2.25c-0.426,0.777-0.456,1.747,0.019,2.571      c0.478,0.829,1.341,1.288,2.233,1.302c0.017,0.889,0.476,1.747,1.302,2.224c0.827,0.477,1.801,0.445,2.579,0.014      c0.459,0.761,1.292,1.272,2.245,1.272c0.957,0,1.792-0.514,2.25-1.28c0.777,0.426,1.747,0.457,2.571-0.019      c0.829-0.478,1.288-1.341,1.302-2.233c0.889-0.017,1.747-0.476,2.224-1.302c0.477-0.827,0.445-1.801,0.014-2.579      C369.882,377.356,370.392,376.524,370.392,375.57z" />
				<circle style="fill:#D14242;" cx="360.762" cy="375.567" r="5.149" />
			</g>
		
</svg>