<svg xmlns="http://www.w3.org/2000/svg" xmlns:xlink="http://www.w3.org/1999/xlink"
     viewBox="30 60 222 222" width="222" height="222">
<g xmlns="http://www.w3.org/2000/svg">
				<g>
					<path style="fill:#B52323;" d="M140.653,71.895c0,0-21.858,11.105-4.244,29.105h4.244h4.369       C162.635,83,140.653,71.895,140.653,71.895z" />
					<path style="fill:#FF8888;" d="M140.664,74.405c0,0-16.969,8.595-3.295,22.595h3.295h3.392       C157.729,83,140.664,74.405,140.664,74.405z" />
					<path style="fill:#B52323;" d="M140.671,77.57c0,0-13.841,6.43-2.688,18.43h2.688h2.767       C154.591,84,140.671,77.57,140.671,77.57z" />
				</g>
				<g>
					<path style="fill:#B52323;" d="M115.043,75.66c0,0-18.284,16.215,3.433,29.212l4.1-1.099l4.22-1.131       C139.105,80.528,115.043,75.66,115.043,75.66z" />
					<path style="fill:#FF8888;" d="M115.756,78.278c0,0-14.08,13.016,2.665,22.678l3.183-0.853l3.276-0.878       C134.551,82.485,115.756,78.278,115.756,78.278z" />
					<path style="fill:#B52323;" d="M116.251,80.099c0,0-11.35,11.117,2.174,18.498l2.596-0.696l2.672-0.716       C131.716,84.031,116.251,80.099,116.251,80.099z" />
				</g>
				<g>
					<path style="fill:#B52323;" d="M91.181,85.558c0,0-13.464,20.395,10.877,27.328l3.676-2.122l3.784-2.185       C115.684,84.032,91.181,85.558,91.181,85.558z" />
					<path style="fill:#FF8888;" d="M92.548,87.902c0,0-10.231,16.216,8.444,21.215l2.853-1.647l2.937-1.696       C111.791,87.101,92.548,87.902,92.548,87.902z" />
					<path style="fill:#B52323;" d="M93.498,89.533c0,0-8.087,13.676,6.887,17.305l2.327-1.344l2.396-1.383       C109.453,89.328,93.498,89.533,93.498,89.533z" />
				</g>
				<g>
					<path style="fill:#B52323;" d="M70.695,101.294c0,0-7.727,23.185,17.579,23.581l3.001-3.001l3.089-3.089       C93.968,93.479,70.695,101.294,70.695,101.294z" />
					<path style="fill:#FF8888;" d="M72.622,103.205c0,0-5.686,18.312,13.647,18.307l2.33-2.33l2.398-2.398       C91.002,97.451,72.622,103.205,72.622,103.205z" />
					<path style="fill:#B52323;" d="M73.961,104.534c0,0-4.271,15.303,11.132,14.932l1.9-1.9l1.956-1.956       C89.319,100.207,73.961,104.534,73.961,104.534z" />
				</g>
				<g>
					<path style="fill:#B52323;" d="M54.979,121.796c0,0-1.463,24.395,23.083,18.228l2.122-3.676l2.185-3.784       C75.436,108.224,54.979,121.796,54.979,121.796z" />
					<path style="fill:#FF8888;" d="M57.335,123.144c0,0-0.753,19.159,17.92,14.151l1.647-2.854l1.696-2.937       C73.599,112.829,57.335,123.144,57.335,123.144z" />
					<path style="fill:#B52323;" d="M58.973,124.081c0,0-0.165,15.887,14.617,11.542l1.344-2.327l1.383-2.396       C72.688,115.926,58.973,124.081,58.973,124.081z" />
				</g>
				<g>
					<path style="fill:#B52323;" d="M45.105,145.668c0,0,4.901,23.942,27.015,11.633l1.098-4.1l1.131-4.22       C61.353,127.263,45.105,145.668,45.105,145.668z" />
					<path style="fill:#FF8888;" d="M47.73,146.359c0,0,4.232,18.701,20.972,9.031l0.853-3.183l0.878-3.276       C60.77,132.186,47.73,146.359,47.73,146.359z" />
					<path style="fill:#B52323;" d="M49.554,146.841c0,0,3.952,15.388,17.106,7.366l0.696-2.596l0.716-2.672       C60.691,135.414,49.554,146.841,49.554,146.841z" />
				</g>
				<g>
					<path style="fill:#B52323;" d="M41.895,171.281c0,0,11.105,21.858,29.105,4.244v-4.244v-4.369       C53,149.299,41.895,171.281,41.895,171.281z" />
					<path style="fill:#FF8888;" d="M44.405,171.27c0,0,9.595,16.969,22.595,3.295v-3.295v-3.392       C54,154.205,44.405,171.27,44.405,171.27z" />
					<path style="fill:#B52323;" d="M46.57,171.263c0,0,7.43,13.841,18.43,2.688v-2.688v-2.767       C54,157.343,46.57,171.263,46.57,171.263z" />
				</g>
				<g>
					<path style="fill:#B52323;" d="M44.859,196.964c0,0,16.169,18.296,29.212-3.433l-1.099-4.1l-1.131-4.22       C49.681,172.914,44.859,196.964,44.859,196.964z" />
					<path style="fill:#FF8888;" d="M47.477,196.251c0,0,13.016,14.08,22.677-2.665l-0.853-3.183l-0.878-3.276       C51.684,177.457,47.477,196.251,47.477,196.251z" />
					<path style="fill:#B52323;" d="M49.298,195.756c0,0,11.117,11.35,18.497-2.174l-0.696-2.596l-0.716-2.672       C53.23,180.292,49.298,195.756,49.298,195.756z" />
				</g>
				<g>
					<path style="fill:#B52323;" d="M54.785,220.894c0,0,20.354,13.488,27.328-10.877l-2.122-3.676l-2.185-3.784       C53.218,196.415,54.785,220.894,54.785,220.894z" />
					<path style="fill:#FF8888;" d="M57.129,219.527c0,0,16.216,10.231,21.215-8.444l-1.647-2.853l-1.696-2.937       C56.329,200.284,57.129,219.527,57.129,219.527z" />
					<path style="fill:#B52323;" d="M58.76,218.578c0,0,13.676,8.086,17.305-6.887l-1.344-2.327l-1.383-2.396       C58.555,202.622,58.76,218.578,58.76,218.578z" />
				</g>
				<g>
					<path style="fill:#B52323;" d="M70.566,241.439c0,0,23.151,7.761,23.581-17.579l-3.001-3.001l-3.089-3.089       C62.717,218.2,70.566,241.439,70.566,241.439z" />
					<path style="fill:#FF8888;" d="M72.477,239.512c0,0,18.312,5.686,18.307-13.647l-2.33-2.33l-2.398-2.398       C66.723,221.132,72.477,239.512,72.477,239.512z" />
					<path style="fill:#B52323;" d="M73.806,238.173c0,0,15.303,4.271,14.932-11.132l-1.9-1.9l-1.956-1.956       C69.479,222.814,73.806,238.173,73.806,238.173z" />
				</g>
				<g>
					<path style="fill:#B52323;" d="M91.127,257.199c0,0,24.371,1.504,18.228-23.083l-3.676-2.122l-3.784-2.184       C77.531,236.783,91.127,257.199,91.127,257.199z" />
					<path style="fill:#FF8888;" d="M92.474,254.844c0,0,19.159,0.752,14.151-17.92l-2.854-1.647l-2.937-1.696       C82.159,238.579,92.474,254.844,92.474,254.844z" />
					<path style="fill:#B52323;" d="M93.411,253.206c0,0,15.887,0.165,11.542-14.617l-2.327-1.344l-2.396-1.383       C85.256,239.491,93.411,253.206,93.411,253.206z" />
				</g>
				<g>
					<path style="fill:#B52323;" d="M115.066,267.101c0,0,23.93-4.855,11.633-27.015l-4.1-1.098l-4.22-1.131       C96.649,250.9,115.066,267.101,115.066,267.101z" />
					<path style="fill:#FF8888;" d="M115.758,264.477c0,0,18.701-4.232,9.03-20.972l-3.183-0.853l-3.276-0.878       C101.585,251.436,115.758,264.477,115.758,264.477z" />
					<path style="fill:#B52323;" d="M116.239,262.652c0,0,15.388-3.952,7.366-17.106l-2.596-0.696l-2.672-0.716       C104.813,251.515,116.239,262.652,116.239,262.652z" />
				</g>
				<g>
					<path style="fill:#B52323;" d="M140.753,270.105c0,0,21.858-11.105,4.244-29.105h-4.244h-4.369       C118.77,259,140.753,270.105,140.753,270.105z" />
					<path style="fill:#FF8888;" d="M140.742,267.595c0,0,16.969-9.595,3.295-22.595h-3.295h-3.392       C123.676,258,140.742,267.595,140.742,267.595z" />
					<path style="fill:#B52323;" d="M140.734,264.43c0,0,13.841-7.43,2.688-18.43h-2.688h-2.767       C126.814,257,140.734,264.43,140.734,264.43z" />
				</g>
				<g>
					<path style="fill:#B52323;" d="M166.363,266.803c0,0,18.296-16.169-3.433-29.212l-4.1,1.098l-4.22,1.131       C142.313,261.981,166.363,266.803,166.363,266.803z" />
					<path style="fill:#FF8888;" d="M165.65,264.185c0,0,14.08-13.016-2.665-22.678l-3.183,0.853l-3.276,0.878       C146.855,259.978,165.65,264.185,165.65,264.185z" />
					<path style="fill:#B52323;" d="M165.154,262.364c0,0,11.35-11.117-2.174-18.497l-2.596,0.696l-2.672,0.716       C149.69,258.432,165.154,262.364,165.154,262.364z" />
				</g>
				<g>
					<path style="fill:#B52323;" d="M190.224,256.905c0,0,13.488-20.354-10.877-27.328l-3.676,2.122l-3.784,2.184       C165.745,258.472,190.224,256.905,190.224,256.905z" />
					<path style="fill:#FF8888;" d="M188.858,254.561c0,0,10.231-16.216-8.444-21.215l-2.854,1.648l-2.937,1.696       C169.615,255.361,188.858,254.561,188.858,254.561z" />
					<path style="fill:#B52323;" d="M187.908,252.93c0,0,8.086-13.676-6.888-17.304l-2.327,1.344l-2.396,1.383       C171.953,253.135,187.908,252.93,187.908,252.93z" />
				</g>
				<g>
					<path style="fill:#B52323;" d="M210.711,241.169c0,0,7.761-23.151-17.579-23.581l-3.001,3.001l-3.089,3.089       C187.472,249.018,210.711,241.169,210.711,241.169z" />
					<path style="fill:#FF8888;" d="M208.784,239.258c0,0,5.686-18.312-13.647-18.307l-2.33,2.33l-2.398,2.398       C190.404,245.012,208.784,239.258,208.784,239.258z" />
					<path style="fill:#B52323;" d="M207.445,237.929c0,0,4.271-15.303-11.132-14.932l-1.9,1.9l-1.956,1.956       C192.086,242.256,207.445,237.929,207.445,237.929z" />
				</g>
				<g>
					<path style="fill:#B52323;" d="M226.427,220.667c0,0,1.504-24.371-23.083-18.228l-2.122,3.676l-2.184,3.784       C206.011,234.263,226.427,220.667,226.427,220.667z" />
					<path style="fill:#FF8888;" d="M224.071,219.319c0,0,0.752-19.159-17.92-14.151l-1.647,2.853l-1.696,2.937       C207.806,229.634,224.071,219.319,224.071,219.319z" />
					<path style="fill:#B52323;" d="M222.433,218.382c0,0,0.165-15.887-14.617-11.542l-1.344,2.327l-1.383,2.396       C208.718,226.537,222.433,218.382,222.433,218.382z" />
				</g>
				<g>
					<path style="fill:#B52323;" d="M236.3,196.795c0,0-4.855-23.93-27.015-11.632l-1.099,4.1l-1.131,4.22       C220.099,215.212,236.3,196.795,236.3,196.795z" />
					<path style="fill:#FF8888;" d="M233.676,196.103c0,0-4.232-18.701-20.972-9.03l-0.853,3.183l-0.878,3.276       C220.635,210.277,233.676,196.103,233.676,196.103z" />
					<path style="fill:#B52323;" d="M231.851,195.622c0,0-3.952-15.388-17.106-7.366l-0.696,2.596l-0.716,2.672       C220.714,207.049,231.851,195.622,231.851,195.622z" />
				</g>
				<g>
					<path style="fill:#B52323;" d="M240.105,171.182c0,0-10.105-21.858-29.105-4.244v4.244v4.369       C230,193.164,240.105,171.182,240.105,171.182z" />
					<path style="fill:#FF8888;" d="M237.595,171.193c0,0-8.595-16.969-22.595-3.295v3.295v3.392       C229,188.258,237.595,171.193,237.595,171.193z" />
					<path style="fill:#B52323;" d="M235.43,171.2c0,0-7.43-13.841-18.43-2.688v2.688v2.767C228,185.12,235.43,171.2,235.43,171.2z" />
				</g>
				<g>
					<path style="fill:#B52323;" d="M236.002,145.644c0,0-16.169-18.296-29.212,3.433l1.098,4.1l1.131,4.22       C231.18,169.695,236.002,145.644,236.002,145.644z" />
					<path style="fill:#FF8888;" d="M233.384,146.357c0,0-13.016-14.08-22.678,2.665l0.853,3.183l0.878,3.276       C229.177,165.152,233.384,146.357,233.384,146.357z" />
					<path style="fill:#B52323;" d="M231.563,146.853c0,0-11.117-11.35-18.497,2.174l0.696,2.596l0.716,2.672       C227.631,162.317,231.563,146.853,231.563,146.853z" />
				</g>
				<g>
					<path style="fill:#B52323;" d="M226.133,121.851c0,0-20.354-13.488-27.328,10.877l2.122,3.676l2.184,3.784       C227.699,146.33,226.133,121.851,226.133,121.851z" />
					<path style="fill:#FF8888;" d="M223.788,123.217c0,0-16.216-10.231-21.215,8.444l1.648,2.853l1.696,2.937       C224.589,142.461,223.788,123.217,223.788,123.217z" />
					<path style="fill:#B52323;" d="M222.157,124.167c0,0-13.676-8.086-17.305,6.887l1.344,2.327l1.383,2.396       C222.362,140.122,222.157,124.167,222.157,124.167z" />
				</g>
				<g>
					<path style="fill:#B52323;" d="M210.441,101.423c0,0-23.151-7.761-23.581,17.579l3.001,3.001l3.089,3.089       C218.29,124.662,210.441,101.423,210.441,101.423z" />
					<path style="fill:#FF8888;" d="M208.53,103.35c0,0-18.312-5.686-18.307,13.647l2.33,2.33l2.398,2.398       C214.284,121.73,208.53,103.35,208.53,103.35z" />
					<path style="fill:#B52323;" d="M207.201,104.689c0,0-15.303-4.271-14.932,11.131l1.9,1.9l1.956,1.956       C211.528,120.047,207.201,104.689,207.201,104.689z" />
				</g>
				<g>
					<path style="fill:#B52323;" d="M189.997,85.752c0,0-24.371-1.504-18.228,23.083l3.676,2.122l3.784,2.185       C203.593,106.168,189.997,85.752,189.997,85.752z" />
					<path style="fill:#FF8888;" d="M188.649,88.108c0,0-19.159-0.752-14.151,17.92l2.853,1.647l2.937,1.696       C198.965,104.372,188.649,88.108,188.649,88.108z" />
					<path style="fill:#B52323;" d="M187.712,89.745c0,0-15.887-0.165-11.543,14.617l2.328,1.344l2.396,1.383       C195.867,103.461,187.712,89.745,187.712,89.745z" />
				</g>
				<g>
					<path style="fill:#B52323;" d="M166.193,75.906c0,0-23.93,4.855-11.632,27.015l4.1,1.099l4.22,1.131       C184.61,92.107,166.193,75.906,166.193,75.906z" />
					<path style="fill:#FF8888;" d="M165.502,78.531c0,0-18.701,4.232-9.03,20.972l3.183,0.853l3.276,0.878       C179.675,91.571,165.502,78.531,165.502,78.531z" />
					<path style="fill:#B52323;" d="M165.02,80.355c0,0-15.388,3.952-7.366,17.106l2.596,0.696l2.672,0.716       C176.447,91.492,165.02,80.355,165.02,80.355z" />
				</g>
				<g>
					<g>
						<path style="fill:#97F5FF;" d="M161.493,99.788c-0.81,6.315-6.587,10.777-12.902,9.967c-6.315-0.81-10.778-6.587-9.967-12.902        c0.81-6.315,6.587-10.778,12.902-9.967S162.304,93.473,161.493,99.788z" />
						<path style="fill:#043F59;" d="M157.131,99.228c-0.501,3.906-4.074,6.666-7.979,6.165c-3.906-0.501-6.666-4.074-6.165-7.979        c0.501-3.906,4.074-6.666,7.979-6.165C154.872,91.75,157.632,95.322,157.131,99.228z" />
						<path style="fill:none;stroke:#043F59;stroke-miterlimit:10;" d="M159.451,99.526c-0.666,5.187-5.41,8.853-10.598,8.187        c-5.187-0.666-8.853-5.41-8.187-10.598c0.666-5.187,5.41-8.853,10.598-8.187C156.451,89.594,160.117,94.339,159.451,99.526z" />
					</g>
					<g>
						
							<ellipse transform="matrix(0.0346 -0.9994 0.9994 0.0346 28.0224 225.7749)" style="fill:#97F5FF;" cx="130.869" cy="98.383" rx="11.528" ry="11.528" />
						<path style="fill:#043F59;" d="M137.935,97.43c0.527,3.902-2.21,7.493-6.112,8.02c-3.902,0.527-7.493-2.21-8.02-6.112        c-0.527-3.902,2.21-7.493,6.112-8.02C133.818,90.791,137.408,93.527,137.935,97.43z" />
						<path style="fill:none;stroke:#043F59;stroke-miterlimit:10;" d="M140.254,97.117c0.7,5.183-2.935,9.951-8.118,10.651        c-5.183,0.7-9.951-2.935-10.651-8.118c-0.7-5.183,2.935-9.951,8.118-10.651C134.785,88.299,139.554,91.934,140.254,97.117z" />
					</g>
					<g>
						<path style="fill:#97F5FF;" d="M122.986,98.964c2.456,5.874-0.315,12.627-6.19,15.082c-5.874,2.456-12.627-0.315-15.083-6.19        c-2.456-5.874,0.316-12.627,6.19-15.083C113.778,90.319,120.53,93.09,122.986,98.964z" />
						<circle style="fill:#043F59;" cx="112.35" cy="103.411" r="7.13" />
						<circle style="fill:none;stroke:#043F59;stroke-miterlimit:10;" cx="112.35" cy="103.411" r="9.469" />
					</g>
					<g>
						<path style="fill:#97F5FF;" d="M104.886,106.012c3.892,5.038,2.963,12.278-2.075,16.171s-12.278,2.963-16.171-2.075        c-3.892-5.038-2.963-12.278,2.075-16.171C93.753,100.045,100.993,100.974,104.886,106.012z" />
						<path style="fill:#043F59;" d="M101.405,108.701c2.407,3.116,1.833,7.594-1.283,10.001c-3.116,2.407-7.594,1.833-10.001-1.283        c-2.407-3.116-1.833-7.594,1.283-10.001C94.52,105.01,98.998,105.585,101.405,108.701z" />
						<path style="fill:none;stroke:#043F59;stroke-miterlimit:10;" d="M103.256,107.271c3.197,4.139,2.434,10.086-1.704,13.283        c-4.139,3.197-10.086,2.434-13.283-1.704c-3.197-4.139-2.434-10.086,1.704-13.283        C94.112,102.369,100.059,103.132,103.256,107.271z" />
					</g>
					<g>
						
							<ellipse transform="matrix(0.6588 -0.7523 0.7523 0.6588 -67.2376 105.0804)" style="fill:#97F5FF;" cx="82.238" cy="126.673" rx="11.528" ry="11.528" />
						<path style="fill:#043F59;" d="M86.56,121.003c3.132,2.387,3.736,6.861,1.349,9.993s-6.861,3.736-9.993,1.349        c-3.132-2.387-3.736-6.861-1.349-9.993C78.954,119.22,83.428,118.616,86.56,121.003z" />
						<path style="fill:none;stroke:#043F59;stroke-miterlimit:10;" d="M87.978,119.142c4.16,3.17,4.962,9.112,1.791,13.272        c-3.17,4.16-9.112,4.962-13.271,1.791c-4.16-3.17-4.962-9.112-1.791-13.271C77.877,116.774,83.819,115.972,87.978,119.142z" />
					</g>
					<g>
						
							<ellipse transform="matrix(0.5038 -0.8638 0.8638 0.5038 -87.7331 133.9157)" style="fill:#97F5FF;" cx="72.698" cy="143.323" rx="11.528" ry="11.528" />
						
							<ellipse transform="matrix(0.9973 -0.0734 0.0734 0.9973 -10.3185 5.7194)" style="fill:#043F59;" cx="72.698" cy="143.323" rx="7.13" ry="7.13" />
						<path style="fill:none;stroke:#043F59;stroke-miterlimit:10;" d="M76.293,134.563c4.838,1.985,7.151,7.517,5.165,12.356        c-1.986,4.838-7.517,7.151-12.356,5.165c-4.838-1.985-7.151-7.517-5.165-12.356C65.923,134.89,71.455,132.577,76.293,134.563z        " />
					</g>
					<g>
						<path style="fill:#97F5FF;" d="M69.259,150.441c6.315,0.81,10.777,6.587,9.967,12.902c-0.81,6.315-6.587,10.777-12.902,9.967        c-6.315-0.81-10.777-6.587-9.967-12.902C57.168,154.093,62.944,149.631,69.259,150.441z" />
						<path style="fill:#043F59;" d="M68.699,154.803c3.906,0.501,6.666,4.074,6.164,7.979c-0.501,3.906-4.074,6.666-7.979,6.164        c-3.906-0.501-6.666-4.074-6.164-7.979C61.221,157.062,64.794,154.302,68.699,154.803z" />
						<path style="fill:none;stroke:#043F59;stroke-miterlimit:10;" d="M68.997,152.483c5.187,0.666,8.853,5.41,8.187,10.598        c-0.666,5.187-5.41,8.853-10.598,8.187c-5.187-0.666-8.853-5.41-8.187-10.598C59.065,155.483,63.81,151.817,68.997,152.483z" />
					</g>
					<g>
						
							<ellipse transform="matrix(0.5465 -0.8374 0.8374 0.5465 -120.8605 138.9305)" style="fill:#97F5FF;" cx="67.855" cy="181.065" rx="11.528" ry="11.528" />
						<path style="fill:#043F59;" d="M66.901,173.999c3.902-0.527,7.493,2.21,8.02,6.112c0.527,3.902-2.21,7.493-6.112,8.02        c-3.902,0.527-7.493-2.21-8.02-6.112C60.262,178.116,62.999,174.526,66.901,173.999z" />
						<path style="fill:none;stroke:#043F59;stroke-miterlimit:10;" d="M66.588,171.68c5.183-0.7,9.951,2.935,10.651,8.118        c0.7,5.183-2.935,9.952-8.118,10.651c-5.183,0.7-9.951-2.935-10.651-8.118C57.771,177.149,61.405,172.38,66.588,171.68z" />
					</g>
					<g>
						<path style="fill:#97F5FF;" d="M68.436,188.948c5.874-2.456,12.627,0.316,15.083,6.19c2.456,5.874-0.315,12.627-6.19,15.083        c-5.874,2.456-12.627-0.315-15.083-6.19C59.79,198.157,62.561,191.404,68.436,188.948z" />
						<path style="fill:#043F59;" d="M70.132,193.006c3.633-1.519,7.809,0.195,9.328,3.828c1.519,3.633-0.195,7.81-3.828,9.328        c-3.633,1.519-7.81-0.195-9.328-3.828C64.785,198.701,66.499,194.525,70.132,193.006z" />
						<path style="fill:none;stroke:#043F59;stroke-miterlimit:10;" d="M69.23,190.848c4.825-2.017,10.372,0.259,12.389,5.084        c2.017,4.825-0.259,10.372-5.084,12.389c-4.825,2.017-10.372-0.259-12.389-5.084C62.128,198.412,64.404,192.865,69.23,190.848        z" />
					</g>
					<g>
						<path style="fill:#97F5FF;" d="M75.483,207.049c5.038-3.892,12.278-2.963,16.171,2.075c3.892,5.038,2.963,12.278-2.075,16.171        c-5.038,3.892-12.278,2.963-16.171-2.075C69.516,218.181,70.445,210.941,75.483,207.049z" />
						<path style="fill:#043F59;" d="M78.172,210.529c3.116-2.407,7.594-1.833,10.001,1.283c2.407,3.116,1.833,7.594-1.283,10.001        c-3.116,2.407-7.594,1.833-10.001-1.283C74.482,217.414,75.056,212.936,78.172,210.529z" />
						<path style="fill:none;stroke:#043F59;stroke-miterlimit:10;" d="M76.742,208.678c4.139-3.197,10.086-2.434,13.283,1.704        c3.197,4.139,2.434,10.086-1.705,13.283c-4.139,3.197-10.086,2.434-13.283-1.705C71.84,217.822,72.603,211.875,76.742,208.678        z" />
					</g>
					<g>
						
							<ellipse transform="matrix(0.9918 -0.128 0.128 0.9918 -28.6118 14.1969)" style="fill:#97F5FF;" cx="96.145" cy="229.696" rx="11.528" ry="11.528" />
						<path style="fill:#043F59;" d="M90.474,225.374c2.387-3.132,6.861-3.736,9.993-1.349c3.132,2.387,3.736,6.861,1.349,9.993        c-2.387,3.132-6.861,3.736-9.993,1.349C88.691,232.98,88.087,228.506,90.474,225.374z" />
						<path style="fill:none;stroke:#043F59;stroke-miterlimit:10;" d="M88.613,223.956c3.17-4.16,9.112-4.962,13.271-1.792        c4.16,3.17,4.962,9.112,1.791,13.271c-3.17,4.16-9.112,4.962-13.271,1.792C86.245,234.057,85.443,228.116,88.613,223.956z" />
					</g>
					<g>
						<path style="fill:#97F5FF;" d="M102.13,234.86c2.417-5.89,9.152-8.705,15.042-6.288c5.89,2.417,8.706,9.152,6.288,15.042        c-2.417,5.89-9.152,8.706-15.042,6.288C102.528,247.484,99.713,240.75,102.13,234.86z" />
						
							<ellipse transform="matrix(0.9212 -0.3891 0.3891 0.9212 -84.2076 62.7519)" style="fill:#043F59;" cx="112.795" cy="239.236" rx="7.13" ry="7.13" />
						<path style="fill:none;stroke:#043F59;stroke-miterlimit:10;" d="M104.034,235.641c1.986-4.838,7.517-7.151,12.356-5.165        c4.838,1.986,7.151,7.517,5.165,12.356c-1.986,4.838-7.517,7.151-12.356,5.165        C104.361,246.011,102.049,240.48,104.034,235.641z" />
					</g>
					<g>
						<path style="fill:#97F5FF;" d="M119.912,242.675c0.81-6.315,6.587-10.777,12.902-9.967c6.315,0.81,10.777,6.587,9.967,12.902        c-0.81,6.315-6.587,10.777-12.902,9.967C123.564,254.766,119.102,248.99,119.912,242.675z" />
						
							<ellipse transform="matrix(0.1564 -0.9877 0.9877 0.1564 -130.332 335.6939)" style="fill:#043F59;" cx="131.347" cy="244.142" rx="7.13" ry="7.13" />
						<path style="fill:none;stroke:#043F59;stroke-miterlimit:10;" d="M121.954,242.937c0.666-5.187,5.41-8.853,10.598-8.187        c5.187,0.666,8.853,5.41,8.187,10.598c-0.666,5.187-5.41,8.853-10.598,8.187C124.954,252.869,121.289,248.124,121.954,242.937        z" />
					</g>
					<g>
						<path style="fill:#97F5FF;" d="M139.112,245.622c-0.852-6.31,3.573-12.115,9.882-12.967s12.115,3.573,12.967,9.882        c0.852,6.31-3.573,12.115-9.882,12.967C145.769,256.356,139.963,251.931,139.112,245.622z" />
						<path style="fill:#043F59;" d="M143.47,245.033c-0.527-3.902,2.21-7.493,6.112-8.02c3.902-0.527,7.493,2.21,8.02,6.112        c0.527,3.902-2.21,7.493-6.112,8.02C147.588,251.672,143.997,248.936,143.47,245.033z" />
						
							<ellipse transform="matrix(0.5455 -0.8381 0.8381 0.5455 -136.1472 237.1125)" style="fill:none;stroke:#043F59;stroke-miterlimit:10;" cx="150.536" cy="244.079" rx="9.469" ry="9.469" />
					</g>
					<g>
						<path style="fill:#97F5FF;" d="M158.42,243.499c-2.456-5.874,0.315-12.627,6.19-15.083c5.874-2.456,12.627,0.316,15.083,6.19        c2.456,5.874-0.315,12.627-6.19,15.083C167.628,252.144,160.875,249.373,158.42,243.499z" />
						<path style="fill:#043F59;" d="M162.477,241.802c-1.519-3.633,0.195-7.809,3.828-9.328c3.633-1.519,7.81,0.195,9.328,3.828        c1.519,3.633-0.195,7.81-3.828,9.328C168.173,247.149,163.996,245.435,162.477,241.802z" />
						
							<ellipse transform="matrix(0.3823 -0.924 0.924 0.3823 -116.4695 303.8681)" style="fill:none;stroke:#043F59;stroke-miterlimit:10;" cx="169.056" cy="239.052" rx="9.469" ry="9.47" />
					</g>
					<g>
						<path style="fill:#97F5FF;" d="M176.52,236.451c-3.892-5.038-2.963-12.278,2.075-16.171        c5.038-3.892,12.278-2.963,16.171,2.075c3.892,5.038,2.963,12.278-2.075,16.171S180.412,241.489,176.52,236.451z" />
						<path style="fill:#043F59;" d="M180,233.762c-2.407-3.116-1.833-7.594,1.283-10.001c3.116-2.407,7.594-1.833,10.001,1.283        c2.407,3.116,1.833,7.594-1.283,10.001C186.886,237.453,182.408,236.878,180,233.762z" />
						<path style="fill:none;stroke:#043F59;stroke-miterlimit:10;" d="M178.149,235.192c-3.197-4.139-2.434-10.086,1.704-13.283        c4.139-3.197,10.086-2.434,13.283,1.704c3.197,4.139,2.434,10.086-1.704,13.283        C187.293,240.094,181.346,239.331,178.149,235.192z" />
					</g>
					<g>
						
							<ellipse transform="matrix(0.3032 -0.9529 0.9529 0.3032 -66.846 340.1663)" style="fill:#97F5FF;" cx="199.167" cy="215.789" rx="11.528" ry="11.528" />
						<path style="fill:#043F59;" d="M194.845,221.46c-3.132-2.387-3.736-6.861-1.349-9.993c2.387-3.132,6.861-3.736,9.993-1.349        s3.736,6.861,1.349,9.993C202.451,223.243,197.977,223.847,194.845,221.46z" />
						<path style="fill:none;stroke:#043F59;stroke-miterlimit:10;" d="M193.427,223.321c-4.16-3.17-4.962-9.112-1.792-13.272        c3.17-4.16,9.112-4.962,13.271-1.791c4.16,3.17,4.962,9.112,1.792,13.271C203.529,225.689,197.587,226.491,193.427,223.321z" />
					</g>
					<g>
						<path style="fill:#97F5FF;" d="M204.331,209.804c-5.89-2.417-8.705-9.152-6.288-15.042c2.417-5.89,9.152-8.705,15.042-6.288        c5.89,2.417,8.705,9.152,6.288,15.042C216.956,209.406,210.221,212.222,204.331,209.804z" />
						
							<ellipse transform="matrix(0.9998 -0.0183 0.0183 0.9998 -3.6031 3.846)" style="fill:#043F59;" cx="208.708" cy="199.139" rx="7.13" ry="7.13" />
						<path style="fill:none;stroke:#043F59;stroke-miterlimit:10;" d="M205.113,207.9c-4.838-1.986-7.151-7.517-5.165-12.356        c1.985-4.838,7.517-7.151,12.356-5.165c4.838,1.986,7.151,7.517,5.165,12.356C215.483,207.573,209.951,209.885,205.113,207.9z        " />
					</g>
					<g>
						<path style="fill:#97F5FF;" d="M212.146,192.022c-6.315-0.81-10.777-6.587-9.967-12.902c0.81-6.315,6.587-10.777,12.902-9.967        c6.315,0.81,10.777,6.587,9.967,12.902C224.238,188.37,218.461,192.832,212.146,192.022z" />
						<path style="fill:#043F59;" d="M212.706,187.66c-3.906-0.501-6.666-4.074-6.165-7.98c0.501-3.906,4.074-6.666,7.979-6.164        c3.906,0.501,6.666,4.074,6.165,7.979C220.184,185.401,216.612,188.161,212.706,187.66z" />
						<path style="fill:none;stroke:#043F59;stroke-miterlimit:10;" d="M212.408,189.98c-5.187-0.666-8.853-5.41-8.187-10.598        c0.666-5.187,5.41-8.853,10.598-8.187c5.187,0.666,8.853,5.41,8.187,10.598C222.34,186.98,217.596,190.646,212.408,189.98z" />
					</g>
					<g>
						
							<ellipse transform="matrix(0.1463 -0.9892 0.9892 0.1463 22.6446 349.0361)" style="fill:#97F5FF;" cx="213.551" cy="161.398" rx="11.528" ry="11.528" />
						<path style="fill:#043F59;" d="M214.505,168.464c-3.902,0.527-7.493-2.21-8.02-6.112c-0.527-3.902,2.21-7.493,6.112-8.02        c3.902-0.527,7.493,2.21,8.02,6.112C221.143,164.346,218.407,167.937,214.505,168.464z" />
						
							<ellipse transform="matrix(0.3315 -0.9435 0.9435 0.3315 -9.5102 309.3744)" style="fill:none;stroke:#043F59;stroke-miterlimit:10;" cx="213.551" cy="161.398" rx="9.469" ry="9.47" />
					</g>
					<g>
						<path style="fill:#97F5FF;" d="M212.97,153.515c-5.874,2.456-12.627-0.315-15.083-6.19c-2.456-5.874,0.316-12.627,6.19-15.083        c5.874-2.456,12.627,0.315,15.083,6.19C221.615,144.306,218.844,151.059,212.97,153.515z" />
						<path style="fill:#043F59;" d="M211.274,149.457c-3.633,1.519-7.809-0.195-9.328-3.828c-1.519-3.633,0.195-7.81,3.828-9.328        c3.633-1.519,7.809,0.195,9.328,3.828C216.621,143.762,214.907,147.938,211.274,149.457z" />
						
							<ellipse transform="matrix(0.4442 -0.8959 0.8959 0.4442 -12.1123 266.2324)" style="fill:none;stroke:#043F59;stroke-miterlimit:10;" cx="208.523" cy="142.879" rx="9.47" ry="9.469" />
					</g>
					<g>
						<path style="fill:#97F5FF;" d="M205.922,135.414c-5.038,3.892-12.278,2.963-16.171-2.075        c-3.892-5.038-2.963-12.278,2.075-16.171c5.038-3.892,12.278-2.963,16.171,2.075        C211.889,124.282,210.96,131.522,205.922,135.414z" />
						<path style="fill:#043F59;" d="M203.233,131.934c-3.116,2.407-7.594,1.833-10.001-1.283        c-2.407-3.116-1.833-7.594,1.283-10.001c3.116-2.407,7.594-1.833,10.001,1.283        C206.924,125.049,206.349,129.526,203.233,131.934z" />
						
							<ellipse transform="matrix(0.1211 -0.9926 0.9926 0.1211 49.4305 308.4097)" style="fill:none;stroke:#043F59;stroke-miterlimit:10;" cx="198.874" cy="126.291" rx="9.469" ry="9.469" />
					</g>
					<g>
						
							<ellipse transform="matrix(0.9995 -0.03 0.03 0.9995 -3.2999 5.609)" style="fill:#97F5FF;" cx="185.261" cy="112.767" rx="11.528" ry="11.528" />
						<path style="fill:#043F59;" d="M190.932,117.089c-2.387,3.132-6.861,3.736-9.993,1.349c-3.132-2.387-3.736-6.861-1.349-9.993        c2.387-3.132,6.861-3.736,9.993-1.349S193.318,113.957,190.932,117.089z" />
						<path style="fill:none;stroke:#043F59;stroke-miterlimit:10;" d="M192.792,118.507c-3.17,4.16-9.112,4.962-13.271,1.792        c-4.16-3.17-4.962-9.112-1.792-13.271c3.17-4.16,9.112-4.962,13.271-1.792C195.16,108.405,195.962,114.347,192.792,118.507z" />
					</g>
					<g>
						<path style="fill:#97F5FF;" d="M179.276,107.603c-2.417,5.89-9.152,8.705-15.042,6.288c-5.89-2.417-8.705-9.152-6.288-15.042        c2.417-5.89,9.152-8.705,15.042-6.288C178.878,94.979,181.693,101.713,179.276,107.603z" />
						
							<ellipse transform="matrix(0.9251 -0.3798 0.3798 0.9251 -26.5725 71.7817)" style="fill:#043F59;" cx="168.611" cy="103.226" rx="7.13" ry="7.13" />
						<path style="fill:none;stroke:#043F59;stroke-miterlimit:10;" d="M177.371,106.822c-1.985,4.838-7.517,7.151-12.356,5.165        c-4.838-1.985-7.151-7.517-5.165-12.356c1.985-4.838,7.517-7.151,12.356-5.165        C177.044,96.451,179.357,101.983,177.371,106.822z" />
					</g>
				</g>
				<g>
					<g>
						
							<ellipse transform="matrix(0.2308 -0.973 0.973 0.2308 8.3528 215.8564)" style="fill:#97F5FF;" cx="140.703" cy="102.645" rx="10.756" ry="10.756" />
						<circle style="fill:#043F59;" cx="140.703" cy="102.645" r="6.653" />
						
							<ellipse transform="matrix(0.2306 -0.973 0.973 0.2306 8.3749 215.8823)" style="fill:none;stroke:#043F59;stroke-miterlimit:10;" cx="140.703" cy="102.645" rx="8.835" ry="8.835" />
					</g>
					<g>
						
							<ellipse transform="matrix(0.9769 -0.2136 0.2136 0.9769 -19.5854 28.683)" style="fill:#97F5FF;" cx="122.951" cy="104.982" rx="10.756" ry="10.756" />
						<path style="fill:#043F59;" d="M129.377,103.26c0.951,3.549-1.155,7.197-4.704,8.148c-3.549,0.951-7.197-1.155-8.148-4.704        c-0.951-3.549,1.155-7.197,4.704-8.148C124.778,97.605,128.426,99.712,129.377,103.26z" />
						<path style="fill:none;stroke:#043F59;stroke-miterlimit:10;" d="M131.486,102.695c1.263,4.713-1.534,9.558-6.248,10.821        c-4.713,1.263-9.558-1.534-10.821-6.248c-1.263-4.713,1.534-9.558,6.248-10.821        C125.378,95.185,130.223,97.982,131.486,102.695z" />
					</g>
					<g>
						
							<ellipse transform="matrix(0.9953 -0.0968 0.0968 0.9953 -10.321 10.8201)" style="fill:#97F5FF;" cx="106.41" cy="111.834" rx="10.756" ry="10.756" />
						<path style="fill:#043F59;" d="M112.171,108.508c1.837,3.182,0.747,7.251-2.435,9.088c-3.182,1.837-7.25,0.747-9.088-2.435        c-1.837-3.182-0.747-7.25,2.435-9.088C106.265,104.236,110.334,105.326,112.171,108.508z" />
						<path style="fill:none;stroke:#043F59;stroke-miterlimit:10;" d="M114.061,107.416c2.44,4.226,0.992,9.63-3.234,12.069        c-4.226,2.44-9.63,0.992-12.069-3.234c-2.44-4.226-0.992-9.63,3.234-12.069C106.218,101.743,111.621,103.19,114.061,107.416z" />
					</g>
					<g>
						<path style="fill:#97F5FF;" d="M99.811,115.128c4.201,4.201,4.201,11.011,0,15.212c-4.201,4.201-11.011,4.201-15.211,0        c-4.201-4.201-4.201-11.011,0-15.212C88.8,110.927,95.61,110.927,99.811,115.128z" />
						<path style="fill:#043F59;" d="M96.909,118.03c2.598,2.598,2.598,6.81,0,9.408c-2.598,2.598-6.81,2.598-9.408,0        c-2.598-2.598-2.598-6.81,0-9.408C90.099,115.432,94.311,115.432,96.909,118.03z" />
						<path style="fill:none;stroke:#043F59;stroke-miterlimit:10;" d="M98.452,116.486c3.45,3.45,3.45,9.045,0,12.495        c-3.45,3.45-9.045,3.45-12.495,0c-3.45-3.451-3.45-9.045,0-12.495C89.408,113.036,95.002,113.036,98.452,116.486z" />
					</g>
					<g>
						
							<ellipse transform="matrix(0.8815 -0.4722 0.4722 0.8815 -55.0297 54.6254)" style="fill:#97F5FF;" cx="81.305" cy="136.938" rx="10.756" ry="10.756" />
						<path style="fill:#043F59;" d="M84.632,131.177c3.182,1.837,4.272,5.906,2.435,9.088c-1.837,3.182-5.906,4.272-9.088,2.435        c-3.182-1.837-4.272-5.906-2.435-9.087C77.381,130.43,81.45,129.34,84.632,131.177z" />
						<path style="fill:none;stroke:#043F59;stroke-miterlimit:10;" d="M85.723,129.287c4.226,2.44,5.674,7.843,3.234,12.069        c-2.44,4.226-7.843,5.674-12.069,3.234c-4.226-2.44-5.674-7.843-3.234-12.069S81.497,126.847,85.723,129.287z" />
					</g>
					<g>
						
							<ellipse transform="matrix(0.4318 -0.902 0.902 0.4318 -96.1298 154.3581)" style="fill:#97F5FF;" cx="74.454" cy="153.48" rx="10.756" ry="10.756" />
						<path style="fill:#043F59;" d="M76.175,147.054c3.549,0.951,5.655,4.599,4.704,8.148s-4.599,5.655-8.148,4.704        c-3.549-0.951-5.655-4.599-4.704-8.148C68.979,148.209,72.626,146.103,76.175,147.054z" />
						<path style="fill:none;stroke:#043F59;stroke-miterlimit:10;" d="M76.74,144.946c4.713,1.263,7.51,6.108,6.248,10.821        c-1.263,4.713-6.108,7.51-10.821,6.247c-4.713-1.263-7.51-6.108-6.248-10.821C67.182,146.48,72.027,143.683,76.74,144.946z" />
					</g>
					<g>
						
							<ellipse transform="matrix(0.7071 -0.7071 0.7071 0.7071 -99.9565 101.1466)" style="fill:#97F5FF;" cx="72.117" cy="171.231" rx="10.756" ry="10.756" />
						<circle style="fill:#043F59;" cx="72.117" cy="171.231" r="6.653" />
						
							<ellipse transform="matrix(0.7071 -0.7071 0.7071 0.7071 -99.9565 101.1466)" style="fill:none;stroke:#043F59;stroke-miterlimit:10;" cx="72.117" cy="171.231" rx="8.835" ry="8.835" />
					</g>
					<g>
						
							<ellipse transform="matrix(0.7386 -0.6741 0.6741 0.7386 -107.939 99.5916)" style="fill:#97F5FF;" cx="74.454" cy="188.983" rx="10.756" ry="10.756" />
						<path style="fill:#043F59;" d="M72.732,182.557c3.549-0.951,7.197,1.155,8.148,4.704c0.951,3.549-1.155,7.197-4.704,8.148        c-3.549,0.951-7.197-1.155-8.148-4.704C67.077,187.156,69.183,183.508,72.732,182.557z" />
						<path style="fill:none;stroke:#043F59;stroke-miterlimit:10;" d="M72.167,180.449c4.713-1.263,9.558,1.534,10.821,6.248        c1.263,4.713-1.534,9.558-6.248,10.821c-4.713,1.263-9.558-1.534-10.821-6.248C64.656,186.556,67.453,181.712,72.167,180.449z        " />
					</g>
					<g>
						
							<ellipse transform="matrix(0.9679 -0.2513 0.2513 0.9679 -49.0419 27.0295)" style="fill:#97F5FF;" cx="81.305" cy="205.525" rx="10.756" ry="10.756" />
						<path style="fill:#043F59;" d="M77.979,199.763c3.182-1.837,7.25-0.747,9.088,2.435c1.837,3.182,0.747,7.251-2.435,9.087        c-3.182,1.837-7.25,0.747-9.087-2.435C73.707,205.669,74.797,201.6,77.979,199.763z" />
						
							<ellipse transform="matrix(0.2199 -0.9755 0.9755 0.2199 -137.0663 239.6528)" style="fill:none;stroke:#043F59;stroke-miterlimit:10;" cx="81.305" cy="205.525" rx="8.835" ry="8.835" />
					</g>
					<g>
						<path style="fill:#97F5FF;" d="M84.599,212.124c4.201-4.201,11.011-4.201,15.211,0c4.201,4.201,4.201,11.011,0,15.212        c-4.201,4.201-11.011,4.201-15.211,0C80.399,223.134,80.399,216.324,84.599,212.124z" />
						<path style="fill:#043F59;" d="M87.501,215.025c2.598-2.598,6.81-2.598,9.408,0c2.598,2.598,2.598,6.81,0,9.408        c-2.598,2.598-6.81,2.598-9.408,0C84.903,221.835,84.903,217.623,87.501,215.025z" />
						<path style="fill:none;stroke:#043F59;stroke-miterlimit:10;" d="M85.957,213.482c3.45-3.45,9.045-3.45,12.495,0        c3.45,3.45,3.45,9.045,0,12.495c-3.45,3.45-9.045,3.45-12.495,0C82.507,222.526,82.507,216.932,85.957,213.482z" />
					</g>
					<g>
						<path style="fill:#97F5FF;" d="M97.095,225.251c2.97-5.145,9.549-6.907,14.693-3.937c5.145,2.97,6.907,9.549,3.937,14.693        c-2.97,5.145-9.549,6.907-14.693,3.937C95.887,236.974,94.124,230.395,97.095,225.251z" />
						<path style="fill:#043F59;" d="M100.648,227.303c1.837-3.182,5.906-4.272,9.088-2.435c3.182,1.837,4.272,5.906,2.435,9.087        c-1.837,3.182-5.906,4.272-9.087,2.435C99.902,234.553,98.811,230.484,100.648,227.303z" />
						
							<ellipse transform="matrix(0.894 -0.4481 0.4481 0.894 -92.0593 72.1273)" style="fill:none;stroke:#043F59;stroke-miterlimit:10;" cx="106.41" cy="230.629" rx="8.835" ry="8.835" />
					</g>
					<g>
						
							<ellipse transform="matrix(0.4538 -0.8911 0.8911 0.4538 -144.4639 239.2643)" style="fill:#97F5FF;" cx="122.951" cy="237.481" rx="10.756" ry="10.756" />
						<path style="fill:#043F59;" d="M116.525,235.759c0.951-3.549,4.599-5.655,8.148-4.704c3.549,0.951,5.655,4.599,4.704,8.148        c-0.951,3.549-4.599,5.655-8.148,4.704C117.681,242.956,115.575,239.308,116.525,235.759z" />
						<path style="fill:none;stroke:#043F59;stroke-miterlimit:10;" d="M114.417,235.194c1.263-4.713,6.108-7.51,10.821-6.247        c4.713,1.263,7.511,6.108,6.248,10.821c-1.263,4.713-6.108,7.51-10.821,6.248        C115.951,244.752,113.154,239.907,114.417,235.194z" />
					</g>
					<g>
						
							<ellipse transform="matrix(0.2287 -0.9735 0.9735 0.2287 -124.9376 321.9455)" style="fill:#97F5FF;" cx="140.703" cy="239.818" rx="10.756" ry="10.756" />
						<circle style="fill:#043F59;" cx="140.703" cy="239.818" r="6.653" />
						
							<ellipse transform="matrix(0.2289 -0.9735 0.9735 0.2289 -124.9534 321.8943)" style="fill:none;stroke:#043F59;stroke-miterlimit:10;" cx="140.703" cy="239.818" rx="8.835" ry="8.835" />
					</g>
					<g>
						
							<ellipse transform="matrix(0.3651 -0.931 0.931 0.3651 -120.482 298.3035)" style="fill:#97F5FF;" cx="158.454" cy="237.481" rx="10.756" ry="10.756" />
						<path style="fill:#043F59;" d="M152.028,239.202c-0.951-3.549,1.155-7.197,4.704-8.148c3.549-0.951,7.197,1.155,8.148,4.704        c0.951,3.549-1.155,7.197-4.704,8.148C156.627,244.857,152.979,242.751,152.028,239.202z" />
						<path style="fill:none;stroke:#043F59;stroke-miterlimit:10;" d="M149.92,239.767c-1.263-4.713,1.534-9.558,6.248-10.821        c4.713-1.263,9.558,1.534,10.821,6.247c1.263,4.713-1.534,9.558-6.247,10.821C156.028,247.278,151.183,244.481,149.92,239.767        z" />
					</g>
					<g>
						<path style="fill:#97F5FF;" d="M165.681,236.007c-2.97-5.145-1.207-11.723,3.937-14.693c5.145-2.97,11.723-1.208,14.693,3.937        c2.97,5.145,1.208,11.723-3.937,14.693C175.229,242.914,168.651,241.152,165.681,236.007z" />
						<path style="fill:#043F59;" d="M169.235,233.955c-1.837-3.182-0.747-7.25,2.435-9.087c3.182-1.837,7.25-0.747,9.087,2.435        c1.837,3.182,0.747,7.251-2.435,9.088C175.14,238.227,171.072,237.137,169.235,233.955z" />
						<path style="fill:none;stroke:#043F59;stroke-miterlimit:10;" d="M167.344,235.047c-2.44-4.226-0.992-9.63,3.234-12.069        c4.226-2.44,9.63-0.992,12.069,3.234c2.44,4.226,0.992,9.63-3.234,12.069C175.188,240.72,169.784,239.272,167.344,235.047z" />
					</g>
					<g>
						<path style="fill:#97F5FF;" d="M181.595,227.335c-4.201-4.201-4.201-11.011,0-15.212c4.201-4.201,11.011-4.201,15.212,0        c4.201,4.201,4.201,11.011,0,15.212C192.606,231.536,185.795,231.536,181.595,227.335z" />
						<path style="fill:#043F59;" d="M184.497,224.433c-2.598-2.598-2.598-6.81,0-9.408c2.598-2.598,6.81-2.598,9.408,0        c2.598,2.598,2.598,6.81,0,9.408C191.307,227.031,187.094,227.031,184.497,224.433z" />
						<circle style="fill:none;stroke:#043F59;stroke-miterlimit:10;" cx="189.201" cy="219.729" r="8.835" />
					</g>
					<g>
						<path style="fill:#97F5FF;" d="M194.722,214.84c-5.145-2.97-6.907-9.549-3.937-14.693c2.97-5.145,9.549-6.907,14.693-3.937        c5.145,2.97,6.907,9.548,3.937,14.693C206.445,216.047,199.867,217.81,194.722,214.84z" />
						<path style="fill:#043F59;" d="M196.774,211.286c-3.182-1.837-4.272-5.906-2.435-9.087c1.837-3.182,5.906-4.272,9.087-2.435        c3.182,1.837,4.272,5.906,2.435,9.087C204.024,212.033,199.956,213.123,196.774,211.286z" />
						
							<ellipse transform="matrix(0.773 -0.6344 0.6344 0.773 -84.9649 173.6135)" style="fill:none;stroke:#043F59;stroke-miterlimit:10;" cx="200.1" cy="205.525" rx="8.835" ry="8.835" />
					</g>
					<g>
						
							<ellipse transform="matrix(0.5815 -0.8136 0.8136 0.5815 -67.1365 247.4564)" style="fill:#97F5FF;" cx="206.952" cy="188.983" rx="10.756" ry="10.756" />
						<path style="fill:#043F59;" d="M205.23,195.409c-3.549-0.951-5.655-4.599-4.704-8.148c0.951-3.549,4.599-5.655,8.148-4.704        c3.549,0.951,5.655,4.599,4.704,8.148C212.427,194.253,208.779,196.36,205.23,195.409z" />
						<path style="fill:none;stroke:#043F59;stroke-miterlimit:10;" d="M204.665,197.517c-4.713-1.263-7.511-6.108-6.248-10.821        c1.263-4.713,6.108-7.511,10.821-6.248c4.713,1.263,7.511,6.108,6.248,10.821C214.223,195.983,209.379,198.78,204.665,197.517        z" />
					</g>
					<g>
						
							<ellipse transform="matrix(0.7759 -0.6308 0.6308 0.7759 -61.1207 170.3932)" style="fill:#97F5FF;" cx="209.289" cy="171.231" rx="10.756" ry="10.756" />
						
							<ellipse transform="matrix(0.9541 -0.2996 0.2996 0.9541 -41.6848 70.5626)" style="fill:#043F59;" cx="209.289" cy="171.231" rx="6.653" ry="6.652" />
						
							<ellipse transform="matrix(0.7766 -0.6299 0.6299 0.7766 -61.1195 170.086)" style="fill:none;stroke:#043F59;stroke-miterlimit:10;" cx="209.289" cy="171.231" rx="8.835" ry="8.835" />
					</g>
					<g>
						
							<ellipse transform="matrix(0.9829 -0.1842 0.1842 0.9829 -24.7291 40.7453)" style="fill:#97F5FF;" cx="206.952" cy="153.48" rx="10.756" ry="10.756" />
						<path style="fill:#043F59;" d="M208.674,159.906c-3.549,0.951-7.197-1.155-8.148-4.704c-0.951-3.549,1.155-7.197,4.704-8.148        c3.549-0.951,7.197,1.155,8.148,4.704C214.329,155.307,212.223,158.955,208.674,159.906z" />
						<path style="fill:none;stroke:#043F59;stroke-miterlimit:10;" d="M209.239,162.014c-4.713,1.263-9.558-1.534-10.821-6.247        c-1.263-4.713,1.534-9.558,6.248-10.821c4.713-1.263,9.558,1.534,10.821,6.248        C216.749,155.907,213.952,160.751,209.239,162.014z" />
					</g>
					<g>
						<path style="fill:#97F5FF;" d="M205.478,146.253c-5.145,2.97-11.723,1.208-14.693-3.937        c-2.97-5.145-1.208-11.723,3.937-14.693c5.144-2.97,11.723-1.208,14.693,3.937        C212.386,136.705,210.623,143.283,205.478,146.253z" />
						<path style="fill:#043F59;" d="M203.426,142.699c-3.182,1.837-7.251,0.747-9.087-2.435c-1.837-3.182-0.747-7.251,2.435-9.088        c3.182-1.837,7.25-0.747,9.087,2.435C207.698,136.794,206.608,140.863,203.426,142.699z" />
						<path style="fill:none;stroke:#043F59;stroke-miterlimit:10;" d="M204.518,144.59c-4.226,2.44-9.63,0.992-12.069-3.234        c-2.44-4.226-0.992-9.63,3.234-12.069c4.226-2.44,9.63-0.992,12.069,3.234S208.744,142.15,204.518,144.59z" />
					</g>
					<g>
						<path style="fill:#97F5FF;" d="M196.806,130.339c-4.201,4.201-11.011,4.201-15.212,0c-4.201-4.201-4.201-11.011,0-15.212        c4.201-4.201,11.011-4.201,15.212,0C201.007,119.328,201.007,126.139,196.806,130.339z" />
						<path style="fill:#043F59;" d="M193.905,127.438c-2.598,2.598-6.81,2.598-9.408,0c-2.598-2.598-2.598-6.81,0-9.408        c2.598-2.598,6.81-2.598,9.408,0C196.503,120.628,196.503,124.84,193.905,127.438z" />
						<path style="fill:none;stroke:#043F59;stroke-miterlimit:10;" d="M195.448,128.981c-3.45,3.45-9.045,3.45-12.495,0        c-3.45-3.451-3.45-9.045,0-12.495c3.45-3.45,9.045-3.45,12.495,0C198.899,119.937,198.899,125.531,195.448,128.981z" />
					</g>
					<g>
						<path style="fill:#97F5FF;" d="M184.311,117.212c-2.97,5.145-9.549,6.907-14.693,3.937c-5.145-2.97-6.907-9.549-3.937-14.693        c2.97-5.145,9.549-6.907,14.693-3.937C185.519,105.489,187.281,112.067,184.311,117.212z" />
						<path style="fill:#043F59;" d="M180.757,115.16c-1.837,3.182-5.906,4.272-9.087,2.435c-3.182-1.837-4.272-5.906-2.435-9.088        c1.837-3.182,5.906-4.272,9.087-2.435C181.504,107.91,182.594,111.978,180.757,115.16z" />
						<path style="fill:none;stroke:#043F59;stroke-miterlimit:10;" d="M182.648,116.252c-2.44,4.226-7.844,5.674-12.069,3.234        c-4.226-2.44-5.674-7.843-3.234-12.069c2.44-4.226,7.843-5.674,12.069-3.234C183.639,106.622,185.087,112.026,182.648,116.252        z" />
					</g>
					<g>
						
							<ellipse transform="matrix(0.4036 -0.9149 0.9149 0.4036 -1.553 207.5819)" style="fill:#97F5FF;" cx="158.454" cy="104.982" rx="10.756" ry="10.756" />
						<path style="fill:#043F59;" d="M164.88,106.704c-0.951,3.549-4.599,5.655-8.148,4.704c-3.549-0.951-5.655-4.599-4.704-8.148        c0.951-3.549,4.599-5.655,8.148-4.704C163.725,99.507,165.831,103.155,164.88,106.704z" />
						<path style="fill:none;stroke:#043F59;stroke-miterlimit:10;" d="M166.988,107.269c-1.263,4.713-6.108,7.51-10.821,6.248        c-4.713-1.263-7.51-6.108-6.248-10.821c1.263-4.713,6.108-7.51,10.821-6.247C165.454,97.711,168.251,102.556,166.988,107.269z        " />
					</g>
				</g>
				
					<ellipse transform="matrix(0.9737 -0.2277 0.2277 0.9737 -35.2908 36.5328)" style="fill:#97F5FF;" cx="140.703" cy="171.231" rx="68.586" ry="68.586" />
				<g>
					<g>
						<g>
							<rect x="140" y="106" style="fill:#093751;" width="1" height="14" />
							<circle style="fill:#093751;" cx="140.697" cy="105.935" r="1.582" />
						</g>
						<g>
							<g>
								
									<rect x="139.316" y="114.333" transform="matrix(0.426 -0.9047 0.9047 0.426 -20.6927 196.8083)" style="fill:#093751;" width="10.882" height="0.759" />
								<path style="fill:#093751;" d="M148.215,110.326c-0.296,0.629-1.047,0.899-1.676,0.603          c-0.629-0.296-0.899-1.047-0.603-1.676c0.296-0.629,1.047-0.899,1.676-0.603          C148.241,108.946,148.511,109.697,148.215,110.326z" />
							</g>
							<g>
								
									<rect x="135.891" y="109.271" transform="matrix(0.9047 -0.4261 0.4261 0.9047 -35.8864 68.9902)" style="fill:#093751;" width="0.759" height="10.882" />
								<path style="fill:#093751;" d="M132.813,110.326c0.296,0.629,1.047,0.899,1.676,0.603c0.629-0.296,0.899-1.047,0.603-1.676          c-0.296-0.629-1.047-0.899-1.676-0.603C132.786,108.946,132.517,109.697,132.813,110.326z" />
							</g>
						</g>
					</g>
					<g>
						<g>
							
								<rect x="89.503" y="135.495" transform="matrix(0.5 -0.866 0.866 0.5 -78.3191 149.0063)" style="fill:#093751;" width="0.759" height="13.667" />
							<path style="fill:#093751;" d="M84.943,137.219c0.757,0.437,1.016,1.404,0.579,2.161c-0.437,0.757-1.404,1.016-2.161,0.579         c-0.757-0.437-1.016-1.404-0.579-2.161C83.219,137.041,84.186,136.782,84.943,137.219z" />
						</g>
						<g>
							<g>
								
									<rect x="93.403" y="134.019" transform="matrix(0.8213 -0.5705 0.5705 0.8213 -62.8017 78.4219)" style="fill:#093751;" width="0.76" height="10.883" />
								<path style="fill:#093751;" d="M91.713,134.273c0.397,0.571,0.255,1.356-0.316,1.753c-0.571,0.397-1.356,0.255-1.753-0.316          c-0.397-0.571-0.255-1.356,0.316-1.753C90.531,133.56,91.316,133.702,91.713,134.273z" />
							</g>
							<g>
								
									<rect x="89.16" y="141.369" transform="matrix(0.0834 -0.9965 0.9965 0.0834 -64.2275 223.7928)" style="fill:#093751;" width="0.759" height="10.882" />
								<path style="fill:#093751;" d="M84.012,147.611c0.693,0.058,1.302-0.457,1.36-1.15c0.058-0.693-0.457-1.302-1.15-1.36          c-0.693-0.058-1.302,0.457-1.36,1.15C82.804,146.945,83.319,147.553,84.012,147.611z" />
							</g>
						</g>
					</g>
					<g>
						<g>
							
								<rect x="83.429" y="200.412" transform="matrix(0.8661 -0.4999 0.4999 0.8661 -88.2858 72.0082)" style="fill:#093751;" width="13.667" height="0.759" />
							<path style="fill:#093751;" d="M83.367,202.515c0.757-0.437,1.724-0.178,2.161,0.579c0.437,0.757,0.178,1.724-0.579,2.161         c-0.757,0.437-1.724,0.178-2.161-0.579C82.351,203.919,82.61,202.951,83.367,202.515z" />
						</g>
						<g>
							<g>
								
									<rect x="84.287" y="195.6" transform="matrix(0.9965 -0.0841 0.0841 0.9965 -16.1564 8.2361)" style="fill:#093751;" width="10.883" height="0.759" />
								<path style="fill:#093751;" d="M84.201,195.178c0.693-0.058,1.302,0.457,1.36,1.15c0.058,0.693-0.457,1.302-1.15,1.36          c-0.693,0.058-1.302-0.457-1.36-1.15C82.993,195.846,83.508,195.236,84.201,195.178z" />
							</g>
							<g>
								
									<rect x="88.531" y="202.95" transform="matrix(0.5699 -0.8217 0.8217 0.5699 -126.6609 164.666)" style="fill:#093751;" width="10.882" height="0.76" />
								<path style="fill:#093751;" d="M91.902,208.517c0.397-0.571,0.256-1.356-0.316-1.753c-0.571-0.397-1.356-0.255-1.753,0.316          c-0.397,0.571-0.255,1.356,0.316,1.753C90.72,209.23,91.505,209.088,91.902,208.517z" />
							</g>
						</g>
					</g>
					<g>
						<g>
							<rect x="141" y="223" style="fill:#093751;" width="1" height="13" />
							<circle style="fill:#093751;" cx="140.709" cy="236.528" r="1.582" />
						</g>
						<g>
							<g>
								
									<rect x="131.207" y="227.371" transform="matrix(0.426 -0.9047 0.9047 0.426 -127.6157 254.3558)" style="fill:#093751;" width="10.882" height="0.759" />
								<path style="fill:#093751;" d="M133.191,232.137c0.296-0.629,1.047-0.899,1.676-0.603c0.629,0.296,0.899,1.047,0.603,1.676          c-0.296,0.629-1.047,0.899-1.676,0.603C133.164,233.517,132.894,232.766,133.191,232.137z" />
							</g>
							<g>
								
									<rect x="144.755" y="222.31" transform="matrix(0.9047 -0.4261 0.4261 0.9047 -83.2019 83.5395)" style="fill:#093751;" width="0.759" height="10.882" />
								<path style="fill:#093751;" d="M148.593,232.137c-0.296-0.629-1.047-0.899-1.676-0.603          c-0.629,0.296-0.899,1.047-0.603,1.676c0.296,0.629,1.047,0.899,1.676,0.603          C148.619,233.517,148.889,232.766,148.593,232.137z" />
							</g>
						</g>
					</g>
					<g>
						<g>
							
								<rect x="191.143" y="193.301" transform="matrix(0.5 -0.866 0.866 0.5 -77.5587 265.9345)" style="fill:#093751;" width="0.759" height="13.667" />
							<path style="fill:#093751;" d="M196.463,205.244c-0.757-0.437-1.016-1.404-0.579-2.161c0.437-0.757,1.404-1.016,2.161-0.579         c0.757,0.437,1.016,1.404,0.579,2.161C198.187,205.422,197.219,205.681,196.463,205.244z" />
						</g>
						<g>
							<g>
								
									<rect x="187.243" y="197.561" transform="matrix(0.8213 -0.5705 0.5705 0.8213 -82.2831 143.3107)" style="fill:#093751;" width="0.76" height="10.883" />
								<path style="fill:#093751;" d="M189.692,208.19c-0.397-0.571-0.255-1.356,0.316-1.753c0.571-0.397,1.356-0.255,1.753,0.316          c0.397,0.571,0.255,1.356-0.316,1.753C190.874,208.903,190.089,208.761,189.692,208.19z" />
							</g>
							<g>
								
									<rect x="191.487" y="190.212" transform="matrix(0.0834 -0.9965 0.9965 0.0834 -19.1058 370.5337)" style="fill:#093751;" width="0.759" height="10.882" />
								<path style="fill:#093751;" d="M197.393,194.851c-0.693-0.058-1.302,0.457-1.36,1.15c-0.058,0.693,0.457,1.302,1.15,1.36          c0.693,0.058,1.302-0.457,1.36-1.15C198.602,195.518,198.087,194.909,197.393,194.851z" />
							</g>
						</g>
					</g>
					<g>
						<g>
							
								<rect x="184.31" y="141.291" transform="matrix(0.8661 -0.4999 0.4999 0.8661 -45.2234 114.5188)" style="fill:#093751;" width="13.667" height="0.759" />
							<path style="fill:#093751;" d="M198.039,139.948c-0.757,0.437-1.724,0.178-2.161-0.579c-0.437-0.757-0.178-1.724,0.579-2.161         c0.757-0.437,1.724-0.178,2.161,0.579C199.055,138.544,198.795,139.511,198.039,139.948z" />
						</g>
						<g>
							<g>
								
									<rect x="186.236" y="146.104" transform="matrix(0.9965 -0.0841 0.0841 0.9965 -11.6349 16.6308)" style="fill:#093751;" width="10.883" height="0.759" />
								<path style="fill:#093751;" d="M197.205,147.284c-0.693,0.058-1.302-0.457-1.36-1.15c-0.058-0.693,0.457-1.302,1.15-1.36          c0.693-0.058,1.302,0.457,1.36,1.15C198.413,146.617,197.898,147.226,197.205,147.284z" />
							</g>
							<g>
								
									<rect x="181.993" y="138.753" transform="matrix(0.57 -0.8216 0.8216 0.57 -33.7218 213.8303)" style="fill:#093751;" width="10.882" height="0.76" />
								<path style="fill:#093751;" d="M189.504,133.946c-0.397,0.571-0.255,1.356,0.316,1.753c0.571,0.397,1.356,0.255,1.753-0.316          c0.397-0.571,0.256-1.356-0.316-1.753C190.685,133.233,189.9,133.374,189.504,133.946z" />
							</g>
						</g>
					</g>
				</g>
				<g>
					<g>
						<path style="fill:#F26D6D;" d="M171.258,115.046c0,0-38.524,0.557-30.357,40.797l5.638,3.17l5.803,3.263        C190.746,148.736,171.258,115.046,171.258,115.046z" />
						<path style="fill:#B52323;" d="M163.774,128.405c0,0-26.829,0.388-21.141,28.412l3.926,2.207l4.042,2.272        C177.346,151.867,163.774,128.405,163.774,128.405z" />
						
							<rect x="151.716" y="135.743" transform="matrix(0.8717 0.4901 -0.4901 0.8717 92.2182 -55.7329)" style="fill:#093751;" width="1.649" height="24.995" />
					</g>
					<g>
						<path style="fill:#F26D6D;" d="M107.323,116.677c0,0-18.78,33.641,20.153,46.688l5.564-3.298l5.727-3.394        C146.243,116.645,107.323,116.677,107.323,116.677z" />
						<path style="fill:#B52323;" d="M115.15,129.838c0,0-13.079,23.429,14.035,32.515l3.875-2.296l3.989-2.364        C142.254,129.815,115.15,129.838,115.15,129.838z" />
						
							<rect x="125.72" y="136.865" transform="matrix(0.8603 -0.5098 0.5098 0.8603 -58.4689 85.3884)" style="fill:#093751;" width="1.649" height="24.995" />
					</g>
					<g>
						<path style="fill:#F26D6D;" d="M76.767,172.862c0,0,19.744,33.084,50.51,5.891l-0.074-6.467l-0.076-6.657        C96.199,139.14,76.767,172.862,76.767,172.862z" />
						<path style="fill:#B52323;" d="M92.078,172.664c0,0,13.75,23.041,35.176,4.103l-0.051-4.504l-0.053-4.636        C105.611,149.179,92.078,172.664,92.078,172.664z" />
						
							<rect x="113.693" y="159.939" transform="matrix(-0.0114 -0.9999 0.9999 -0.0114 -56.6028 288.9122)" style="fill:#093751;" width="1.649" height="24.994" />
					</g>
					<g>
						<path style="fill:#F26D6D;" d="M110.147,227.417c0,0,38.524-0.557,30.357-40.797l-5.638-3.17l-5.803-3.263        C90.659,193.727,110.147,227.417,110.147,227.417z" />
						<path style="fill:#B52323;" d="M117.631,214.058c0,0,26.829-0.388,21.141-28.412l-3.926-2.208l-4.042-2.272        C104.059,190.596,117.631,214.058,117.631,214.058z" />
						
							<rect x="127.662" y="181.893" transform="matrix(-0.8717 -0.4901 0.4901 -0.8717 145.2263 426.8033)" style="fill:#093751;" width="1.649" height="24.994" />
					</g>
					<g>
						<path style="fill:#F26D6D;" d="M174.083,225.786c0,0,18.78-33.641-20.153-46.688l-5.564,3.298l-5.727,3.394        C135.163,225.818,174.083,225.786,174.083,225.786z" />
						<path style="fill:#B52323;" d="M166.256,212.625c0,0,13.079-23.429-14.035-32.515l-3.875,2.296l-3.989,2.364        C139.151,212.648,166.256,212.625,166.256,212.625z" />
						
							<rect x="153.659" y="180.771" transform="matrix(-0.8603 0.5098 -0.5098 -0.8603 385.9143 280.7757)" style="fill:#093751;" width="1.649" height="24.994" />
					</g>
					<g>
						<path style="fill:#F26D6D;" d="M204.638,169.601c0,0-19.744-33.084-50.51-5.891l0.074,6.467l0.076,6.657        C185.206,203.322,204.638,169.601,204.638,169.601z" />
						<path style="fill:#B52323;" d="M189.327,169.799c0,0-13.75-23.041-35.176-4.103l0.051,4.504l0.053,4.636        C175.795,193.283,189.327,169.799,189.327,169.799z" />
						
							<rect x="165.686" y="157.697" transform="matrix(0.0114 0.9999 -0.9999 0.0114 334.7952 1.7539)" style="fill:#093751;" width="1.649" height="24.994" />
					</g>
				</g>
				<g>
					<g>
						<path style="fill:#FF8888;" d="M139.943,117.482c0,0-28.077,16.518-5.452,42.518h5.452h5.612        C168.181,134,139.943,117.482,139.943,117.482z" />
						<path style="fill:#D14242;" d="M139.963,130.389c0,0-19.554,11.611-3.797,29.611h3.797h3.908        C159.628,142,139.963,130.389,139.963,130.389z" />
						<rect x="139.124" y="138.857" style="fill:#093751;" width="1.39" height="21.069" />
					</g>
					<g>
						<path style="fill:#FF8888;" d="M93.638,144.935c0,0,0.099,32.477,34.096,25.981l2.726-4.721l2.806-4.86        C122.223,128.833,93.638,144.935,93.638,144.935z" />
						<path style="fill:#D14242;" d="M104.826,151.372c0,0,0.069,22.618,23.745,18.094l1.898-3.288l1.954-3.385        C124.733,140.158,104.826,151.372,104.826,151.372z" />
						
							<rect x="120.485" y="150.421" transform="matrix(0.5 -0.866 0.866 0.5 -78.801 185.4264)" style="fill:#093751;" width="1.39" height="21.069" />
					</g>
					<g>
						<path style="fill:#FF8888;" d="M94.397,198.843c0,0,28.176,16.153,39.548-16.538l-2.726-4.721l-2.806-4.86        C94.744,166.036,94.397,198.843,94.397,198.843z" />
						<path style="fill:#D14242;" d="M105.566,192.372c0,0,19.622,11.25,27.542-11.517l-1.898-3.288l-1.954-3.385        C105.807,169.525,105.566,192.372,105.566,192.372z" />
						
							<rect x="121.18" y="172.344" transform="matrix(-0.5 -0.866 0.866 -0.5 24.4392 379.8676)" style="fill:#093751;" width="1.39" height="21.069" />
					</g>
					<g>
						<path style="fill:#FF8888;" d="M141.462,224.518c0,0,28.077-15.518,5.452-42.518h-5.452h-5.612        C113.225,208,141.462,224.518,141.462,224.518z" />
						<path style="fill:#D14242;" d="M141.443,211.611c0,0,19.554-10.611,3.797-29.611h-3.797h-3.909        C121.777,201,141.443,211.611,141.443,211.611z" />
						
							<rect x="140.514" y="182.704" transform="matrix(-1 -1.224647e-16 1.224647e-16 -1 282.418 386.4776)" style="fill:#093751;" width="1.39" height="21.069" />
					</g>
					<g>
						<path style="fill:#FF8888;" d="M187.767,197.527c0,0-0.098-32.477-34.096-25.981l-2.726,4.721l-2.806,4.86        C159.183,213.63,187.767,197.527,187.767,197.527z" />
						<path style="fill:#D14242;" d="M176.58,191.091c0,0-0.069-22.618-23.745-18.094l-1.898,3.288l-1.954,3.385        C156.673,202.305,176.58,191.091,176.58,191.091z" />
						
							<rect x="159.153" y="171.14" transform="matrix(-0.5 0.866 -0.866 -0.5 397.1059 134.0748)" style="fill:#093751;" width="1.39" height="21.069" />
					</g>
					<g>
						<path style="fill:#FF8888;" d="M187.008,143.62c0,0-28.176-16.154-39.548,16.538l2.726,4.721l2.806,4.86        C186.661,176.426,187.008,143.62,187.008,143.62z" />
						<path style="fill:#D14242;" d="M175.84,150.091c0,0-19.622-11.25-27.542,11.517l1.898,3.288l1.954,3.385        C175.598,172.938,175.84,150.091,175.84,150.091z" />
						
							<rect x="158.458" y="149.217" transform="matrix(0.5 0.866 -0.866 0.5 217.9282 -57.9538)" style="fill:#093751;" width="1.39" height="21.069" />
					</g>
				</g>
				<circle style="fill:#043F59;" cx="140.703" cy="171.231" r="20.373" />
				
					<ellipse transform="matrix(0.9869 -0.1611 0.1611 0.9869 -25.7437 24.8994)" style="fill:#2B7AA5;" cx="140.703" cy="171.231" rx="17.779" ry="17.779" />
				<g>
					<g>
						<path style="fill:#FFFFFF;" d="M141.209,156.637c0,0.64-0.519,1.159-1.159,1.159s-1.159-0.519-1.159-1.159        s0.519-1.159,1.159-1.159S141.209,155.997,141.209,156.637z" />
						<path style="fill:#FFFFFF;" d="M133.844,158.339c0.32,0.555,0.13,1.264-0.424,1.584c-0.554,0.32-1.263,0.13-1.583-0.424        c-0.32-0.555-0.13-1.264,0.424-1.584C132.815,157.595,133.524,157.785,133.844,158.339z" />
						<path style="fill:#FFFFFF;" d="M128.317,163.496c0.555,0.32,0.745,1.029,0.424,1.584c-0.32,0.554-1.029,0.744-1.583,0.424        c-0.555-0.32-0.744-1.029-0.424-1.583C127.053,163.366,127.762,163.176,128.317,163.496z" />
						<path style="fill:#FFFFFF;" d="M126.108,170.725c0.64,0,1.159,0.519,1.159,1.159c0,0.64-0.519,1.159-1.159,1.159        c-0.64,0-1.159-0.519-1.159-1.159C124.949,171.244,125.468,170.725,126.108,170.725z" />
						<path style="fill:#FFFFFF;" d="M127.81,178.09c0.555-0.32,1.263-0.13,1.584,0.424c0.32,0.554,0.13,1.263-0.424,1.584        c-0.554,0.32-1.263,0.13-1.584-0.424C127.066,179.12,127.256,178.411,127.81,178.09z" />
						<path style="fill:#FFFFFF;" d="M132.967,183.618c0.32-0.555,1.029-0.744,1.584-0.424c0.554,0.32,0.744,1.029,0.424,1.583        c-0.32,0.555-1.029,0.744-1.584,0.424C132.837,184.881,132.647,184.172,132.967,183.618z" />
						<path style="fill:#FFFFFF;" d="M140.197,185.826c0-0.64,0.519-1.159,1.159-1.159s1.159,0.519,1.159,1.159        c0,0.64-0.519,1.159-1.159,1.159S140.197,186.466,140.197,185.826z" />
						<path style="fill:#FFFFFF;" d="M147.562,184.124c-0.32-0.554-0.13-1.263,0.424-1.583c0.555-0.32,1.264-0.13,1.584,0.424        c0.32,0.554,0.13,1.263-0.424,1.584C148.591,184.868,147.882,184.678,147.562,184.124z" />
						<path style="fill:#FFFFFF;" d="M153.089,178.967c-0.554-0.32-0.744-1.029-0.424-1.583c0.32-0.555,1.029-0.744,1.584-0.424        c0.554,0.32,0.744,1.029,0.424,1.583C154.352,179.097,153.643,179.287,153.089,178.967z" />
						<path style="fill:#FFFFFF;" d="M155.297,171.738c-0.64,0-1.159-0.519-1.159-1.159c0-0.64,0.519-1.159,1.159-1.159        s1.159,0.519,1.159,1.159C156.456,171.219,155.937,171.738,155.297,171.738z" />
						<path style="fill:#FFFFFF;" d="M153.595,164.372c-0.555,0.32-1.264,0.13-1.584-0.424c-0.32-0.554-0.13-1.263,0.424-1.584        c0.555-0.32,1.264-0.13,1.584,0.424C154.339,163.343,154.149,164.052,153.595,164.372z" />
						<path style="fill:#FFFFFF;" d="M148.438,158.845c-0.32,0.554-1.029,0.744-1.584,0.424c-0.554-0.32-0.744-1.029-0.424-1.584        c0.32-0.554,1.029-0.744,1.584-0.424C148.568,157.582,148.758,158.291,148.438,158.845z" />
					</g>
					<g>
						<path style="fill:#FFFFFF;" d="M144.265,159.018c-0.137,0.541-0.687,0.867-1.228,0.73c-0.54-0.138-0.867-0.687-0.73-1.228        c0.138-0.54,0.687-0.867,1.228-0.73C144.076,157.928,144.403,158.478,144.265,159.018z" />
						<path style="fill:#FFFFFF;" d="M137.682,158.873c0.151,0.537-0.162,1.095-0.698,1.246c-0.537,0.151-1.095-0.162-1.246-0.698        c-0.151-0.537,0.162-1.095,0.698-1.246C136.973,158.024,137.53,158.337,137.682,158.873z" />
						<path style="fill:#FFFFFF;" d="M131.907,162.04c0.399,0.389,0.407,1.029,0.018,1.428c-0.389,0.399-1.029,0.407-1.428,0.018        c-0.399-0.389-0.408-1.029-0.018-1.428C130.869,161.658,131.508,161.65,131.907,162.04z" />
						<path style="fill:#FFFFFF;" d="M128.49,167.669c0.54,0.138,0.867,0.687,0.73,1.228c-0.137,0.54-0.687,0.867-1.228,0.73        c-0.54-0.138-0.867-0.687-0.73-1.228C127.4,167.858,127.949,167.531,128.49,167.669z" />
						<path style="fill:#FFFFFF;" d="M128.345,174.253c0.537-0.151,1.095,0.162,1.246,0.699c0.151,0.537-0.161,1.095-0.698,1.246        c-0.537,0.151-1.095-0.162-1.246-0.698C127.495,174.962,127.808,174.404,128.345,174.253z" />
						<path style="fill:#FFFFFF;" d="M131.511,180.027c0.389-0.399,1.029-0.407,1.428-0.018c0.399,0.389,0.407,1.029,0.018,1.428        c-0.389,0.399-1.029,0.407-1.428,0.018C131.13,181.066,131.122,180.426,131.511,180.027z" />
						<path style="fill:#FFFFFF;" d="M137.14,183.444c0.138-0.541,0.687-0.867,1.228-0.73c0.54,0.137,0.867,0.687,0.73,1.228        c-0.137,0.541-0.687,0.867-1.228,0.73S137.003,183.985,137.14,183.444z" />
						<path style="fill:#FFFFFF;" d="M143.724,183.589c-0.151-0.537,0.162-1.095,0.698-1.246c0.537-0.151,1.095,0.161,1.246,0.698        c0.151,0.537-0.161,1.095-0.698,1.246C144.433,184.439,143.875,184.126,143.724,183.589z" />
						<path style="fill:#FFFFFF;" d="M149.498,180.423c-0.399-0.389-0.407-1.029-0.018-1.428c0.389-0.399,1.029-0.407,1.428-0.018        c0.399,0.389,0.407,1.029,0.018,1.428C150.537,180.805,149.897,180.813,149.498,180.423z" />
						<path style="fill:#FFFFFF;" d="M152.916,174.794c-0.54-0.138-0.867-0.687-0.73-1.228c0.138-0.54,0.687-0.867,1.228-0.73        c0.541,0.137,0.867,0.687,0.73,1.228C154.006,174.605,153.456,174.932,152.916,174.794z" />
						<path style="fill:#FFFFFF;" d="M153.061,168.21c-0.537,0.151-1.095-0.161-1.246-0.698c-0.151-0.537,0.162-1.095,0.698-1.246        c0.537-0.151,1.095,0.161,1.246,0.698C153.91,167.501,153.598,168.059,153.061,168.21z" />
						<path style="fill:#FFFFFF;" d="M149.895,162.436c-0.389,0.399-1.029,0.408-1.428,0.018c-0.399-0.389-0.407-1.029-0.018-1.428        c0.389-0.399,1.029-0.407,1.428-0.018C150.276,161.397,150.284,162.037,149.895,162.436z" />
					</g>
				</g>
				
					<ellipse transform="matrix(0.3804 -0.9248 0.9248 0.3804 -71.1774 236.2256)" style="fill:#043F59;" cx="140.703" cy="171.231" rx="9.935" ry="9.935" />
			</g>
			
</svg>