<svg xmlns="http://www.w3.org/2000/svg" xmlns:xlink="http://www.w3.org/1999/xlink"
     viewBox="32 270 215 210" width="215" height="210">
<g xmlns="http://www.w3.org/2000/svg">
				<g>
					<g id="XMLID_3135_">
						<path id="XMLID_3132_" style="fill:#50C7E2;" d="M152.386,287.376c0-6.67-5.407-12.077-12.076-12.077        c-6.67,0-12.077,5.407-12.077,12.077c0,6.67,5.407,12.077,12.077,12.077C146.98,299.453,152.386,294.046,152.386,287.376z" />
						<circle id="XMLID_3133_" style="fill:#7C2552;" cx="140.31" cy="287.376" r="8.984" />
						<path id="XMLID_3134_" style="fill:#FFA31C;" d="M145.096,287.376c0-2.643-2.143-4.786-4.786-4.786        c-2.643,0-4.786,2.143-4.786,4.786s2.143,4.786,4.786,4.786C142.953,292.162,145.096,290.019,145.096,287.376z" />
					</g>
					<g id="XMLID_3137_">
						<path id="XMLID_3140_" style="fill:#50C7E2;" d="M129.146,287.285c-1.726-6.443-8.348-10.266-14.791-8.539        c-6.442,1.726-10.266,8.348-8.539,14.791c1.726,6.442,8.348,10.266,14.791,8.539        C127.049,300.35,130.872,293.728,129.146,287.285z" />
						<path id="XMLID_3139_" style="fill:#7C2552;" d="M126.158,288.086c-1.284-4.792-6.21-7.636-11.003-6.352        c-4.792,1.284-7.636,6.21-6.352,11.003c1.284,4.792,6.21,7.636,11.003,6.352C124.598,297.804,127.442,292.878,126.158,288.086        z" />
						<path id="XMLID_3138_" style="fill:#FFA31C;" d="M122.104,289.172c-0.684-2.553-3.308-4.068-5.861-3.384        c-2.553,0.684-4.068,3.308-3.384,5.861c0.684,2.553,3.308,4.068,5.861,3.384C121.273,294.349,122.788,291.725,122.104,289.172        z" />
					</g>
					<g id="XMLID_3141_">
						<path id="XMLID_3144_" style="fill:#50C7E2;" d="M106.674,293.212c-3.335-5.776-10.721-7.755-16.497-4.42        c-5.776,3.335-7.755,10.721-4.42,16.497c3.335,5.776,10.721,7.755,16.497,4.42S110.009,298.988,106.674,293.212z" />
						<path id="XMLID_3143_" style="fill:#7C2552;" d="M103.995,294.759c-2.481-4.297-7.975-5.769-12.272-3.288        c-4.297,2.481-5.769,7.975-3.288,12.272c2.481,4.297,7.975,5.769,12.272,3.288        C105.004,304.55,106.476,299.056,103.995,294.759z" />
						<path id="XMLID_3142_" style="fill:#FFA31C;" d="M100.36,296.858c-1.322-2.289-4.248-3.073-6.537-1.752        c-2.289,1.322-3.073,4.249-1.752,6.538c1.322,2.289,4.248,3.073,6.537,1.752C100.897,302.074,101.681,299.147,100.36,296.858z        " />
					</g>
					<g id="XMLID_3145_">
						<path id="XMLID_3148_" style="fill:#50C7E2;" d="M86.502,304.754c-4.716-4.716-12.363-4.716-17.079,0        c-4.716,4.716-4.716,12.363,0,17.079c4.716,4.716,12.363,4.716,17.079,0C91.218,317.116,91.218,309.47,86.502,304.754z" />
						<path id="XMLID_3147_" style="fill:#7C2552;" d="M84.314,306.941c-3.508-3.508-9.196-3.508-12.705,0        c-3.508,3.508-3.508,9.196,0,12.705c3.508,3.508,9.196,3.508,12.705,0S87.823,310.449,84.314,306.941z" />
						<path id="XMLID_3146_" style="fill:#FFA31C;" d="M81.346,309.909c-1.869-1.869-4.899-1.869-6.768,0        c-1.869,1.869-1.869,4.899,0,6.768c1.869,1.869,4.899,1.869,6.768,0C83.215,314.808,83.215,311.778,81.346,309.909z" />
					</g>
					<g id="XMLID_3149_">
						<path id="XMLID_3152_" style="fill:#50C7E2;" d="M70.004,321.123c-5.776-3.335-13.162-1.356-16.497,4.42        c-3.335,5.776-1.356,13.162,4.42,16.497c5.776,3.335,13.162,1.356,16.497-4.42C77.759,331.844,75.78,324.458,70.004,321.123z" />
						<path id="XMLID_3151_" style="fill:#7C2552;" d="M68.457,323.802c-4.297-2.481-9.791-1.009-12.272,3.288        c-2.481,4.297-1.008,9.791,3.288,12.272c4.297,2.481,9.791,1.009,12.272-3.288C74.226,331.777,72.754,326.282,68.457,323.802z        " />
						<path id="XMLID_3150_" style="fill:#FFA31C;" d="M66.358,327.437c-2.289-1.322-5.216-0.537-6.537,1.752        c-1.322,2.289-0.537,5.216,1.752,6.538c2.289,1.322,5.216,0.537,6.538-1.752C69.432,331.685,68.647,328.759,66.358,327.437z" />
					</g>
					<g id="XMLID_3153_">
						<path id="XMLID_3156_" style="fill:#50C7E2;" d="M58.305,341.204c-6.443-1.726-13.064,2.097-14.791,8.539        c-1.726,6.442,2.097,13.064,8.539,14.791c6.443,1.726,13.065-2.097,14.791-8.539C68.57,349.553,64.747,342.931,58.305,341.204        z" />
						<path id="XMLID_3155_" style="fill:#7C2552;" d="M57.504,344.192c-4.792-1.284-9.719,1.56-11.003,6.352        c-1.284,4.792,1.56,9.718,6.352,11.003c4.792,1.284,9.718-1.56,11.003-6.352C65.141,350.402,62.297,345.476,57.504,344.192z" />
						<path id="XMLID_3154_" style="fill:#FFA31C;" d="M56.418,348.247c-2.553-0.684-5.177,0.831-5.861,3.384        c-0.684,2.553,0.831,5.177,3.384,5.861c2.553,0.684,5.177-0.831,5.861-3.384C60.486,351.555,58.971,348.931,56.418,348.247z" />
					</g>
					<g id="XMLID_3157_">
						
							<ellipse id="XMLID_3160_" transform="matrix(0.3799 -0.925 0.925 0.3799 -315.17 281.2714)" style="fill:#50C7E2;" cx="52.202" cy="375.706" rx="12.077" ry="12.077" />
						
							<ellipse id="XMLID_3159_" transform="matrix(0.7071 -0.7071 0.7071 0.7071 -250.3746 146.954)" style="fill:#7C2552;" cx="52.202" cy="375.706" rx="8.984" ry="8.984" />
						<path id="XMLID_3158_" style="fill:#FFA31C;" d="M52.202,370.92c-2.643,0-4.786,2.143-4.786,4.786s2.143,4.786,4.786,4.786        c2.643,0,4.786-2.143,4.786-4.786S54.845,370.92,52.202,370.92z" />
					</g>
					<g id="XMLID_3161_">
						<path id="XMLID_3164_" style="fill:#50C7E2;" d="M52.111,386.87c-6.442,1.726-10.266,8.348-8.539,14.791        c1.726,6.442,8.348,10.266,14.791,8.539c6.443-1.726,10.266-8.348,8.54-14.791C65.175,388.967,58.553,385.144,52.111,386.87z" />
						<path id="XMLID_3163_" style="fill:#7C2552;" d="M52.911,389.858c-4.792,1.284-7.636,6.21-6.352,11.002        c1.284,4.792,6.21,7.637,11.003,6.352c4.792-1.284,7.636-6.21,6.352-11.003C62.63,391.417,57.704,388.573,52.911,389.858z" />
						<path id="XMLID_3162_" style="fill:#FFA31C;" d="M53.998,393.912c-2.553,0.684-4.068,3.308-3.384,5.861        c0.684,2.553,3.308,4.068,5.861,3.384c2.553-0.684,4.068-3.308,3.384-5.861C59.175,394.743,56.551,393.228,53.998,393.912z" />
					</g>
					<g id="XMLID_3165_">
						<path id="XMLID_3168_" style="fill:#50C7E2;" d="M58.038,409.342c-5.776,3.335-7.755,10.721-4.42,16.497        c3.335,5.776,10.721,7.755,16.497,4.42c5.776-3.335,7.755-10.721,4.42-16.497C71.2,407.986,63.814,406.007,58.038,409.342z" />
						<path id="XMLID_3167_" style="fill:#7C2552;" d="M59.585,412.021c-4.297,2.481-5.769,7.975-3.288,12.272        c2.481,4.297,7.975,5.769,12.272,3.288c4.297-2.481,5.769-7.975,3.288-12.272C69.376,411.012,63.881,409.54,59.585,412.021z" />
						<path id="XMLID_3166_" style="fill:#FFA31C;" d="M61.683,415.656c-2.289,1.322-3.073,4.249-1.752,6.538        c1.322,2.289,4.249,3.073,6.537,1.752c2.289-1.322,3.073-4.249,1.752-6.537C66.899,415.119,63.972,414.334,61.683,415.656z" />
					</g>
					<g id="XMLID_3169_">
						<path id="XMLID_3172_" style="fill:#50C7E2;" d="M69.58,429.514c-4.716,4.716-4.716,12.363,0,17.079        c4.716,4.716,12.363,4.716,17.079,0c4.716-4.716,4.716-12.363,0-17.079C81.942,424.798,74.296,424.798,69.58,429.514z" />
						<circle id="XMLID_3171_" style="fill:#7C2552;" cx="78.119" cy="438.054" r="8.984" />
						<path id="XMLID_3170_" style="fill:#FFA31C;" d="M74.735,434.67c-1.869,1.869-1.869,4.899,0,6.768        c1.869,1.869,4.899,1.869,6.768,0c1.869-1.869,1.869-4.899,0-6.768C79.634,432.801,76.604,432.801,74.735,434.67z" />
					</g>
					<g id="XMLID_3173_">
						<path id="XMLID_3176_" style="fill:#50C7E2;" d="M85.949,446.012c-3.335,5.776-1.356,13.162,4.42,16.497        c5.776,3.335,13.162,1.356,16.497-4.42c3.335-5.776,1.356-13.162-4.42-16.497C96.67,438.257,89.284,440.236,85.949,446.012z" />
						<path id="XMLID_3175_" style="fill:#7C2552;" d="M88.627,447.559c-2.481,4.297-1.008,9.791,3.288,12.272        c4.297,2.481,9.791,1.008,12.272-3.288c2.481-4.297,1.008-9.791-3.288-12.272C96.602,441.79,91.108,443.262,88.627,447.559z" />
						<path id="XMLID_3174_" style="fill:#FFA31C;" d="M92.263,449.658c-1.322,2.289-0.537,5.216,1.752,6.538        s5.216,0.537,6.538-1.752c1.322-2.289,0.537-5.216-1.752-6.538C96.511,446.584,93.584,447.368,92.263,449.658z" />
					</g>
					<g id="XMLID_3177_">
						<path id="XMLID_3180_" style="fill:#50C7E2;" d="M106.03,457.711c-1.726,6.442,2.097,13.065,8.539,14.791        c6.442,1.726,13.064-2.097,14.791-8.539c1.726-6.443-2.097-13.065-8.539-14.791        C114.378,447.445,107.756,451.269,106.03,457.711z" />
						<path id="XMLID_3179_" style="fill:#7C2552;" d="M109.018,458.512c-1.284,4.792,1.56,9.718,6.352,11.003        c4.792,1.284,9.718-1.56,11.003-6.352c1.284-4.792-1.56-9.718-6.352-11.003C115.228,450.875,110.302,453.719,109.018,458.512z        " />
						<path id="XMLID_3178_" style="fill:#FFA31C;" d="M113.072,459.598c-0.684,2.553,0.831,5.177,3.384,5.861        c2.553,0.684,5.177-0.831,5.861-3.384c0.684-2.553-0.831-5.177-3.384-5.861C116.381,455.53,113.757,457.045,113.072,459.598z" />
					</g>
					<g id="XMLID_3181_">
						<circle id="XMLID_3184_" style="fill:#50C7E2;" cx="140.532" cy="463.814" r="12.077" />
						
							<ellipse id="XMLID_3183_" transform="matrix(0.9735 -0.2289 0.2289 0.9735 -102.4236 44.4749)" style="fill:#7C2552;" cx="140.532" cy="463.814" rx="8.984" ry="8.984" />
						<circle id="XMLID_3182_" style="fill:#FFA31C;" cx="140.532" cy="463.814" r="4.786" />
					</g>
					<g id="XMLID_3185_">
						<path id="XMLID_3188_" style="fill:#50C7E2;" d="M151.696,463.905c1.726,6.442,8.348,10.266,14.791,8.539        c6.443-1.726,10.266-8.348,8.539-14.791c-1.726-6.442-8.348-10.266-14.791-8.539        C153.793,450.841,149.969,457.462,151.696,463.905z" />
						<path id="XMLID_3187_" style="fill:#7C2552;" d="M154.683,463.104c1.284,4.792,6.21,7.637,11.003,6.352        c4.792-1.284,7.636-6.21,6.352-11.003c-1.284-4.792-6.21-7.636-11.003-6.352S153.399,458.312,154.683,463.104z" />
						<path id="XMLID_3186_" style="fill:#FFA31C;" d="M158.738,462.018c0.684,2.553,3.308,4.068,5.861,3.384        s4.068-3.308,3.384-5.861s-3.308-4.068-5.861-3.384C159.569,456.841,158.054,459.465,158.738,462.018z" />
					</g>
					<g id="XMLID_3189_">
						<path id="XMLID_3192_" style="fill:#50C7E2;" d="M174.168,457.978c3.335,5.776,10.721,7.755,16.497,4.42        c5.776-3.335,7.755-10.721,4.42-16.497c-3.335-5.776-10.721-7.755-16.497-4.42        C172.812,444.816,170.833,452.202,174.168,457.978z" />
						<path id="XMLID_3191_" style="fill:#7C2552;" d="M176.846,456.431c2.481,4.297,7.975,5.769,12.272,3.288        c4.297-2.481,5.769-7.975,3.288-12.272c-2.481-4.297-7.975-5.769-12.272-3.288        C175.838,446.64,174.366,452.134,176.846,456.431z" />
						<path id="XMLID_3190_" style="fill:#FFA31C;" d="M180.482,454.332c1.322,2.289,4.248,3.073,6.537,1.752        s3.073-4.249,1.752-6.538c-1.322-2.289-4.249-3.073-6.538-1.752S179.16,452.043,180.482,454.332z" />
					</g>
					<g id="XMLID_3193_">
						<circle id="XMLID_3196_" style="fill:#50C7E2;" cx="202.88" cy="437.897" r="12.077" />
						<circle id="XMLID_3195_" style="fill:#7C2552;" cx="202.88" cy="437.897" r="8.984" />
						<path id="XMLID_3194_" style="fill:#FFA31C;" d="M199.495,441.281c1.869,1.869,4.899,1.869,6.768,0        c1.869-1.869,1.869-4.899,0-6.768c-1.869-1.869-4.899-1.869-6.768,0C197.626,436.382,197.626,439.412,199.495,441.281z" />
					</g>
					<g id="XMLID_3197_">
						<path id="XMLID_3200_" style="fill:#50C7E2;" d="M210.838,430.067c5.776,3.335,13.162,1.356,16.497-4.42        c3.335-5.776,1.356-13.162-4.42-16.497c-5.776-3.335-13.162-1.356-16.497,4.42        C203.083,419.346,205.062,426.732,210.838,430.067z" />
						<path id="XMLID_3199_" style="fill:#7C2552;" d="M212.384,427.388c4.297,2.481,9.791,1.009,12.272-3.288        c2.481-4.297,1.008-9.791-3.288-12.272c-4.297-2.481-9.791-1.009-12.272,3.288        C206.615,419.414,208.088,424.908,212.384,427.388z" />
						<path id="XMLID_3198_" style="fill:#FFA31C;" d="M214.483,423.753c2.289,1.322,5.216,0.537,6.538-1.752        c1.322-2.289,0.537-5.216-1.752-6.538c-2.289-1.322-5.216-0.537-6.537,1.752C211.41,419.505,212.194,422.431,214.483,423.753z        " />
					</g>
					<g id="XMLID_3201_">
						<path id="XMLID_3204_" style="fill:#50C7E2;" d="M222.537,409.986c6.442,1.726,13.064-2.097,14.791-8.539        c1.726-6.442-2.097-13.064-8.54-14.791c-6.442-1.726-13.064,2.097-14.791,8.539        C212.271,401.637,216.094,408.259,222.537,409.986z" />
						<path id="XMLID_3203_" style="fill:#7C2552;" d="M223.337,406.998c4.792,1.284,9.718-1.56,11.003-6.352        c1.284-4.793-1.56-9.719-6.352-11.003c-4.792-1.284-9.718,1.56-11.003,6.352C215.701,400.788,218.545,405.714,223.337,406.998        z" />
						
							<ellipse id="XMLID_3202_" transform="matrix(0.8694 -0.4941 0.4941 0.8694 -167.3303 163.5026)" style="fill:#FFA31C;" cx="225.663" cy="398.321" rx="4.786" ry="4.786" />
					</g>
					<g id="XMLID_3205_">
						<circle id="XMLID_3208_" style="fill:#50C7E2;" cx="228.64" cy="375.484" r="12.077" />
						
							<ellipse id="XMLID_3207_" transform="matrix(0.7071 -0.7071 0.7071 0.7071 -198.5403 271.6496)" style="fill:#7C2552;" cx="228.64" cy="375.484" rx="8.984" ry="8.984" />
						<path id="XMLID_3206_" style="fill:#FFA31C;" d="M228.64,380.27c2.643,0,4.786-2.143,4.786-4.786        c0-2.643-2.143-4.786-4.786-4.786c-2.643,0-4.786,2.143-4.786,4.786C223.854,378.127,225.997,380.27,228.64,380.27z" />
					</g>
					<g id="XMLID_3209_">
						<path id="XMLID_3212_" style="fill:#50C7E2;" d="M228.731,364.32c6.443-1.726,10.266-8.348,8.54-14.791        c-1.726-6.443-8.348-10.266-14.791-8.54c-6.442,1.726-10.266,8.348-8.539,14.791        C215.666,362.223,222.288,366.047,228.731,364.32z" />
						<path id="XMLID_3211_" style="fill:#7C2552;" d="M227.93,361.333c4.792-1.284,7.636-6.21,6.352-11.003        c-1.284-4.792-6.21-7.636-11.003-6.352c-4.792,1.284-7.637,6.21-6.352,11.003C218.212,359.773,223.138,362.617,227.93,361.333        z" />
						<path id="XMLID_3210_" style="fill:#FFA31C;" d="M226.844,357.278c2.553-0.684,4.068-3.308,3.384-5.861        c-0.684-2.553-3.308-4.068-5.861-3.384c-2.553,0.684-4.068,3.308-3.384,5.861S224.291,357.962,226.844,357.278z" />
					</g>
					<g id="XMLID_3213_">
						<path id="XMLID_3216_" style="fill:#50C7E2;" d="M222.804,341.848c5.776-3.335,7.755-10.721,4.42-16.497        c-3.335-5.776-10.721-7.755-16.497-4.42c-5.776,3.335-7.755,10.721-4.42,16.497        C209.641,343.204,217.027,345.183,222.804,341.848z" />
						<path id="XMLID_3215_" style="fill:#7C2552;" d="M221.257,339.169c4.297-2.481,5.769-7.975,3.288-12.272        c-2.481-4.297-7.975-5.769-12.272-3.288c-4.297,2.481-5.769,7.975-3.288,12.272        C211.466,340.178,216.96,341.65,221.257,339.169z" />
						<path id="XMLID_3214_" style="fill:#FFA31C;" d="M219.158,335.534c2.289-1.322,3.073-4.248,1.752-6.537        c-1.322-2.289-4.249-3.073-6.538-1.752c-2.289,1.322-3.073,4.248-1.752,6.538        C213.942,336.071,216.869,336.856,219.158,335.534z" />
					</g>
					<g id="XMLID_3217_">
						<path id="XMLID_3220_" style="fill:#50C7E2;" d="M211.262,321.676c4.716-4.716,4.716-12.363,0-17.079        c-4.716-4.716-12.363-4.716-17.079,0c-4.716,4.716-4.716,12.363,0,17.079C198.899,326.392,206.546,326.392,211.262,321.676z" />
						<path id="XMLID_3219_" style="fill:#7C2552;" d="M209.075,319.489c3.508-3.508,3.508-9.196,0-12.705s-9.196-3.508-12.705,0        c-3.508,3.508-3.508,9.196,0,12.705C199.879,322.997,205.567,322.997,209.075,319.489z" />
						<path id="XMLID_3218_" style="fill:#FFA31C;" d="M206.107,316.52c1.869-1.869,1.869-4.899,0-6.768        c-1.869-1.869-4.899-1.869-6.768,0c-1.869,1.869-1.869,4.899,0,6.768C201.208,318.389,204.238,318.389,206.107,316.52z" />
					</g>
					<g id="XMLID_3221_">
						<path id="XMLID_3224_" style="fill:#50C7E2;" d="M194.893,305.178c3.335-5.776,1.356-13.162-4.42-16.497        c-5.776-3.335-13.162-1.356-16.497,4.42c-3.335,5.776-1.356,13.162,4.42,16.497        C184.172,312.933,191.558,310.954,194.893,305.178z" />
						<path id="XMLID_3223_" style="fill:#7C2552;" d="M192.214,303.631c2.481-4.297,1.008-9.791-3.288-12.272        c-4.297-2.481-9.791-1.009-12.272,3.288c-2.481,4.297-1.009,9.791,3.288,12.272        C184.239,309.4,189.733,307.928,192.214,303.631z" />
						<path id="XMLID_3222_" style="fill:#FFA31C;" d="M188.579,301.533c1.322-2.289,0.537-5.216-1.752-6.538        c-2.289-1.322-5.216-0.537-6.538,1.752c-1.322,2.289-0.537,5.216,1.752,6.538S187.257,303.822,188.579,301.533z" />
					</g>
					<g id="XMLID_3225_">
						<path id="XMLID_3228_" style="fill:#50C7E2;" d="M174.812,293.479c1.726-6.442-2.097-13.064-8.539-14.791        c-6.442-1.726-13.064,2.097-14.791,8.539c-1.726,6.443,2.097,13.065,8.539,14.791        C166.463,303.745,173.085,299.921,174.812,293.479z" />
						<path id="XMLID_3227_" style="fill:#7C2552;" d="M171.824,292.678c1.284-4.792-1.56-9.718-6.352-11.003        c-4.792-1.284-9.718,1.56-11.003,6.352c-1.284,4.792,1.56,9.718,6.352,11.003S170.54,297.471,171.824,292.678z" />
						<path id="XMLID_3226_" style="fill:#FFA31C;" d="M167.769,291.592c0.684-2.553-0.831-5.177-3.384-5.862        c-2.553-0.684-5.177,0.831-5.861,3.384c-0.684,2.553,0.831,5.177,3.384,5.862C164.461,295.66,167.085,294.145,167.769,291.592        z" />
					</g>
				</g>
				
					<ellipse transform="matrix(0.7071 -0.7071 0.7071 0.7071 -224.4073 209.2552)" style="fill:#033542;" cx="140.39" cy="375.511" rx="87.773" ry="87.773" />
				
					<ellipse transform="matrix(0.9716 -0.2366 0.2366 0.9716 -84.8447 43.8677)" style="fill:#60CEF4;" cx="140.39" cy="375.511" rx="67.346" ry="67.346" />
				<g id="XMLID_3129_">
					<circle id="XMLID_3117_" style="fill:none;stroke:#09514F;stroke-miterlimit:10;" cx="140.421" cy="375.595" r="85.837" />
					
						<ellipse id="XMLID_3118_" transform="matrix(0.7071 -0.7071 0.7071 0.7071 -224.4575 209.3018)" style="fill:none;stroke:#09514F;stroke-miterlimit:10;" cx="140.421" cy="375.595" rx="83.805" ry="83.805" />
					<circle id="XMLID_3120_" style="fill:none;stroke:#09514F;stroke-miterlimit:10;" cx="140.421" cy="375.595" r="81.783" />
					<circle id="XMLID_3119_" style="fill:none;stroke:#09514F;stroke-miterlimit:10;" cx="140.421" cy="375.595" r="79.846" />
					<circle id="XMLID_3122_" style="fill:none;stroke:#09514F;stroke-miterlimit:10;" cx="140.421" cy="375.595" r="78.065" />
					<circle id="XMLID_3121_" style="fill:none;stroke:#09514F;stroke-miterlimit:10;" cx="140.421" cy="375.595" r="76.216" />
					<circle id="XMLID_3128_" style="fill:none;stroke:#09514F;stroke-miterlimit:10;" cx="140.421" cy="375.595" r="74.169" />
					<circle id="XMLID_3127_" style="fill:none;stroke:#09514F;stroke-miterlimit:10;" cx="140.421" cy="375.595" r="72.412" />
					<circle id="XMLID_3126_" style="fill:none;stroke:#09514F;stroke-miterlimit:10;" cx="140.421" cy="375.595" r="70.665" />
					<circle id="XMLID_3125_" style="fill:none;stroke:#09514F;stroke-miterlimit:10;" cx="140.421" cy="375.595" r="68.992" />
					<circle id="XMLID_3124_" style="fill:none;stroke:#09514F;stroke-miterlimit:10;" cx="140.421" cy="375.595" r="67.453" />
					<circle id="XMLID_3123_" style="fill:none;stroke:#09514F;stroke-miterlimit:10;" cx="140.421" cy="375.595" r="65.855" />
				</g>
				<g id="XMLID_540_">
					<g id="XMLID_1439_">
						<path id="XMLID_2106_" style="fill:#B52323;" d="M167.956,333.423c-13.247-16.429-27.01,8.466-18.308,8.763        c8.702,0.297,11.365,17.691-9.226,33.409C140.421,375.595,181.46,350.172,167.956,333.423z" />
						<path id="XMLID_1577_" style="fill:#B52323;" d="M130.071,326.305c-20.984-2.25-13.113,25.085-6.75,19.142        c6.363-5.943,20.546,4.473,17.1,30.148C140.421,375.595,151.464,328.599,130.071,326.305z" />
						<path id="XMLID_1578_" style="fill:#B52323;" d="M98.249,348.06c-16.429,13.247,8.466,27.01,8.762,18.308        c0.297-8.702,17.692-11.365,33.409,9.227C140.421,375.595,114.998,334.556,98.249,348.06z" />
						<path id="XMLID_1579_" style="fill:#B52323;" d="M91.131,385.945c-2.25,20.984,25.085,13.113,19.142,6.75        c-5.944-6.363,4.473-20.546,30.148-17.1C140.421,375.595,93.425,364.552,91.131,385.945z" />
						<path id="XMLID_1580_" style="fill:#B52323;" d="M112.886,417.767c13.247,16.429,27.01-8.466,18.308-8.763        c-8.702-0.297-11.365-17.691,9.227-33.409C140.421,375.595,99.381,401.018,112.886,417.767z" />
						<path id="XMLID_2105_" style="fill:#B52323;" d="M150.771,424.885c20.984,2.25,13.113-25.086,6.75-19.142        c-6.363,5.944-20.546-4.473-17.1-30.148C140.421,375.595,129.378,422.591,150.771,424.885z" />
						<path id="XMLID_2107_" style="fill:#B52323;" d="M182.593,403.13c16.429-13.247-8.466-27.01-8.763-18.308        c-0.297,8.702-17.691,11.365-33.409-9.227C140.421,375.595,165.844,416.634,182.593,403.13z" />
						<path id="XMLID_2108_" style="fill:#B52323;" d="M189.711,365.245c2.25-20.984-25.085-13.113-19.142-6.75        c5.943,6.363-4.473,20.546-30.148,17.1C140.421,375.595,187.417,386.638,189.711,365.245z" />
					</g>
					<g id="XMLID_414_">
						<g id="XMLID_416_">
							<path id="XMLID_511_" style="fill:#840820;" d="M152.632,352.873c-1.739,13.208-12.211,22.722-12.211,22.722         s-7.653-11.9-5.914-25.108c1.739-13.208,7.206-23.381,12.211-22.722C151.723,328.423,154.371,339.665,152.632,352.873z" />
							<path id="XMLID_510_" style="fill:#FFA31C;" d="M150.159,352.547c-1.264,9.604-8.879,16.523-8.879,16.523         s-5.565-8.654-4.301-18.258c1.264-9.604,5.24-17.002,8.88-16.523C149.498,334.769,151.424,342.943,150.159,352.547z" />
							<path id="XMLID_509_" style="fill:#043F59;" d="M148.811,352.37c-1.006,7.639-7.063,13.142-7.063,13.142         s-4.426-6.883-3.421-14.522c1.006-7.639,4.168-13.523,7.063-13.142C148.285,338.229,149.817,344.731,148.811,352.37z" />
						</g>
						<g id="XMLID_512_">
							<path id="XMLID_515_" style="fill:#840820;" d="M132.989,350.893c8.11,10.569,7.432,24.702,7.432,24.702         s-13.827-3.003-21.936-13.572c-8.11-10.569-11.438-21.628-7.432-24.702C115.057,334.248,124.879,340.324,132.989,350.893z" />
							<path id="XMLID_514_" style="fill:#FFA31C;" d="M131.01,352.411c5.897,7.685,5.404,17.962,5.404,17.962         s-10.054-2.184-15.951-9.869c-5.897-7.685-8.317-15.727-5.405-17.962C117.971,340.308,125.113,344.726,131.01,352.411z" />
							<path id="XMLID_513_" style="fill:#043F59;" d="M129.931,353.24c4.691,6.113,4.299,14.286,4.299,14.286         s-7.997-1.737-12.687-7.85c-4.69-6.113-6.615-12.509-4.299-14.287C119.56,343.612,125.24,347.127,129.931,353.24z" />
						</g>
						<g id="XMLID_516_">
							<path id="XMLID_519_" style="fill:#840820;" d="M117.699,363.384c13.208,1.739,22.722,12.211,22.722,12.211         s-11.9,7.653-25.109,5.914c-13.208-1.739-23.381-7.206-22.722-12.211C93.249,364.293,104.49,361.645,117.699,363.384z" />
							<path id="XMLID_518_" style="fill:#FFA31C;" d="M117.373,365.856c9.604,1.264,16.523,8.879,16.523,8.879         s-8.653,5.565-18.258,4.301s-17.002-5.24-16.522-8.879C99.594,366.517,107.769,364.592,117.373,365.856z" />
							<path id="XMLID_517_" style="fill:#043F59;" d="M117.196,367.205c7.639,1.006,13.142,7.063,13.142,7.063         s-6.883,4.426-14.522,3.421c-7.639-1.006-13.523-4.168-13.142-7.063C103.055,367.731,109.556,366.199,117.196,367.205z" />
						</g>
						<g id="XMLID_520_">
							<path id="XMLID_523_" style="fill:#840820;" d="M115.719,383.027c10.569-8.11,24.702-7.432,24.702-7.432         s-3.003,13.827-13.573,21.936c-10.569,8.11-21.628,11.438-24.702,7.432C99.073,400.958,105.15,391.137,115.719,383.027z" />
							<path id="XMLID_522_" style="fill:#FFA31C;" d="M117.237,385.006c7.685-5.897,17.962-5.404,17.962-5.404         s-2.184,10.054-9.869,15.951c-7.685,5.897-15.727,8.317-17.962,5.404C105.133,398.045,109.552,390.903,117.237,385.006z" />
							<path id="XMLID_521_" style="fill:#043F59;" d="M118.065,386.085c6.113-4.69,14.287-4.298,14.287-4.298         s-1.737,7.997-7.85,12.687c-6.113,4.691-12.509,6.615-14.287,4.299C108.438,396.456,111.953,390.776,118.065,386.085z" />
						</g>
						<g id="XMLID_524_">
							<path id="XMLID_527_" style="fill:#840820;" d="M128.209,398.317c1.739-13.208,12.211-22.722,12.211-22.722         s7.653,11.9,5.914,25.108s-7.206,23.381-12.211,22.722C129.118,422.767,126.471,411.525,128.209,398.317z" />
							<path id="XMLID_526_" style="fill:#FFA31C;" d="M130.682,398.643c1.264-9.604,8.88-16.523,8.88-16.523         s5.565,8.654,4.3,18.258c-1.264,9.604-5.24,17.002-8.879,16.523C131.343,416.421,129.418,408.247,130.682,398.643z" />
							<path id="XMLID_525_" style="fill:#043F59;" d="M132.031,398.82c1.006-7.639,7.063-13.142,7.063-13.142         s4.426,6.883,3.421,14.522c-1.006,7.639-4.168,13.523-7.063,13.142C132.556,412.961,131.025,406.459,132.031,398.82z" />
						</g>
						<g id="XMLID_528_">
							<path id="XMLID_531_" style="fill:#840820;" d="M147.853,400.297c-8.11-10.569-7.432-24.702-7.432-24.702         s13.826,3.003,21.936,13.572c8.11,10.569,11.438,21.629,7.432,24.702C165.784,416.943,155.963,410.866,147.853,400.297z" />
							<path id="XMLID_530_" style="fill:#FFA31C;" d="M149.832,398.779c-5.897-7.685-5.404-17.962-5.404-17.962         s10.054,2.184,15.951,9.869c5.897,7.685,8.317,15.727,5.404,17.962C162.871,410.882,155.729,406.464,149.832,398.779z" />
							<path id="XMLID_529_" style="fill:#043F59;" d="M150.911,397.951c-4.69-6.113-4.299-14.286-4.299-14.286         s7.997,1.737,12.687,7.85c4.691,6.113,6.615,12.509,4.299,14.287C161.282,407.578,155.601,404.063,150.911,397.951z" />
						</g>
						<g id="XMLID_532_">
							<path id="XMLID_535_" style="fill:#840820;" d="M163.143,387.806c-13.208-1.739-22.722-12.211-22.722-12.211         s11.9-7.653,25.108-5.914c13.208,1.739,23.381,7.206,22.722,12.211C187.593,386.897,176.351,389.545,163.143,387.806z" />
							<path id="XMLID_534_" style="fill:#FFA31C;" d="M163.469,385.334c-9.604-1.264-16.523-8.879-16.523-8.879         s8.653-5.565,18.258-4.301c9.604,1.264,17.002,5.24,16.522,8.879C181.247,384.673,173.073,386.598,163.469,385.334z" />
							<path id="XMLID_533_" style="fill:#043F59;" d="M163.646,383.985c-7.639-1.006-13.142-7.063-13.142-7.063         s6.883-4.426,14.522-3.421c7.639,1.006,13.523,4.168,13.142,7.063C177.787,383.46,171.285,384.991,163.646,383.985z" />
						</g>
						<g id="XMLID_536_">
							<path id="XMLID_539_" style="fill:#840820;" d="M165.123,368.163c-10.569,8.11-24.702,7.432-24.702,7.432         s3.003-13.827,13.572-21.936c10.569-8.11,21.628-11.438,24.702-7.432C181.768,350.232,175.692,360.053,165.123,368.163z" />
							<path id="XMLID_538_" style="fill:#FFA31C;" d="M163.604,366.184c-7.685,5.897-17.962,5.405-17.962,5.405         s2.184-10.054,9.869-15.951c7.685-5.897,15.727-8.317,17.962-5.404C175.708,353.145,171.29,360.287,163.604,366.184z" />
							<path id="XMLID_537_" style="fill:#043F59;" d="M162.776,365.105c-6.113,4.69-14.286,4.299-14.286,4.299         s1.737-7.997,7.85-12.687c6.113-4.691,12.509-6.615,14.287-4.299C172.404,354.734,168.889,360.414,162.776,365.105z" />
						</g>
					</g>
				</g>
				<g>
					<g>
						<path style="fill:#043F59;" d="M144.769,318.102c0,2.432-1.971,4.403-4.403,4.403c-2.432,0-4.403-1.971-4.403-4.403        c0-2.432,1.971-4.403,4.403-4.403C142.797,313.698,144.769,315.67,144.769,318.102z" />
						<path style="fill:#043F59;" d="M115.425,323.676c1.216,2.106,0.494,4.799-1.612,6.015c-2.106,1.216-4.799,0.494-6.015-1.612        c-1.216-2.106-0.494-4.799,1.612-6.015C111.516,320.848,114.209,321.57,115.425,323.676z" />
						<path style="fill:#043F59;" d="M92.8,343.175c2.106,1.216,2.828,3.909,1.612,6.015c-1.216,2.106-3.909,2.828-6.015,1.612        c-2.106-1.216-2.828-3.909-1.612-6.015C88.001,342.681,90.694,341.959,92.8,343.175z" />
						<path style="fill:#043F59;" d="M82.956,371.375c2.432,0,4.403,1.971,4.403,4.403c0,2.432-1.971,4.403-4.403,4.403        c-2.432,0-4.403-1.971-4.403-4.403C78.552,373.346,80.524,371.375,82.956,371.375z" />
						<path style="fill:#043F59;" d="M88.53,400.718c2.106-1.216,4.799-0.494,6.015,1.612c1.216,2.106,0.494,4.799-1.612,6.015        c-2.106,1.216-4.799,0.494-6.015-1.612C85.702,404.627,86.424,401.934,88.53,400.718z" />
						<path style="fill:#043F59;" d="M108.029,423.343c1.216-2.106,3.909-2.828,6.015-1.612c2.106,1.216,2.828,3.909,1.612,6.015        c-1.216,2.106-3.909,2.828-6.015,1.612C107.535,428.142,106.813,425.449,108.029,423.343z" />
						<path style="fill:#043F59;" d="M136.229,433.188c0-2.432,1.971-4.403,4.403-4.403c2.432,0,4.403,1.971,4.403,4.403        c0,2.432-1.971,4.403-4.403,4.403C138.2,437.591,136.229,435.62,136.229,433.188z" />
						<path style="fill:#043F59;" d="M165.572,427.613c-1.216-2.106-0.494-4.799,1.612-6.015c2.106-1.216,4.799-0.494,6.015,1.612        c1.216,2.106,0.494,4.799-1.612,6.015C169.481,430.441,166.788,429.719,165.572,427.613z" />
						<path style="fill:#043F59;" d="M188.198,408.114c-2.106-1.216-2.828-3.909-1.612-6.015c1.216-2.106,3.909-2.828,6.015-1.612        c2.106,1.216,2.828,3.909,1.612,6.015C192.997,408.608,190.304,409.33,188.198,408.114z" />
						<path style="fill:#043F59;" d="M198.042,379.914c-2.432,0-4.403-1.971-4.403-4.403c0-2.432,1.971-4.403,4.403-4.403        c2.432,0,4.403,1.971,4.403,4.403C202.445,377.943,200.474,379.914,198.042,379.914z" />
						<path style="fill:#043F59;" d="M192.467,350.571c-2.106,1.216-4.799,0.494-6.015-1.612c-1.216-2.106-0.494-4.799,1.612-6.015        c2.106-1.216,4.799-0.494,6.015,1.612C195.295,346.662,194.574,349.355,192.467,350.571z" />
						<path style="fill:#043F59;" d="M172.968,327.946c-1.216,2.106-3.909,2.828-6.015,1.612c-2.106-1.216-2.828-3.909-1.612-6.015        c1.216-2.106,3.909-2.828,6.015-1.612C173.463,323.147,174.184,325.84,172.968,327.946z" />
					</g>
					<path style="fill:#FFA31C;" d="M142.317,318.102c0,1.077-0.874,1.951-1.951,1.951c-1.078,0-1.951-0.874-1.951-1.951       c0-1.078,0.873-1.951,1.951-1.951C141.443,316.15,142.317,317.024,142.317,318.102z" />
					<path style="fill:#FFA31C;" d="M127.361,319.592c0.279,1.041-0.339,2.111-1.38,2.39c-1.041,0.279-2.111-0.339-2.39-1.38       c-0.279-1.041,0.339-2.111,1.38-2.39C126.013,317.933,127.082,318.551,127.361,319.592z" />
					<path style="fill:#FFA31C;" d="M101.095,333.67c0.762,0.762,0.762,1.997,0,2.759c-0.762,0.762-1.997,0.762-2.759,0       c-0.762-0.762-0.762-1.997,0-2.759C99.098,332.908,100.333,332.908,101.095,333.67z" />
					<path style="fill:#FFA31C;" d="M85.387,358.996c1.041,0.279,1.658,1.349,1.38,2.39c-0.279,1.041-1.349,1.659-2.39,1.38       c-1.041-0.279-1.659-1.349-1.38-2.39C83.276,359.334,84.346,358.717,85.387,358.996z" />
					<path style="fill:#FFA31C;" d="M84.446,388.782c1.041-0.279,2.111,0.339,2.39,1.38s-0.339,2.111-1.38,2.39       c-1.041,0.279-2.111-0.339-2.39-1.38C82.787,390.131,83.405,389.061,84.446,388.782z" />
					<path style="fill:#FFA31C;" d="M98.524,415.048c0.762-0.762,1.997-0.762,2.759,0c0.762,0.762,0.762,1.997,0,2.759       c-0.762,0.762-1.997,0.762-2.759,0C97.762,417.046,97.762,415.81,98.524,415.048z" />
					<path style="fill:#FFA31C;" d="M123.85,430.756c0.279-1.041,1.349-1.659,2.39-1.38c1.041,0.279,1.659,1.349,1.38,2.39       c-0.279,1.041-1.349,1.659-2.39,1.38C124.189,432.867,123.571,431.797,123.85,430.756z" />
					<path style="fill:#FFA31C;" d="M153.636,431.697c-0.279-1.041,0.339-2.111,1.38-2.389c1.041-0.279,2.111,0.339,2.39,1.38       c0.279,1.041-0.339,2.111-1.38,2.389C154.985,433.356,153.915,432.738,153.636,431.697z" />
					<path style="fill:#FFA31C;" d="M179.903,417.619c-0.762-0.762-0.762-1.997,0-2.759s1.997-0.762,2.759,0       c0.762,0.762,0.762,1.997,0,2.759C181.9,418.381,180.664,418.381,179.903,417.619z" />
					<path style="fill:#FFA31C;" d="M195.611,392.294c-1.041-0.279-1.658-1.349-1.38-2.39c0.279-1.041,1.349-1.658,2.39-1.38       c1.041,0.279,1.658,1.349,1.38,2.389C197.721,391.955,196.651,392.572,195.611,392.294z" />
					<path style="fill:#FFA31C;" d="M196.552,362.507c-1.041,0.279-2.111-0.339-2.389-1.38c-0.279-1.041,0.339-2.111,1.38-2.389       c1.041-0.279,2.111,0.339,2.39,1.38C198.21,361.158,197.592,362.228,196.552,362.507z" />
					<path style="fill:#FFA31C;" d="M182.473,336.241c-0.762,0.762-1.997,0.762-2.759,0c-0.762-0.762-0.762-1.997,0-2.759       c0.762-0.762,1.997-0.762,2.759,0C183.235,334.243,183.235,335.479,182.473,336.241z" />
					<path style="fill:#FFA31C;" d="M157.148,320.533c-0.279,1.041-1.349,1.659-2.39,1.38c-1.041-0.279-1.658-1.349-1.38-2.39       s1.349-1.659,2.389-1.38C156.809,318.422,157.427,319.492,157.148,320.533z" />
					<path style="fill:#FFA31C;" d="M113.301,324.902c0.539,0.933,0.219,2.127-0.714,2.665c-0.933,0.539-2.126,0.219-2.665-0.714       c-0.539-0.933-0.219-2.126,0.714-2.665C111.569,323.649,112.763,323.969,113.301,324.902z" />
					<path style="fill:#FFA31C;" d="M91.574,345.299c0.933,0.539,1.253,1.732,0.714,2.665s-1.732,1.253-2.665,0.714       c-0.933-0.539-1.253-1.732-0.714-2.665C89.447,345.08,90.641,344.76,91.574,345.299z" />
					<path style="fill:#FFA31C;" d="M82.956,373.827c1.077,0,1.951,0.873,1.951,1.951c0,1.078-0.873,1.951-1.951,1.951       c-1.078,0-1.951-0.874-1.951-1.951C81.005,374.7,81.878,373.827,82.956,373.827z" />
					<path style="fill:#FFA31C;" d="M89.756,402.842c0.933-0.539,2.126-0.219,2.665,0.714c0.539,0.933,0.219,2.126-0.714,2.665       c-0.933,0.539-2.126,0.219-2.665-0.714C88.503,404.574,88.823,403.381,89.756,402.842z" />
					<path style="fill:#FFA31C;" d="M110.153,424.569c0.539-0.933,1.732-1.253,2.665-0.714c0.933,0.539,1.253,1.732,0.714,2.665       c-0.539,0.933-1.732,1.253-2.665,0.714C109.934,426.696,109.614,425.503,110.153,424.569z" />
					<circle style="fill:#FFA31C;" cx="140.632" cy="433.188" r="1.951" />
					<path style="fill:#FFA31C;" d="M167.696,426.387c-0.539-0.933-0.219-2.126,0.714-2.665c0.933-0.539,2.126-0.219,2.665,0.714       c0.539,0.933,0.219,2.126-0.714,2.665C169.428,427.64,168.235,427.32,167.696,426.387z" />
					<path style="fill:#FFA31C;" d="M189.424,405.99c-0.933-0.539-1.253-1.732-0.714-2.665s1.732-1.253,2.665-0.714       c0.933,0.539,1.253,1.732,0.714,2.665C191.55,406.209,190.357,406.529,189.424,405.99z" />
					<circle style="fill:#FFA31C;" cx="198.042" cy="375.511" r="1.951" />
					<path style="fill:#FFA31C;" d="M191.241,348.447c-0.933,0.539-2.126,0.219-2.665-0.714c-0.539-0.933-0.219-2.126,0.714-2.665       c0.933-0.539,2.126-0.219,2.665,0.714C192.494,346.715,192.175,347.908,191.241,348.447z" />
					<path style="fill:#FFA31C;" d="M170.845,326.72c-0.539,0.933-1.732,1.253-2.665,0.714c-0.933-0.539-1.253-1.732-0.714-2.665       c0.539-0.933,1.732-1.253,2.665-0.714C171.064,324.593,171.383,325.786,170.845,326.72z" />
				</g>
				<g>
					<g>
						<path style="fill:#B52323;" d="M146.349,296.801c0,3.332-2.701,6.033-6.033,6.033c-3.332,0-6.033-2.701-6.033-6.033        c0-3.332,2.701-6.033,6.033-6.033C143.648,290.768,146.349,293.469,146.349,296.801z" />
						<path style="fill:#B52323;" d="M106.144,304.439c1.666,2.886,0.677,6.576-2.208,8.242c-2.886,1.666-6.576,0.677-8.242-2.208        c-1.666-2.886-0.677-6.576,2.208-8.241C100.788,300.564,104.478,301.553,106.144,304.439z" />
						<path style="fill:#B52323;" d="M75.143,331.156c2.886,1.666,3.874,5.356,2.208,8.242c-1.666,2.886-5.356,3.874-8.241,2.208        c-2.886-1.666-3.874-5.356-2.208-8.241C68.568,330.479,72.258,329.49,75.143,331.156z" />
						<path style="fill:#B52323;" d="M61.655,369.794c3.332,0,6.033,2.701,6.033,6.033c0,3.332-2.701,6.033-6.033,6.033        c-3.332,0-6.033-2.701-6.033-6.033C55.622,372.495,58.323,369.794,61.655,369.794z" />
						<path style="fill:#B52323;" d="M69.293,410c2.886-1.666,6.575-0.677,8.242,2.208c1.666,2.886,0.677,6.576-2.208,8.242        c-2.886,1.666-6.576,0.677-8.242-2.208C65.419,415.355,66.407,411.666,69.293,410z" />
						<path style="fill:#B52323;" d="M96.01,441c1.666-2.886,5.356-3.874,8.242-2.208c2.886,1.666,3.874,5.356,2.208,8.241        c-1.666,2.886-5.356,3.874-8.241,2.208C95.333,447.575,94.344,443.885,96.01,441z" />
						<path style="fill:#B52323;" d="M134.648,454.488c0-3.332,2.701-6.033,6.033-6.033c3.332,0,6.033,2.701,6.033,6.033        c0,3.332-2.701,6.033-6.033,6.033C137.349,460.521,134.648,457.82,134.648,454.488z" />
						<path style="fill:#B52323;" d="M174.854,446.85c-1.666-2.886-0.677-6.576,2.208-8.242c2.886-1.666,6.576-0.677,8.242,2.208        c1.666,2.886,0.677,6.576-2.208,8.241C180.21,450.725,176.52,449.736,174.854,446.85z" />
						<path style="fill:#B52323;" d="M205.854,420.133c-2.886-1.666-3.874-5.356-2.208-8.241c1.666-2.886,5.356-3.874,8.241-2.208        c2.886,1.666,3.874,5.356,2.208,8.242C212.43,420.81,208.74,421.799,205.854,420.133z" />
						<circle style="fill:#B52323;" cx="219.342" cy="375.462" r="6.033" />
						<path style="fill:#B52323;" d="M211.705,341.289c-2.886,1.666-6.576,0.677-8.242-2.208c-1.666-2.886-0.677-6.575,2.208-8.241        c2.886-1.666,6.576-0.677,8.242,2.208C215.579,335.934,214.59,339.623,211.705,341.289z" />
						<path style="fill:#B52323;" d="M184.987,310.289c-1.666,2.886-5.356,3.874-8.242,2.208c-2.886-1.666-3.874-5.356-2.208-8.241        c1.666-2.886,5.356-3.874,8.242-2.208C185.665,303.714,186.653,307.404,184.987,310.289z" />
					</g>
					<circle style="fill:#FFA31C;" cx="140.316" cy="296.801" r="2.673" />
					<path style="fill:#FFA31C;" d="M122.498,298.843c0.382,1.426-0.464,2.892-1.89,3.274c-1.426,0.382-2.892-0.464-3.274-1.89       c-0.382-1.426,0.464-2.892,1.89-3.274C120.65,296.57,122.116,297.417,122.498,298.843z" />
					<circle style="fill:#FFA31C;" cx="84.619" cy="320.023" r="2.673" />
					<path style="fill:#FFA31C;" d="M64.986,352.833c1.426,0.382,2.272,1.848,1.89,3.274c-0.382,1.426-1.848,2.272-3.274,1.89       c-1.426-0.382-2.273-1.848-1.89-3.274C62.094,353.297,63.56,352.451,64.986,352.833z" />
					<path style="fill:#FFA31C;" d="M63.697,393.645c1.426-0.382,2.892,0.464,3.274,1.89c0.382,1.426-0.464,2.892-1.89,3.274       c-1.426,0.382-2.892-0.464-3.274-1.89C61.425,395.493,62.271,394.027,63.697,393.645z" />
					<path style="fill:#FFA31C;" d="M82.987,429.634c1.044-1.044,2.737-1.044,3.781,0c1.044,1.044,1.044,2.737,0,3.781       c-1.044,1.044-2.737,1.044-3.781,0C81.943,432.371,81.943,430.678,82.987,429.634z" />
					<path style="fill:#FFA31C;" d="M117.687,451.157c0.382-1.426,1.848-2.273,3.274-1.89c1.426,0.382,2.272,1.848,1.89,3.274       c-0.382,1.426-1.848,2.272-3.274,1.89C118.151,454.049,117.305,452.583,117.687,451.157z" />
					<path style="fill:#FFA31C;" d="M158.499,452.446c-0.382-1.426,0.464-2.892,1.89-3.274c1.426-0.382,2.892,0.464,3.274,1.89       c0.382,1.426-0.464,2.892-1.89,3.274C160.347,454.719,158.881,453.872,158.499,452.446z" />
					<path style="fill:#FFA31C;" d="M194.489,433.156c-1.044-1.044-1.044-2.737,0-3.781c1.044-1.044,2.737-1.044,3.781,0       c1.044,1.044,1.044,2.737,0,3.781C197.225,434.201,195.532,434.201,194.489,433.156z" />
					<path style="fill:#FFA31C;" d="M216.011,398.457c-1.426-0.382-2.273-1.848-1.89-3.274c0.382-1.426,1.848-2.272,3.274-1.89       c1.426,0.382,2.272,1.848,1.89,3.274C218.903,397.992,217.437,398.839,216.011,398.457z" />
					<path style="fill:#FFA31C;" d="M217.3,357.644c-1.426,0.382-2.892-0.464-3.274-1.89c-0.382-1.426,0.464-2.892,1.89-3.274       c1.426-0.382,2.892,0.464,3.274,1.89C219.573,355.796,218.727,357.262,217.3,357.644z" />
					<path style="fill:#FFA31C;" d="M198.011,321.655c-1.044,1.044-2.737,1.044-3.781,0c-1.044-1.044-1.044-2.737,0-3.781       c1.044-1.044,2.737-1.044,3.781,0C199.055,318.918,199.055,320.611,198.011,321.655z" />
					<path style="fill:#FFA31C;" d="M163.311,300.132c-0.382,1.426-1.848,2.272-3.274,1.89c-1.426-0.382-2.273-1.848-1.89-3.274       c0.382-1.426,1.848-2.272,3.274-1.89C162.847,297.24,163.693,298.706,163.311,300.132z" />
					<path style="fill:#FFA31C;" d="M103.234,306.119c0.738,1.279,0.3,2.914-0.978,3.652c-1.279,0.738-2.914,0.3-3.652-0.979       c-0.738-1.279-0.3-2.914,0.979-3.652C100.861,304.402,102.496,304.84,103.234,306.119z" />
					<circle style="fill:#FFA31C;" cx="72.127" cy="336.381" r="2.673" />
					<circle style="fill:#FFA31C;" cx="61.655" cy="375.827" r="2.673" />
					<circle style="fill:#FFA31C;" cx="72.31" cy="415.225" r="2.673" />
					<path style="fill:#FFA31C;" d="M98.92,442.68c0.738-1.279,2.373-1.717,3.652-0.979c1.279,0.738,1.717,2.373,0.979,3.652       c-0.738,1.279-2.373,1.717-3.652,0.979C98.62,445.593,98.182,443.958,98.92,442.68z" />
					<path style="fill:#FFA31C;" d="M138.008,454.488c0-1.476,1.197-2.673,2.673-2.673c1.476,0,2.673,1.197,2.673,2.673       s-1.197,2.673-2.673,2.673C139.205,457.161,138.008,455.965,138.008,454.488z" />
					<path style="fill:#FFA31C;" d="M177.764,445.17c-0.738-1.279-0.3-2.914,0.979-3.652c1.279-0.738,2.914-0.3,3.652,0.979       c0.738,1.279,0.3,2.914-0.979,3.652C180.137,446.887,178.502,446.449,177.764,445.17z" />
					<path style="fill:#FFA31C;" d="M207.534,417.223c-1.279-0.738-1.717-2.373-0.979-3.652c0.738-1.279,2.373-1.717,3.652-0.979       c1.279,0.738,1.717,2.373,0.979,3.652C210.448,417.523,208.813,417.961,207.534,417.223z" />
					<circle style="fill:#FFA31C;" cx="219.342" cy="375.462" r="2.673" />
					<path style="fill:#FFA31C;" d="M210.025,338.38c-1.279,0.738-2.914,0.3-3.652-0.979c-0.738-1.279-0.3-2.913,0.979-3.652       c1.279-0.738,2.914-0.3,3.652,0.979C211.741,336.007,211.303,337.641,210.025,338.38z" />
					<path style="fill:#FFA31C;" d="M182.077,308.609c-0.738,1.279-2.373,1.717-3.652,0.978c-1.279-0.738-1.717-2.373-0.979-3.652       c0.738-1.279,2.373-1.717,3.652-0.979C182.378,305.696,182.816,307.331,182.077,308.609z" />
				</g>
			</g>
			
</svg>