<svg width="1436" height="107" viewBox="0 0 1436 107" fill="none" xmlns="http://www.w3.org/2000/svg">
<path d="M1036.37 2.03561C1025.55 4.12061 1027.51 9.10863 1018.72 9.70663C1013.03 8.76863 1009.83 15.8026 1005.49 16.0976C1002.82 15.9576 1002.47 18.0046 1002.06 19.9316C994.865 13.1756 990.782 24.0866 983.421 22.4886C983.754 24.1916 984.081 25.8956 984.403 27.6026C982.605 22.5986 970.075 25.5746 970.677 30.1596C963.175 27.1766 945.276 38.1677 935.38 35.2727C934.601 28.8617 937.782 11.4927 930.968 12.2617C929.194 13.9657 925.629 10.9517 923.613 9.70566C919.157 19.2127 901.849 17.4467 893.219 23.7677C893.545 24.6187 893.872 25.4707 894.199 26.3247C886.568 24.3487 881.53 30.7196 875.08 30.8016C872.791 30.3726 870.831 31.2246 869.196 33.3546C862.142 38.2776 854.236 38.7126 846.156 42.9456C839.033 43.5406 840.73 47.9377 835.37 47.4177C830.208 46.4377 819.844 55.6756 814.78 50.6126C815.106 51.8906 815.433 53.1696 815.761 54.4476C808.732 52.1666 804.169 55.5927 798.112 55.7257C797.263 52.0467 806.323 45.5337 802.035 41.6637C805.392 41.2437 808.848 40.1336 808.898 36.5496C807.917 36.1246 806.938 35.6977 805.956 35.2717C811.246 35.4747 808.558 27.7126 811.839 26.3236C808.257 14.6976 796.147 13.1416 788.306 20.5716C787 22.7016 785.53 23.5537 783.895 23.1277C780.423 21.8547 778.413 28.1067 775.07 27.6017C771.54 27.1917 771.836 31.9917 768.207 30.7977C766.572 30.3707 764.776 31.2236 762.814 33.3536C760.211 37.5686 748.8 37.6617 746.636 41.6627C745.13 45.8637 723.595 49.0506 725.555 55.7246C723.997 54.2556 721.928 51.3806 720.163 53.8076C718.749 55.7496 717.934 55.3676 716.732 54.4466C719.034 58.7176 699.722 59.1236 702.024 63.3956C693.211 60.5036 681.901 69.1217 672.609 67.2307C673.714 57.5957 688.605 37.1466 689.277 26.3236C688.297 26.7486 687.316 27.1757 686.335 27.6017C694.572 3.77865 632.686 30.6146 633.389 40.3846C625.406 33.6266 620.373 45.7277 609.367 47.4137C601.493 50.3707 599.726 50.6546 598.092 54.4466C597.438 53.5946 596.785 52.7426 596.132 51.8896C591.874 58.8956 578.149 58.5297 572.11 63.3967C570.172 67.3567 556.033 65.1186 557.892 71.0656C556.585 70.2116 555.277 69.3616 553.97 68.5086C553.658 72.3086 545.123 70.7356 541.224 71.0656C541.551 71.9176 541.877 72.7697 542.205 73.6227C502.958 76.8727 536.814 55.0916 535.341 37.8286C536.322 37.8286 537.303 37.8286 538.282 37.8286C537.303 36.9776 536.322 36.1257 535.341 35.2717C536.654 33.4567 538.41 30.6847 540.244 32.7147C540.244 29.3067 540.244 25.8966 540.244 22.4886C538.476 22.6026 537.226 22.5466 536.812 19.9316C536.774 16.4526 526.236 16.7997 525.537 19.2927C523.68 22.4127 518.64 18.7296 516.223 22.4886C513.858 25.9596 510.559 23.7226 509.359 26.9616C509.032 28.2406 507.889 28.6667 505.927 28.2407C502.887 26.3897 496.036 35.6557 493.671 34.6317C489.015 38.0077 471.613 42.2527 469.65 48.0537C468.67 47.6277 467.689 47.2016 466.708 46.7756C467.036 47.6286 467.361 48.4806 467.689 49.3326C453.888 47.5646 432.686 66.6947 418.665 59.5597C440.741 32.0587 423.897 10.8107 399.055 30.1587C396.412 28.2177 391.773 30.3366 388.27 31.4366C388.598 32.2876 388.924 33.1406 389.251 33.9926C385.693 34.4726 380.204 34.8777 381.407 39.1067C380.753 37.8287 380.099 36.5497 379.446 35.2717C377.157 38.2547 374.871 41.2377 372.582 44.2207C373.175 40.5407 360.093 42.0296 361.797 45.4986C360.817 45.0736 359.837 44.6467 358.855 44.2207C358.974 48.6667 348.611 48.9096 348.07 54.4476C347.288 49.3186 335.934 59.0116 334.343 57.6436C332.417 56.8766 330.742 61.6827 327.97 60.1997C324.86 58.6367 321.488 66.5967 318.655 65.3137C316.441 64.3627 308.792 66.6877 307.87 69.1487C304.025 73.8117 280.444 73.3077 279.436 81.2937C273.139 75.8627 245.748 93.6516 239.236 83.8466C240.779 82.0826 241.163 81.0097 240.707 77.4547C240.479 71.6007 245.792 70.0036 244.139 63.3956C254.899 53.4076 257.147 19.2866 232.374 22.4886C236.396 24.9606 237.552 31.1897 231.393 30.1587C233.718 9.45166 189.969 45.9847 181.389 44.2197C181.389 45.0727 181.389 45.9246 181.389 46.7766C175.787 43.3386 161.956 58.3526 155.896 55.7246C155.896 56.5766 155.896 57.4296 155.896 58.2816C154.228 56.9116 153.523 57.5466 150.504 60.1986C147.876 64.0176 138.41 64.3966 136.777 67.8686C132.353 70.3016 121.432 69.6177 114.717 73.6217C116.445 55.9777 129.414 41.4877 116.678 23.7667C115.698 24.6187 114.717 25.4706 113.736 26.3236C113.782 22.9696 110.094 21.0207 107.852 23.7677C107.323 25.9457 93.1818 24.9506 95.1058 28.8806C84.5488 27.7856 68.493 45.7806 59.809 45.4986C59.809 46.3516 59.809 47.2036 59.809 48.0556C55.454 44.3636 48.385 56.4537 44.121 55.7257C33.794 59.3997 26.204 72.6456 13.726 71.0656C16.71 68.3236 16.882 63.8126 16.668 59.5606C16.014 59.5606 15.3609 59.5606 14.7069 59.5606C15.3609 58.7086 16.014 57.8566 16.668 57.0036C0.417969 49.1646 1.189 70.6077 0 82.5697C0.981 82.5697 1.96189 82.5697 2.94189 82.5697C-1.43211 97.3977 16.703 92.3466 26.474 90.2376C26.146 88.9616 25.8199 87.6857 25.4929 86.4087C29.4049 89.6437 34.927 78.8737 39.22 82.5697C39.22 81.2877 39.22 80.0217 39.22 78.7307C47.65 78.8137 47.574 71.3276 58.83 68.5106C69.799 64.8946 68.8299 61.9026 75.9879 58.2816C81.5709 53.8976 89.065 53.4007 89.225 44.2207C91.691 45.0297 90.6829 48.2436 90.2059 50.6126C95.7619 48.4826 101.317 46.3517 106.874 44.2207C104.137 56.6417 92.1919 82.8926 105.893 87.6856C105.239 88.1096 104.586 88.5376 103.932 88.9616C114.132 99.9126 136.115 87.8246 146.582 82.5706C149.088 80.0996 182.735 71.1596 179.429 63.3956C182.794 67.2786 184.117 62.5096 187.272 62.7546C188.581 63.1826 189.561 62.7566 190.214 61.4786C190.965 58.5326 199.326 59.4737 198.058 55.7257C202.654 58.3007 206.141 50.7257 212.276 51.2527C221.04 49.3257 218.627 45.3266 228.944 43.5826C248.517 34.1906 209.326 96.2357 232.375 100.47C232.375 101.323 232.375 102.17 232.375 103.023C233.682 102.17 234.989 101.323 236.296 100.47C235.969 102.175 235.641 103.88 235.316 105.586C242.339 108.273 257.062 106.21 263.75 103.664C267.524 100.732 273.402 100.633 279.437 101.746C279.109 100.897 278.783 100.034 278.456 99.1937C295.428 97.5857 301.529 90.0727 319.147 84.4857C331.782 77.0797 350.227 76.4306 356.895 65.9526C362.641 67.6086 363.307 62.6406 367.679 62.7546C371.843 63.8986 375.319 60.9716 374.543 57.0046C374.069 62.8886 400.533 46.7036 401.017 48.6956C402.582 49.7716 403.517 44.7756 405.428 46.1386C407.379 46.9316 408.109 43.4187 408.861 41.6637C409.381 50.2787 400.725 54.3627 401.509 64.6747C397.837 81.3947 424.771 90.2746 429.451 74.9006C430.104 75.7496 430.76 76.6126 431.412 77.4536C431.412 76.6126 431.412 75.7506 431.412 74.9006C434.228 75.3426 436.102 77.1637 436.314 80.0177C436.641 78.7387 436.966 77.4567 437.295 76.1787C437.593 80.6877 451.225 76.3077 450.041 72.3447C450.695 73.1967 451.347 74.0486 452.003 74.9016C453.314 73.0866 455.073 70.3127 456.905 72.3447C456.905 71.4917 456.905 70.6397 456.905 69.7877C461.572 71.9367 462.535 65.3666 469.651 68.5096C469.324 67.6576 468.998 66.8046 468.67 65.9526C473.156 67.8616 476.517 61.4326 479.455 63.3956C479.129 62.5436 478.801 61.6906 478.475 60.8386C480.762 60.4126 483.051 59.9866 485.338 59.5606C485.338 60.4126 485.338 61.2656 485.338 62.1176C485.042 57.4646 490.51 59.2807 492.202 56.3657C493.213 54.1107 495.346 55.1247 497.105 55.7257C497.105 54.4477 497.105 53.1686 497.105 51.8906C498.085 52.7426 499.065 53.5946 500.047 54.4476C500.047 53.5956 500.047 52.7426 500.047 51.8906C504.679 52.7566 510.184 48.4686 514.754 45.4986C514.228 47.9336 514.426 52.5496 511.812 51.8906C512.14 52.7426 512.465 53.5956 512.793 54.4476C504.622 58.0356 509.466 74.4837 508.871 83.8466C509.709 81.9377 510.96 79.3037 512.793 81.2937C507.921 91.6387 528.244 93.3396 536.324 95.3536C536.324 94.5046 536.324 93.6416 536.324 92.8006C538.611 92.8006 540.9 92.8006 543.187 92.8006C543.187 91.5216 543.187 90.2406 543.187 88.9616C544.498 89.8176 545.803 90.6706 547.109 91.5146C547.435 90.6726 547.761 89.8206 548.09 88.9616C549.853 91.2626 552.209 91.2616 553.972 88.9616C554.301 89.8196 554.627 90.6726 554.953 91.5146C554.953 90.6736 554.953 89.8216 554.953 88.9616C561.467 90.9366 564.421 84.5057 569.66 84.4817C576.525 84.0267 585.204 77.6036 592.211 76.1766C597.608 72.9726 627.555 62.2986 631.43 55.7246C632.085 56.5766 632.738 57.4296 633.392 58.2816C633.506 55.1746 635.651 54.2276 638.294 55.7246C638.294 54.8726 638.294 54.0197 638.294 53.1677C640.918 56.3697 648.018 45.6866 651.04 49.3326C651.477 44.7626 662.207 45.5786 664.767 40.3836C661.766 53.6696 649.131 76.4557 669.674 85.1217C679.577 89.0047 673.545 84.2706 686.338 84.4846C694.34 83.6376 696.625 83.9327 696.142 80.0167C699.109 86.9497 706.137 76.0216 709.379 77.4516C715.325 80.6836 716.241 74.7407 722.614 73.6217C727.409 72.4837 728.09 70.5776 728.498 67.2296C737.281 73.1036 751.927 56.4156 758.893 57.0027C758.893 56.1507 758.893 55.2976 758.893 54.4456C760.528 54.8716 762.161 55.2976 763.795 55.7236C763.795 54.4456 763.795 53.1666 763.795 51.8886C768.164 54.6436 767.462 49.2376 771.638 49.3316C774.799 50.0536 786.926 38.2767 782.915 48.6937C778.239 55.0877 782.749 80.0697 793.21 71.0647C793.21 72.3427 793.21 73.6216 793.21 74.8996C793.611 73.3346 794.467 71.9386 796.151 72.3426C795.824 73.1946 795.498 74.0466 795.17 74.8996C798.111 74.8996 801.053 74.8996 803.994 74.8996C803.994 74.0466 803.994 73.1946 803.994 72.3426C811.718 76.7946 812.083 70.0946 822.623 70.4256C840.577 68.5206 846.184 61.4127 863.312 56.3617C880.302 55.1477 873.386 48.0417 880.959 42.2977C884.569 43.1247 889.078 51.7927 891.748 44.8567C894.204 41.2697 907.807 43.9087 906.944 36.5477C910.539 36.5477 914.134 36.5477 917.729 36.5477C917.079 40.9727 920.151 52.3207 925.573 51.8877C925.247 52.7397 924.919 53.5927 924.593 54.4447C930.325 53.7677 937.209 52.5646 941.26 55.7226C941.26 54.0176 941.26 52.3136 941.26 50.6096C941.915 50.6096 942.569 50.6096 943.224 50.6096C943.224 51.8876 943.224 53.1667 943.224 54.4447C945.762 50.8897 954.579 52.0957 959.885 51.8877C959.885 50.6097 959.885 49.3306 959.885 48.0526C960.869 48.9026 961.851 49.7546 962.831 50.6096C963.443 48.4026 964.286 48.1186 968.226 48.0526C972.638 49.1066 974.91 44.0086 977.538 45.4946C983.19 45.0466 993.033 38.8986 1001.07 39.1046C1000.74 38.2546 1000.41 37.4027 1000.09 36.5477C1006.01 37.2907 1011.6 34.8786 1016.76 31.4356C1016.43 30.5846 1016.1 29.7326 1015.78 28.8786C1017.4 28.8786 1019.05 28.8786 1020.68 28.8786C1020.68 28.0256 1020.68 27.1736 1020.68 26.3216C1025.42 26.8656 1029.97 25.8876 1031.46 21.2076C1032.11 22.0596 1032.77 22.9116 1033.42 23.7646C1036.77 19.0806 1039.75 22.4327 1039.3 29.5177C1043.87 61.0307 1086.32 36.4976 1107.94 31.4356C1100.03 59.0976 1132.25 71.4757 1150.1 57.0017C1154.34 62.1957 1170.12 48.6926 1176.09 49.3336C1180.33 48.4806 1182.62 47.4146 1182.95 46.1356C1185.99 43.6966 1193.31 45.0497 1197.16 40.3827C1198.24 54.8397 1202.11 61.0386 1214.82 63.3936C1214.48 64.2476 1214.17 65.1007 1213.83 65.9507C1216.63 64.3067 1219.63 63.0186 1222.66 63.3936C1222.66 64.2456 1222.66 65.0987 1222.66 65.9507C1225.54 61.7207 1232.75 66.1797 1236.39 62.1157C1240.98 57.9677 1243.14 63.8886 1248.15 58.9196C1256.82 55.9056 1274.91 45.0626 1281.49 57.6396C1283.75 63.7316 1288.04 68.6516 1290.31 63.3946C1292.74 74.4026 1304.82 65.8487 1313.84 67.2307C1326.43 67.0547 1323.08 71.1807 1336.88 66.5907C1346.74 60.5327 1358.03 70.3387 1360.91 62.1167C1362.86 62.5437 1364.83 62.9696 1366.79 63.3946C1365.43 56.8236 1414.78 60.5107 1411.89 53.1677C1412.54 54.0197 1413.2 54.8726 1413.85 55.7246C1415.91 47.8076 1420.3 55.0946 1428.07 49.3316C1460.76 25.0396 1377.2 44.8076 1373.66 40.3836C1373.24 42.2306 1372.8 44.7806 1370.71 44.2186C1371.04 43.3686 1371.37 42.5166 1371.69 41.6616C1366.32 39.9506 1362.75 45.0207 1358.95 44.2207C1355.7 42.1867 1350.51 47.8547 1346.69 45.4957C1336.73 44.3617 1304.81 53.4686 1295.22 46.7746C1308.18 13.1016 1282.27 28.5446 1265.8 31.4356C1265.8 32.2876 1265.8 33.1407 1265.8 33.9917C1255.91 32.6047 1251.66 41.1707 1240.3 41.0227C1234.42 41.4497 1230.99 42.3017 1230.01 43.5797C1226.81 45.4287 1220.23 42.1086 1214.82 44.2186C1219.92 36.8296 1228.12 27.4596 1226.58 19.9306C1224.59 20.0906 1223.57 19.8476 1223.15 16.7346C1220.14 8.18859 1208.45 18.7377 1204.03 16.0957C1204.36 16.9457 1204.69 17.7977 1205.01 18.6527C1198.03 17.0457 1195.41 23.4856 1188.83 24.4066C1184.63 24.9646 1183.92 26.1616 1183.44 28.8796C1181.66 23.9836 1177.43 32.5297 1174.62 30.1587C1171.28 29.2767 1168.78 34.4416 1163.83 32.7136C1167.23 37.1666 1134.95 38.4886 1138.34 42.9406C1132.56 43.2526 1126.97 42.4956 1121.67 40.3836C1123.05 36.8566 1126.4 31.4776 1124.62 28.8796C1132.11 29.1006 1130.18 17.0596 1130.5 10.9826C1125.81 11.6596 1128.27 4.8676 1121.67 5.8696C1114.61 7.0326 1107.62 10.7487 1101.57 12.8967C1097.22 15.2097 1056.28 28.0906 1053.03 23.7656C1056.11 21.1506 1055.54 17.1877 1054.01 13.5387C1055 14.3877 1055.98 15.2397 1056.96 16.0957C1056.63 14.3887 1056.32 12.6856 1055.98 10.9826C1056.63 10.9826 1057.29 10.9826 1057.94 10.9826C1055.92 -0.694366 1048.27 -1.92339 1036.37 2.03561ZM1037.35 5.8707C1038.01 6.7197 1038.65 7.57158 1039.31 8.42758C1038.34 8.42758 1037.35 8.42758 1036.37 8.42758C1036.69 7.57358 1037.02 6.7207 1037.35 5.8707ZM923.613 10.9836C924.267 11.8356 924.92 12.6876 925.574 13.5406C924.921 12.6886 924.267 11.8356 923.613 10.9836ZM1044.22 12.2627C1044.87 12.6867 1045.52 13.1126 1046.17 13.5406C1045.52 13.1116 1044.87 12.6857 1044.22 12.2627ZM1100.1 14.8187C1100.76 14.8187 1101.41 14.8187 1102.07 14.8187C1101.73 15.6687 1101.41 16.5206 1101.08 17.3756C1100.75 16.5246 1100.42 15.6727 1100.1 14.8187ZM805.955 18.6546C808.152 19.3906 807.597 21.7866 806.936 23.7686C806.609 22.0616 806.283 20.3576 805.955 18.6546ZM1090.29 19.9326C1090.62 20.7826 1090.95 21.6346 1091.27 22.4896C1090.95 21.6346 1090.62 20.7826 1090.29 19.9326ZM516.713 22.4896C517.041 23.3406 517.366 24.1926 517.694 25.0466C517.366 24.1926 517.04 23.3406 516.713 22.4896ZM1073.63 23.7677C1074.6 24.1927 1075.59 24.6186 1076.57 25.0456C1076.23 27.0846 1074.65 27.9526 1072.65 27.6026C1072.97 26.3226 1073.3 25.0447 1073.63 23.7677ZM1289.34 26.3247C1289.99 26.7527 1290.64 27.1786 1291.29 27.6026C1290.31 28.0276 1289.33 28.4546 1288.36 28.8806C1288.68 28.0266 1289.01 27.1747 1289.34 26.3247ZM884.394 27.6026C884.72 28.4546 885.047 29.3066 885.375 30.1596C884.72 30.1596 884.067 30.1596 883.413 30.1596C883.741 29.3066 884.067 28.4546 884.394 27.6026ZM1094.22 27.6026C1094.87 27.6026 1095.53 27.6026 1096.17 27.6026C1096.17 29.3056 1096.17 31.0117 1096.17 32.7147C1095.53 32.7147 1094.87 32.7147 1094.22 32.7147C1094.22 31.0117 1094.22 29.3056 1094.22 27.6026ZM790.268 32.7157C790.596 33.5687 790.921 34.4207 791.249 35.2727C790.921 34.4207 790.595 33.5687 790.268 32.7157ZM956.951 32.7157C957.274 33.5707 957.601 34.4227 957.933 35.2727C957.601 34.4217 957.274 33.5697 956.951 32.7157ZM875.57 33.9936C876.224 34.8466 876.878 35.6986 877.531 36.5506C876.551 36.9776 875.57 37.4036 874.591 37.8286C874.915 36.5506 875.243 35.2716 875.57 33.9936ZM902.042 35.2717C902.37 36.1247 902.696 36.9766 903.023 37.8286C902.369 38.2556 901.716 38.6817 901.062 39.1067C901.388 37.8287 901.717 36.5507 902.042 35.2717ZM1114.81 35.9106C1115.46 36.1236 1116.12 36.3376 1116.77 36.5496C1114.48 36.9766 1112.19 37.4026 1109.91 37.8276C1111.28 36.5606 1112.74 35.1106 1114.81 35.9106ZM83.34 36.5506C83.994 36.9776 84.6469 37.4036 85.3019 37.8286C84.6459 37.4036 83.994 36.9766 83.34 36.5506ZM506.908 36.5506C507.236 37.4036 507.561 38.2556 507.889 39.1076C507.235 39.1076 506.581 39.1076 505.927 39.1076C506.255 38.2556 506.581 37.4036 506.908 36.5506ZM635.351 36.5506C636.005 36.9776 636.659 37.4036 637.312 37.8286C636.332 38.2556 635.352 38.6817 634.371 39.1067C634.698 38.2557 635.024 37.4036 635.351 36.5506ZM1263.84 36.5506C1264.18 37.4016 1264.49 38.2536 1264.82 39.1076C1264.49 38.2526 1264.18 37.4006 1263.84 36.5506ZM954.987 39.1067C955.319 39.9577 955.646 40.8097 955.969 41.6637C955.647 40.8107 955.319 39.9587 954.987 39.1067ZM959.886 40.3856C960.541 40.3856 961.195 40.3856 961.85 40.3856C961.527 41.2406 961.2 42.0926 960.868 42.9426C960.546 42.0886 960.218 41.2366 959.886 40.3856ZM772.62 42.9416C773.273 43.7946 773.927 44.6466 774.581 45.4986C773.926 44.6476 773.273 43.7956 772.62 42.9416ZM675.551 44.2207C676.203 44.2207 676.858 44.2207 677.512 44.2207C677.186 45.0737 676.858 45.9257 676.532 46.7777C676.205 45.9257 675.878 45.0737 675.551 44.2207ZM188.251 45.4986C188.578 46.3526 188.904 47.2036 189.232 48.0556C188.905 47.2046 188.579 46.3526 188.251 45.4986ZM493.182 45.4986C493.836 46.3516 494.49 47.2036 495.142 48.0556C494.163 48.0556 493.182 48.0556 492.201 48.0556C492.528 47.2046 492.855 46.3526 493.182 45.4986ZM933.419 46.7777C934.4 48.0597 935.375 49.3376 936.363 50.6126C935.375 49.3366 934.4 48.0587 933.419 46.7777ZM765.756 49.3336C766.411 50.1866 767.063 51.0386 767.718 51.8906C767.062 51.0386 766.41 50.1866 765.756 49.3336ZM744.185 50.6126C744.84 51.4656 745.492 52.3166 746.147 53.1696C746.147 52.3176 746.147 51.4666 746.147 50.6126C747.126 50.6126 748.107 50.6126 749.087 50.6126C749.087 52.7426 749.087 54.8736 749.087 57.0046C746.8 56.5786 744.511 56.1526 742.224 55.7267C742.878 54.0216 743.532 52.3166 744.185 50.6126ZM745.656 54.4476C745.492 54.8736 745.33 55.3007 745.166 55.7257C745.818 55.7257 746.473 55.7257 747.127 55.7257C746.801 54.8737 746.473 54.0216 746.147 53.1696C745.983 53.5956 745.819 54.0216 745.656 54.4476ZM1346.21 53.1687C1346.86 53.5987 1347.5 54.0236 1348.16 54.4466C1347.5 54.0246 1346.86 53.5987 1346.21 53.1687ZM819.682 54.4476C820.009 55.2996 820.335 56.1526 820.663 57.0046C820.335 56.1526 820.01 55.2996 819.682 54.4476ZM479.455 56.3646C480.109 56.5776 480.762 56.7906 481.417 57.0036C479.456 58.2816 477.494 59.5606 475.534 60.8386C476.323 58.8866 477.035 55.5096 479.455 56.3646ZM5.88196 57.0036C6.53596 57.8556 7.18899 58.7076 7.84399 59.5606C7.18799 58.7086 6.53596 57.8566 5.88196 57.0036ZM370.622 58.2827C371.274 58.2827 371.929 58.2827 372.582 58.2827C372.256 59.1347 371.928 59.9877 371.602 60.8397C371.275 59.9877 370.948 59.1347 370.622 58.2827ZM1343.26 58.2827C1344.24 59.5637 1345.22 60.8416 1346.21 62.1176C1345.22 62.1176 1344.24 62.1176 1343.26 62.1176C1343.26 60.8396 1343.26 59.5607 1343.26 58.2827ZM808.897 60.8397C809.224 61.6917 809.55 62.5447 809.878 63.3967C808.896 63.3967 807.916 63.3967 806.936 63.3967C807.589 62.5437 808.244 61.6907 808.897 60.8397ZM574.562 64.6747C574.887 65.5266 575.217 66.3797 575.542 67.2317C575.216 66.3787 574.887 65.5266 574.562 64.6747ZM785.365 64.6747C786.346 65.5266 787.325 66.3797 788.307 67.2317C787.326 67.2317 786.346 67.2317 785.365 67.2317C785.365 66.3787 785.365 65.5266 785.365 64.6747ZM320.617 65.9526C320.943 66.8046 321.271 67.6576 321.597 68.5096C320.943 68.5096 320.29 68.5096 319.636 68.5096C319.964 67.6576 320.289 66.8046 320.617 65.9526ZM591.229 67.2307C591.556 68.0827 591.883 68.9347 592.21 69.7877C591.884 68.9357 591.557 68.0827 591.229 67.2307ZM5.88196 68.5096C6.20996 69.3616 6.53491 70.2126 6.86292 71.0666C6.53491 70.2126 6.20896 69.3616 5.88196 68.5096ZM144.13 68.5096C144.784 68.5096 145.437 68.5096 146.091 68.5096C145.764 69.3626 145.438 70.2136 145.11 71.0666C144.784 70.2126 144.456 69.3616 144.13 68.5096ZM240.217 68.5096C240.542 69.7876 240.872 71.0667 241.197 72.3447C240.872 71.0667 240.543 69.7876 240.217 68.5096ZM26.4719 69.7877C27.1249 70.6397 27.779 71.4917 28.433 72.3447C27.453 72.7697 26.472 73.1966 25.491 73.6227C25.818 72.3447 26.1449 71.0657 26.4719 69.7877ZM450.04 69.7877C450.694 70.2127 451.346 70.6396 452.002 71.0656C451.347 70.6396 450.694 70.2127 450.04 69.7877ZM415.723 72.3447C416.05 73.1967 416.376 74.0486 416.704 74.9016C416.376 74.0486 416.051 73.1967 415.723 72.3447ZM508.869 72.3447C509.523 72.3447 510.176 72.3447 510.831 72.3447C510.504 73.1957 510.177 74.0476 509.85 74.9016C509.522 74.0476 509.197 73.1957 508.869 72.3447ZM123.539 88.9626C124.194 89.3846 124.847 89.8236 125.501 90.2386C124.518 90.6706 123.538 91.0946 122.559 91.5146C122.883 90.6736 123.213 89.8206 123.539 88.9626Z" fill="#569AB2"/>
</svg>
